<svg width="1512" height="1512"
  xmlns="http://www.w3.org/2000/svg"
  xmlns:xlink="http://www.w3.org/1999/xlink" xml:space="preserve" overflow="hidden">
  <defs>
    <clipPath id="clip0">
      <rect x="136" y="132" width="1512" height="1512"/>
    </clipPath>
  </defs>
  <g clip-path="url(#clip0)" transform="translate(-136 -132)">
    <path d="M136.749 307.56C136.749 211.015 215.015 132.749 311.56 132.749L1472.44 132.749C1568.98 132.749 1647.25 211.015 1647.25 307.56L1647.25 1468.44C1647.25 1564.98 1568.98 1643.25 1472.44 1643.25L311.56 1643.25C215.015 1643.25 136.749 1564.98 136.749 1468.44Z" stroke="#2F528F" stroke-width="1.33201" stroke-miterlimit="8" fill="#283593" fill-rule="evenodd"/>
    <path d="M154.482 564.402C154.482 466.838 233.573 387.746 331.137 387.746L1451.86 387.746C1549.43 387.746 1628.52 466.838 1628.52 564.402L1628.52 1420.89C1628.52 1518.45 1549.43 1597.55 1451.86 1597.55L331.137 1597.55C233.573 1597.55 154.482 1518.45 154.482 1420.89Z" fill="#F4F4F4" fill-rule="evenodd"/>
    <path d="M891.795 456.768C1113.66 456.768 1336.1 457.358 1557.96 456.178 1582.75 456.178 1588.06 462.668 1588.06 486.858 1587.47 798.374 1587.47 1109.89 1587.47 1421.4 1587.47 1527.01 1530.83 1583.06 1425.21 1583.06 1069.4 1583.06 713.597 1583.06 357.796 1583.06 252.177 1583.06 195.531 1527.01 195.531 1421.4 195.531 1109.89 195.531 798.374 194.942 486.858 194.942 462.668 200.252 456.178 225.034 456.178 447.485 457.358 669.935 456.768 891.795 456.768ZM894.158 639.666C753.722 639.666 613.29 639.077 472.857 639.666 388.48 640.256 325.344 705.156 325.934 788.344 326.523 867.99 391.43 934.069 472.857 934.659 751.954 935.253 1030.46 935.253 1309.56 934.659 1354.4 934.659 1392.16 917.551 1421.08 883.33 1462.38 834.363 1470.05 778.903 1441.72 721.086 1415.77 666.804 1369.74 639.666 1309.56 639.666 1170.89 639.077 1032.23 639.077 894.158 639.666ZM733.662 1111.07C650.465 1111.07 566.676 1111.07 483.478 1111.07 467.547 1111.07 452.205 1111.07 436.864 1115.2 364.287 1135.26 318.263 1202.52 327.114 1275.68 335.965 1349.42 397.92 1405.47 474.628 1406.06 645.744 1406.66 816.27 1406.66 987.385 1406.06 1073.53 1406.06 1139.62 1341.75 1140.21 1259.75 1140.8 1174.79 1076.48 1111.66 987.975 1111.07 902.415 1110.48 818.038 1111.07 733.662 1111.07ZM1528.46 1352.96C1527.87 1259.75 1450.58 1182.46 1357.35 1182.46 1264.12 1183.05 1186.82 1260.34 1186.82 1353.55 1187.41 1446.77 1264.71 1524.06 1357.94 1524.06 1451.75 1524.06 1529.05 1446.18 1528.46 1352.96Z" fill="#F4F4F4" fill-rule="evenodd"/>
    <path d="M136.999 1482.73C136.999 1085.74 136.999 688.758 136.999 291.767 163.545 212.134 217.227 159.634 296.276 132.5 691.519 132.5 1086.17 132.5 1481.42 132.5 1509.14 146.657 1540.41 153.735 1566.36 173.201 1608.84 205.055 1628.89 249.886 1646 297.666 1646 692.884 1646 1087.52 1646 1482.73 1630.07 1506.92 1624.17 1535.82 1607.07 1559.42 1575.21 1603.07 1529.2 1623.72 1480.83 1642 1085.58 1642 690.929 1642 295.686 1642 294.506 1640.23 293.916 1637.87 292.737 1637.28 214.278 1614.87 163.545 1564.14 141.129 1485.68 141.129 1484.5 138.179 1483.91 136.999 1482.73ZM891.5 456.934C669.69 456.934 447.295 457.524 225.486 456.344 200.71 456.344 195.401 462.832 195.401 487.017 195.99 798.474 195.99 1109.93 195.99 1421.39 195.99 1526.98 252.622 1583.02 358.217 1583.02 713.937 1583.02 1069.65 1583.02 1425.38 1583.02 1530.97 1583.02 1587.6 1526.98 1587.6 1421.39 1587.6 1109.93 1587.6 798.474 1588.19 487.017 1588.19 462.832 1582.88 456.344 1558.1 456.344 1335.7 457.524 1113.31 456.934 891.5 456.934ZM407.77 305.924C407.18 269.352 375.914 238.678 339.34 239.268 302.765 239.858 272.089 271.121 272.679 307.694 273.269 344.266 304.535 374.94 341.11 374.35 377.684 373.76 408.36 342.497 407.77 305.924ZM504.516 374.35C541.091 374.94 572.357 344.856 573.536 308.284 574.716 271.711 545.221 240.447 508.646 238.678 470.891 237.498 438.446 268.172 438.446 305.924 437.266 343.087 467.942 373.76 504.516 374.35ZM671.464 239.268C634.888 238.678 603.622 268.762 602.442 305.924 601.852 342.497 631.938 373.76 669.101 374.94 705.675 375.53 736.944 345.446 738.123 308.284 738.712 271.121 708.627 239.858 671.464 239.268Z" fill="#283593" fill-rule="evenodd"/>
    <path d="M407.722 305.943C408.311 342.453 377.69 373.663 341.181 374.251 304.671 374.84 273.462 344.219 272.873 307.71 272.284 271.2 302.904 239.991 339.414 239.402 375.923 238.813 407.134 269.434 407.722 305.943Z" fill="#FE5353" fill-rule="evenodd"/>
    <path d="M689.486 1111.29C764.756 1111.29 840.022 1110.7 915.292 1111.29 994.768 1111.88 1051.62 1175.01 1051.09 1259.97 1050.56 1341.98 991.611 1406.29 914.762 1406.29 762.124 1406.89 610.009 1406.89 457.369 1406.29 389.47 1405.7 334.203 1349.65 325.782 1275.9 317.886 1202.74 358.941 1135.48 423.682 1115.42 437.367 1111.29 451.578 1111.29 465.264 1111.29 540.531 1111.29 614.747 1111.29 689.486 1111.29Z" fill="#BCBCBC" fill-rule="evenodd"/>
    <path d="M893.938 639.497C1032.6 639.497 1170.67 639.497 1309.33 639.497 1369.51 639.497 1415.53 666.63 1442.08 720.901 1469.81 778.708 1462.73 834.158 1421.43 883.12 1392.52 917.336 1354.76 934.444 1309.92 934.444 1030.83 934.444 752.334 935.033 473.246 934.444 391.821 934.444 326.918 867.785 326.328 788.149 325.147 705.566 388.281 640.675 472.066 640.086 613.084 638.907 753.512 640.086 893.938 639.497Z" fill="#BCBCBC" fill-rule="evenodd"/>
    <path d="M504.733 374.251C468.228 373.662 438.2 343.056 438.2 306.564 438.2 268.894 470.584 237.699 508.266 239.465 544.771 240.642 574.21 272.426 573.032 308.918 571.855 345.41 541.238 374.84 504.733 374.251Z" fill="#E1A247" fill-rule="evenodd"/>
    <path d="M671.649 239.402C708.272 239.991 738.987 271.2 738.392 308.299 737.803 344.808 706.499 374.84 669.291 374.251 632.669 373.662 601.955 342.453 602.546 305.355 603.727 268.845 635.031 238.813 671.649 239.402Z" fill="#5C9177" fill-rule="evenodd"/>
    <path d="M1360.97 1473.67C1316.4 1472.81 1276.01 1461.74 1240.92 1434.42 1226.64 1423.34 1214.21 1410.3 1205.83 1394.19 1187.12 1357.89 1187.61 1321.84 1210.01 1287.14 1231.81 1253.3 1264.56 1234.48 1302.48 1224.88 1358.02 1210.85 1411.2 1217.75 1460.21 1248.14 1488.28 1265.49 1509.09 1289.36 1517.83 1321.84 1527.31 1357.03 1518.7 1388.77 1495.55 1416.46 1469.82 1447.22 1435.46 1462.84 1396.8 1470.35 1384.61 1472.68 1372.42 1473.3 1360.97 1473.67Z" fill="#FE5353" fill-rule="evenodd"/>
    <path d="M1155.99 1086.05C1201.48 1086.05 1239.84 1132.8 1230.5 1176.95 1224.11 1207.42 1195.09 1225.55 1163.37 1219.14 1127.71 1211.98 1100.17 1178.56 1100.04 1142.42 1100.04 1109.86 1123.53 1086.18 1155.99 1086.05Z" fill="#FE5353" fill-rule="evenodd"/>
    <path d="M1351.23 1074.62C1364.65 1074.25 1377.82 1075.72 1390.01 1081.75 1413.65 1093.19 1418.08 1116.32 1400.6 1135.75 1377.45 1161.46 1328.58 1171.79 1297.19 1157.52 1280.81 1150.15 1272.69 1138.21 1274.66 1123.33 1276.01 1112.87 1282.17 1105 1289.68 1097.99 1303.22 1085.56 1326.73 1075.48 1351.23 1074.62Z" fill="#FE5353" fill-rule="evenodd"/>
  </g>
</svg>
