<!--?xml version="1.0" encoding="utf-8"?-->
<!-- Generator: Adobe Illustrator 15.1.0, SVG Export Plug-In . SVG Version: 6.00 Build 0)  -->

<svg version="1.1" id="_x32_" xmlns="http://www.w3.org/2000/svg" xmlns:xlink="http://www.w3.org/1999/xlink" x="0px" y="0px" width="512px" height="512px" viewBox="0 0 512 512" style="width: 64px; height: 64px; opacity: 1;" xml:space="preserve">
<style type="text/css">

	.st0{fill:#4B4B4B;}

</style>
<g>
	<path class="st0" d="M403.469,395.031c-129.203,0-233.938-104.75-233.938-233.953c0-62.438,24.5-119.125,64.375-161.078
		C109.313,17.953,13.563,125.094,13.563,254.656C13.563,396.781,128.781,512,270.906,512c98.688,0,184.359-55.578,227.531-137.125
		C469.406,387.781,437.297,395.031,403.469,395.031z" style="fill: rgb(230, 206, 11);"></path>
	<path class="st0" d="M349.641,179.328c1.047,1.016,1.516,2.484,1.266,3.922l-8.563,49.938c-0.281,1.672,0.406,3.344,1.766,4.344
		c1.359,0.984,3.156,1.109,4.656,0.328l44.859-23.578c1.281-0.688,2.813-0.688,4.109,0l44.859,23.578
		c1.484,0.781,3.297,0.656,4.656-0.328c1.359-1,2.031-2.672,1.75-4.344l-8.563-49.938c-0.25-1.438,0.219-2.906,1.266-3.922
		L478,143.969c1.203-1.172,1.641-2.938,1.125-4.531c-0.531-1.594-1.906-2.781-3.578-3.016l-50.141-7.297
		c-1.438-0.203-2.688-1.109-3.344-2.406l-22.422-45.453c-0.734-1.516-2.281-2.453-3.969-2.453c-1.672,0-3.219,0.938-3.953,2.453
		l-22.438,45.453c-0.641,1.297-1.891,2.203-3.328,2.406l-50.141,7.297c-1.672,0.234-3.063,1.422-3.578,3.016
		s-0.078,3.359,1.125,4.531L349.641,179.328z" style="fill: rgb(230, 206, 11);"></path>
</g>
</svg>
