<?xml version="1.0" encoding="utf-8"?>
<!-- Generator: Adobe Illustrator 24.1.1, SVG Export Plug-In . SVG Version: 6.00 Build 0)  -->
<svg version="1.1" id="Layer_1" xmlns="http://www.w3.org/2000/svg" xmlns:xlink="http://www.w3.org/1999/xlink" x="0px" y="0px"
	 viewBox="0 0 512 512" style="enable-background:new 0 0 512 512;" xml:space="preserve">
<g>
	<path d="M46.4,60.1c5,9,10.2,16.7,15.6,23.2h-0.1c-2.5-0.3-5-0.6-7.6-0.5c-5.8,0-11.4,1-16.8,2.8c10.5,8.8,19.4,15.2,27.2,20.2
		c19.3,6.3,40.8,16.7,59.2,28.3c9.1,5.8,17.2,11.6,23.7,16.7c6.4,5,12.1,10,13.2,12.3c1.2,2.2,0,2.9-1.7,1.2
		c-1.7-1.7-6.5-6.8-12.8-11.8c-7.6-5.8-15.5-11.3-23.6-16.5c-16.6-10.4-42.3-20.5-58-30.2c-12.1-3.9-25.2-4.4-40.5,2.9
		c11.1,7,20.6,12.1,28.8,15.9c23.6,3.2,48.2,14.7,68.8,27.8c10.2,6.6,19.2,13.2,26,18.6c3.3,2.7,6.2,5,8.3,7
		c2.1,1.9,3.8,3.2,4.2,4.4c0.7,1.6-0.4,2.2-1.7,1.2c-0.8-0.5-1.8-2.2-3.9-4.1c-2.7-2.4-5.4-4.8-8.3-6.9
		c-6.6-5.3-15.5-11.8-25.7-18.3c-19.1-12-47.7-21.6-67.7-29.7c-12.8-2.4-26.1-1.3-40.6,8.2c9.6,4.2,17.9,7.5,25.3,9.9
		c-12.1,0.4-24.1,4.2-35.8,15.2c10.2,2.6,18.9,4.2,26.5,5.3c-9.3,1.9-18.5,6.4-27.5,15.4c6.9,1.5,13.2,2.6,18.9,3.4
		c-7.1,3.4-13.7,8.7-19.8,16.8c7.9,0.7,15,0.9,21.3,0.9C13.7,203.3,6.5,209,0.1,218c11.3,0.5,20.9,0.5,29.1,0
		c-9,3.7-17.3,9.9-24.4,20.7c11.6,0.2,23.2-0.3,34.7-1.7l-0.2,0.1c21.2-1.6,49.1,2.7,63.2,18.1l-1.6,1.6
		c-13.7-12.4-31.8-17.7-61.6-19.7C27.7,240.2,17,246.6,8.2,260c11.4,0.1,20.9-0.3,29.1-1c-10,5.4-18.5,13.7-24.2,27.8
		c10.3-1.9,19-4.1,26.4-6.2c-7.8,5.7-14.3,13.6-18.6,25.5c6.9-1.6,13-3.2,18.5-4.7c-5.5,6.7-9.3,14.8-10.9,23.4
		c7.5-2.8,14-5.5,19.8-8.2h0.1c6-4.9,15.1-9.7,27.5-13.2c10.7-3.1,23.1-6.1,35.1-6.4c1.7-0.1,3.5-0.1,5.2,0c2.2,0.1,1.3,2.2,0.1,2.2
		c-15.5-0.2-27.8,2.8-39.9,6.3c-9.7,3.1-19,6.8-28.1,11.3c-6.2,7.2-10.2,16-11.8,25.3c10.5-4.2,19.2-8.2,26.3-12.1
		c-6.6,7.1-11.6,16.2-13.5,28.9C59.9,354.2,70.1,349,80,343c-9.3,7.7-16.3,18-18.7,33.8c13.2-5.6,25.7-12.4,37.7-20.3
		c-3.9,7.9-6,17.2-5,28.7c16.2-12.5,26.6-22.5,34.2-31.4c-0.6,6.3,0,12.8,1.6,18.9c9.6-16.5,19.2-23.3,28.8-29
		c-12,7.9-9.8,14.3-9.8,21.7c14.5-15.4,34.8-31.7,41.1-41.9c-8.3,12.5-11.7,24.3-13.8,34.8c-42.6,22.5-68.5,28.3-97.5,37.3
		c11.2,4.2,23.3,8.2,18.3,13.9l-13.3,13.2c8.5-2.6,17.2-6.3,24.6-1.1c-0.7,6.9-9.5,10.5-17,14.5c13.2-4.7,16.1-3.7,19.6-2.5
		c1.7,8.3-4.3,12.8-8.2,18.3c33.4-25.4,76.9-45.4,107.6-53.8c43.1-14.5,98.7-29.6,113.9-66.4c5-20.2,10.2-40.6,15.1-60.7
		c-2.4-0.7-5.2-1.3-7.5-2.8c-2.3-1.6-4-3.8-5-6.4c-5.3,1.4-9.3,0.7-11.9-1.8c-2.5-2.5-3.6-6.3-4.3-10.5c-4.3,0.9-7.8,0.4-10-1.6
		c-2.4-2.2-3.7-5.6-4.2-9.4l-0.1-0.9l0.8-0.3c2.4-0.8,4.6-2.2,6.4-4.1c1.2-1.3,1.8-3.1,1.5-4.9l-0.2-0.8l0.7-0.3
		c3.5-1.9,7.4-3.6,9.2-5.9c1-1.3,1.3-2.9,1.1-4.5c-0.5-2.7-1.7-5.4-3.2-7.7l-0.7-0.8l0.9-0.6c2.5-1.9,5.2-3.7,6.6-5.5l1-2.4
		l-1.4-2.6l-2.1-2l2.9,0.2c4.5,0.2,8.4-0.2,11.5-1.2c2.6-0.7,4.8-2.4,6.2-4.7l-0.1-1.6c0-5.3,4.3-9.7,9.7-9.7c5.3,0,9.7,4.4,9.7,9.7
		l-0.5,2.8c4,0.3,7.7,0.2,11.3-1.3l0.7-0.3c5-1.7,7.1,1,15.3-9.7c-36-46.7-88.7-13.5-106.1,34.7c-4.5,12.3-30,12.3-37.4-0.1
		C210.6,151.1,121.9,84.6,46.4,60.1L46.4,60.1z M62,83.3c5.4-0.1,24.2,9.7,28,11.2c11.4,6.4,22.6,13.2,33.4,20.6
		c10.7,7.2,20.5,14.2,27.2,19.2c3.3,2.6,5.9,4.7,7.5,6.1l1.7,1.7l0.3,0.5l-0.1,0.9l-0.9,0.7h-0.6c-1.3,0-4.3-3.5-10.6-8.8
		C129.1,121,109.5,108,89,96.4C78.3,90.4,68.6,84.9,62,83.3L62,83.3z M37.7,142.8c17.3,0,40.3,7.8,62.5,19.6
		c22.3,11.9,43.6,26,53.9,38c1.4,1.6-0.4,2.6-1.7,1.4c-11.1-10.6-31.2-25.7-53.3-37.5C85.6,157.1,53.3,142.9,37.7,142.8z
		 M28.6,163.4c23.7,0.3,50.1,9.6,73.1,21.2c11.6,5.9,21.8,12.2,29.7,17.7c8,5.7,14.4,11.2,15.7,14.1c1.3,2.8-0.3,2.7-1.8,1.1
		c-4.5-4.9-9.5-9.4-15-13.3c-9.4-6.6-19.3-12.4-29.5-17.6C80.2,176.4,52,166.9,28.6,163.4z M32,180.8l4.2,0.1
		c17.6,1.5,36.7,7.8,54.1,15.9c23.2,10.8,43.4,24.6,51.9,35.6c0.8,0.9-0.2,2.8-1.7,1.3c-9.2-9.4-28.1-24.2-51.2-34.9
		c-19.4-9-48.6-18.6-69.6-16.6C23.8,181.7,27.8,180.9,32,180.8L32,180.8z M384.7,181c-7.7,10.2-11.2,9.1-14.9,9.9
		c2,9.3,7.5,12.6,12.5,16.5c43.1-7.9,91.5-5.8,129.7-4.8L384.7,181L384.7,181z M367.6,191.6c-4.1,1.7-8.2,1.7-12.5,1.3
		c-1.7,3-4.8,4.7-8.2,4.8c-3.8,0-7.3-2.3-8.8-5.8c-1.7,2.1-3.9,3.7-6.4,4.5c-3.4,0.9-7,1.3-10.5,1.2l1.1,2.2l-1.5,3.7
		c-1.5,2-4,3.8-6.2,5.3c1.6,2.4,2.7,5,3.2,7.7c0.3,2.2-0.3,4.4-1.5,6.1c-2.2,2.9-6.1,4.5-9.3,6.3c0.1,2.1-0.6,4.2-1.9,5.6
		c-1.8,1.8-4,3.3-6.4,4.2c0.6,3.3,1.6,6,3.3,7.6c1.8,1.6,4.5,2.2,9.1,1l1.2-0.3l0.3,1.2c0.7,4.4,1.8,8.2,3.9,10.3
		c2.2,2.1,5.2,2.9,10.7,1.2l1.1-0.3l0.3,1.1c0.8,2.4,2.4,4.6,4.5,6c1.8,1.3,5.3,2.4,7.7,3.2c17.1-18.6,32.6-37.8,40.2-61.1
		C375.9,204.8,369.9,201.4,367.6,191.6z M30.7,199.5c20.4,0.2,40.6,4.9,59.1,13.6c19.6,9.2,35.3,20,42.1,27.9
		c1.6,1.8-0.4,2.6-1.5,1.5c-12.5-11.1-26.5-20.3-41.6-27.5c-19.2-8.8-46.8-13.7-67.4-15.3C24.5,199.5,27.6,199.4,30.7,199.5
		L30.7,199.5z M39.9,216.9c13,0.4,26.5,3.3,38.6,7.5c16.1,5.6,30.2,13.1,37.2,20.9c0.9,1.1-0.1,2.7-1.6,1.5
		c-7.4-6.5-20.5-14.8-36.4-20.3c-12.3-4.2-34.4-7.8-48.4-8.4C33.5,217.5,35.6,216.7,39.9,216.9L39.9,216.9z M59,254.9l3.3,0.2
		c9,0.7,18.9,2.8,28.6,8.7c0.9,0.6,1.1,2.9-1,1.9c-18.3-8.6-28.3-10.4-52.5-6.6C44.6,256.6,51.3,254.8,59,254.9z M67.8,271.6
		c6.4,0.1,13.1,1.3,21.3,4.6c0.9,0.4,1.7,2.7-0.7,2c-18.3-5.2-24.8-7-48.8,2.2c6-4.9,13.2-7.8,21.8-8.7
		C63.5,271.6,65.6,271.5,67.8,271.6L67.8,271.6z M99,286.1c3.3,0,6.6,0.2,9.8,0.6l-0.2,2.1c-13.2-0.7-26.3,0.1-39.2,2.4
		c-5.2,1-9,1-29.9,9.8c6.1-5,16.9-9.6,29.6-11.9C78.5,287.4,89,286,99,286.1L99,286.1z M127.4,305.4c0.8-0.1,2.2,1.7,0.3,2.1
		c-15.6,2.9-26.5,5.8-38.2,9.7c-4.7,1.6-12.4,4.4-26.5,12.6c5.5-5.8,13.9-10.6,25.8-14.7C101.5,310.8,114.4,307.5,127.4,305.4
		L127.4,305.4z M134,316.2c1.6-0.3,2.2,1.8,0.5,2.2c-26,5.1-37.6,11.8-54.2,24.4C91,331.7,107.9,320.4,134,316.2z M146.8,325.8h0.6
		c1.3,0.2,1.5,1.9-0.2,2.2c-18.6,2.7-31.5,11.8-48.1,28.4C105.4,345.8,120.5,329.8,146.8,325.8z M154.7,334.1c1-0.1,2.4,1.6,0.5,2.2
		c-4.1,1.1-9.2,3.1-14.2,6.4c-3.9,2.5-6.5,4.4-12.8,10.8c2.4-5.2,6.4-9.2,11.7-12.6C145,337.5,150.6,334.7,154.7,334.1L154.7,334.1z
		"/>
</g>
</svg>
