<!--?xml version="1.0" encoding="utf-8"?-->
<!-- Generator: Adobe Illustrator 15.1.0, SVG Export Plug-In . SVG Version: 6.00 Build 0)  -->

<svg version="1.1" id="_x32_" xmlns="http://www.w3.org/2000/svg" xmlns:xlink="http://www.w3.org/1999/xlink" x="0px" y="0px" width="512px" height="512px" viewBox="0 0 512 512" style="width: 64px; height: 64px; opacity: 1;" xml:space="preserve">
<style type="text/css">

	.st0{fill:#4B4B4B;}

</style>
<g>
	<path class="st0" d="M208.125,399.438c0,0,9.656-15.688,21.266-34.563L75.469,270.156C63.859,289,54.188,304.719,54.188,304.719
		s27.797,60.406-9.906,121.656l29.844,18.375l29.844,18.375C141.656,401.844,208.125,399.438,208.125,399.438z" style="fill: rgb(36, 135, 68);"></path>
	<path class="st0" d="M389.531,104.688c6.031-9.844,2.969-22.719-6.859-28.781L264.359,3.109C260.938,1,257.156,0,253.422,0
		c-7.016,0-13.875,3.531-17.828,9.953L83.188,257.594l153.938,94.719L389.531,104.688z M128.344,246.844L257.313,37.313
		l98.016,60.313L226.375,307.156L128.344,246.844z" style="fill: rgb(36, 135, 68);"></path>
	<polygon class="st0" points="22.531,488.641 74.188,488.641 87.484,467.031 48.219,442.875 	" style="fill: rgb(36, 135, 68);"></polygon>
	<path class="st0" d="M482.406,484.453H117.844c-3.906,0-7.063,3.156-7.063,7.047v13.438c0,3.906,3.156,7.063,7.063,7.063h364.563
		c3.906,0,7.063-3.156,7.063-7.063V491.5C489.469,487.609,486.313,484.453,482.406,484.453z" style="fill: rgb(36, 135, 68);"></path>
</g>
</svg>
