<!--?xml version="1.0" encoding="utf-8"?-->
<!-- Generator: Adobe Illustrator 15.1.0, SVG Export Plug-In . SVG Version: 6.00 Build 0)  -->

<svg version="1.1" id="_x32_" xmlns="http://www.w3.org/2000/svg" xmlns:xlink="http://www.w3.org/1999/xlink" x="0px" y="0px" width="512px" height="512px" viewBox="0 0 512 512" style="width: 64px; height: 64px; opacity: 1;" xml:space="preserve">
<style type="text/css">

	.st0{fill:#4B4B4B;}

</style>
<g>
	<path class="st0" d="M511.781,313.844c-5.391-44.156-36.156-104.438-45.844-116.547c-9.703-12.109-16.625-29.938-31.5,0
		c-12.063,24.266-53.313,92.078-46.047,101.766c7.266,9.703,21.797-2.406,38.781-9.688c2.406,24.234-16.906,67.016-58.094,86.391
		c-41.188,19.391-77.609,17.797-77.609-18.547c0-16.625,0-48.938,0-84.922h44.5v-48.469h-44.5c0-15.891,0-31.484,0-45.797
		c16.125-6.859,29.797-18.141,39.547-32.391c4.922-7.172,8.844-15.109,11.531-23.594c2.734-8.484,4.234-17.516,4.297-26.828v-0.063
		c0.016-0.234,0.016-0.484,0.016-0.813c0-12.359-2.516-24.313-7.063-35.141c-6.828-16.25-18.172-30.031-32.516-39.859
		c-7.172-4.922-15.109-8.844-23.594-11.547c-8.484-2.719-17.531-4.219-26.828-4.297h0.078h0.016c-0.391,0-0.719,0-0.969,0
		c-12.375-0.016-24.313,2.5-35.141,7.047c-16.25,6.844-30.031,18.188-39.859,32.516c-4.922,7.188-8.844,15.125-11.547,23.609
		c-2.719,8.484-4.219,17.531-4.297,26.828v-0.094c-0.016,0.375-0.016,0.703-0.016,0.969c0,12.359,2.516,24.313,7.063,35.125
		c6.844,16.266,18.188,30.047,32.516,39.875c4.938,3.375,10.25,6.266,15.828,8.641c0,14.328,0,29.922,0,45.813h-44.5v48.469h44.5
		c0,35.984,0,68.297,0,84.922c0,36.344-36.422,37.938-77.609,18.547c-41.188-19.375-60.5-62.156-58.094-86.391
		c16.984,7.281,31.516,19.391,38.781,9.688c7.266-9.688-33.969-77.5-46.047-101.766c-14.875-29.938-21.797-12.109-31.5,0
		c-9.688,12.109-40.453,72.391-45.844,116.547c-1.453,8.75,4.313,21.531,18.313,7.531c7.031-7.016,13.266-12.297,16.141-16.141
		C41.953,344,77.297,417.344,145.406,454.141c65.453,35.359,95.156,41.969,108.047,53.172c0.469,0.422,1.5,1.188,2.547,1.188
		s2.078-0.766,2.547-1.188c12.891-11.203,42.594-17.813,108.031-53.172C434.703,417.344,470.047,344,477.297,305.234
		c2.906,3.844,9.141,9.125,16.172,16.141C507.469,335.375,513.234,322.594,511.781,313.844z M217.375,243.594h-32.094v-10.516
		h32.094V243.594z M33.609,295.469c-1.375,1.828-10.891,9.047-14.25,12.234c-2.234,2.109-4.75,4.5-7.375,7.125
		c-1.094,1.094-1.984,1.844-2.703,2.375c-0.047-0.578-0.031-1.219,0.063-1.844l0.047-0.203l0.016-0.203
		c5.219-42.672,35.297-101.125,43.891-111.875C54.797,201.203,33.609,295.469,33.609,295.469z M204.141,57.875
		c-4.813,7.031-8.578,14.703-11.156,22.813c-2.688,8.359-4.078,17.094-4.156,25.938v0.016c-0.016,0.328-0.016,0.609-0.016,0.844
		c0,11.75,2.297,23.188,6.828,33.969c2.438,5.781,5.469,11.25,9.016,16.328c-10.469-8.484-18.672-19.375-23.922-31.859
		c-4.219-10.016-6.344-20.625-6.344-31.547c0-0.219,0-0.469,0-0.781v-0.016c0.078-8.219,1.375-16.313,3.859-24.078
		c2.406-7.531,5.891-14.656,10.375-21.203c8.922-13,21.297-23.109,35.813-29.219c9.984-4.203,20.578-6.328,31.484-6.328
		c0.031,0,0.063,0,0.094,0c0.234,0,0.469,0,0.734,0l0.031,0.016c8.219,0.063,16.313,1.359,24.078,3.844
		c3.625,1.156,7.141,2.578,10.563,4.219c-4.578-0.766-9.219-1.188-13.891-1.234H277.5c-0.281,0-0.531,0-0.797,0
		c-0.031,0-0.063,0-0.094,0c-11.734,0-23.141,2.297-33.906,6.813C227.078,32.984,213.75,43.859,204.141,57.875z M220.063,94.375
		c0-0.156,0-0.25,0-0.25v-0.109c0.047-5,1.094-9.641,2.906-13.875c2.734-6.359,7.344-11.844,13.078-15.672
		c2.859-1.922,6-3.438,9.328-4.469c3.328-1.016,6.875-1.578,10.609-1.594c0.156,0,0.234,0,0.281,0.016h0.078
		c5,0.047,9.625,1.078,13.875,2.906c6.359,2.734,11.844,7.344,15.672,13.063c1.906,2.875,3.438,6.016,4.453,9.344
		c1.031,3.344,1.594,6.859,1.594,10.609c0,0.094,0,0.234,0,0.391c-0.063,5.016-1.094,9.609-2.922,13.844
		c-2.734,6.359-7.328,11.844-13.063,15.672c-2.859,1.922-6,3.422-9.328,4.453s-6.875,1.594-10.609,1.594h-0.359
		c-5-0.063-9.625-1.078-13.875-2.922c-6.359-2.719-11.844-7.328-15.672-13.063c-1.922-2.859-3.438-6-4.453-9.328
		C220.609,101.641,220.063,98.109,220.063,94.375z M247.922,456.094c0,0-199.969-49.984-172.297-167.625
		c-3.016,30.25,20.359,75.438,63.359,95.672c18.344,8.641,35.563,13.203,49.781,13.203l0,0c25.688,0,41.016-15,41.016-40.125
		v-94.172v-29.969v-51.953c0,0,14.438,4.641,18.141,4.641V456.094z M263.875,147.891c-6.094-0.078-11.953-1.313-17.422-3.672
		c-7.109-3.063-13.266-7.891-17.984-14.031c2.969,2.281,6.188,4.203,9.656,5.703c5.469,2.359,11.328,3.594,17.422,3.672h0.469
		c4.516,0,9.016-0.672,13.328-2c4.188-1.297,8.141-3.188,11.766-5.625c7.297-4.875,12.969-11.688,16.422-19.703
		c2.359-5.484,3.594-11.328,3.656-17.391v-0.109c0.016-0.188,0.016-0.375,0-0.547c-0.016-4.484-0.688-8.906-1.984-13.172
		c-1.281-4.125-3.156-8.094-5.609-11.766c-0.563-0.813-1.141-1.609-1.734-2.391c3.891,2.984,7.297,6.578,10.063,10.734
		c2.453,3.672,4.344,7.625,5.609,11.75c1.313,4.266,1.984,8.703,2,13.188c0,0.172,0,0.344,0,0.531l-0.016,0.109
		c-0.063,6.063-1.297,11.906-3.656,17.391c-3.453,8.016-9.125,14.844-16.422,19.703c-3.625,2.438-7.563,4.328-11.75,5.625
		c-4.328,1.328-8.813,2-13.344,2H263.875z M396.047,388.516c-47.219,37.031-121.281,58.328-123.141,63.875
		c-1.844,0.922,33.422-57.641,33.422-57.641c4.969,1.719,10.625,2.594,16.906,2.594c14.219,0,31.438-4.563,49.797-13.203
		c43-20.234,66.359-65.422,63.344-95.688C436.375,288.453,443.25,351.484,396.047,388.516z M423.516,280.859
		c-4.609,1.984-9.031,4.281-12.953,6.313c-4.797,2.5-10.156,5.281-13.438,6.047c0.734-3.328,3.016-10.391,9.938-24.688
		c6.672-13.781,15.234-29.359,22.797-43.125c5.297-9.656,9.875-17.984,12.859-23.984L423.516,280.859z" style="fill: rgb(8, 104, 137);"></path>
</g>
</svg>
