<!DOCTYPE svg PUBLIC "-//W3C//DTD SVG 1.1//EN" "http://www.w3.org/Graphics/SVG/1.1/DTD/svg11.dtd">
<!-- Uploaded to: SVG Repo, www.svgrepo.com, Transformed by: SVG Repo Mixer Tools -->
<svg fill="#ff6b6b" width="64px" height="64px" viewBox="-0.02 0 122.88 122.88" version="1.1" id="Layer_1" xmlns="http://www.w3.org/2000/svg" xmlns:xlink="http://www.w3.org/1999/xlink" style="enable-background:new 0 0 122.84 122.88" xml:space="preserve" stroke="#ff6b6b">
<g id="SVGRepo_bgCarrier" stroke-width="0"/>
<g id="SVGRepo_tracerCarrier" stroke-linecap="round" stroke-linejoin="round"/>
<g id="SVGRepo_iconCarrier"> <g> <path d="M81.54,4.71c0-2.62,2.58-4.71,5.77-4.71c3.2,0,5.77,2.13,5.77,4.71V25.4c0,2.62-2.58,4.71-5.77,4.71 c-3.2,0-5.77-2.13-5.77-4.71V4.71L81.54,4.71z M79.99,72.65h7.42l9.65,14.21V72.65h7.51v25.73h-7.51l-9.59-14.13v14.13h-7.47V72.65 L79.99,72.65z M50.11,85.53c0-4.2,1.17-7.47,3.51-9.8c2.34-2.34,5.6-3.51,9.78-3.51c4.28,0,7.58,1.15,9.9,3.44 c2.32,2.3,3.47,5.52,3.47,9.66c0,3.01-0.5,5.47-1.52,7.39c-1.01,1.92-2.48,3.42-4.39,4.49c-1.92,1.07-4.3,1.61-7.16,1.61 c-2.9,0-5.3-0.46-7.2-1.38c-1.9-0.93-3.44-2.39-4.62-4.39C50.71,91.04,50.11,88.54,50.11,85.53L50.11,85.53z M58.05,85.55 c0,2.59,0.49,4.46,1.45,5.59c0.97,1.13,2.29,1.7,3.95,1.7c1.71,0,3.04-0.56,3.97-1.67c0.94-1.11,1.41-3.1,1.41-5.98 c0-2.42-0.49-4.19-1.47-5.3c-0.98-1.12-2.31-1.68-3.98-1.68c-1.61,0-2.9,0.57-3.87,1.7C58.54,81.05,58.05,82.93,58.05,85.55 L58.05,85.55z M18.27,72.65h10.49l3.99,15.66l4.01-15.66h10.44v25.73h-6.5V78.77l-5.02,19.61h-5.89l-5.01-19.61v19.61h-6.5V72.65 L18.27,72.65z M29.53,4.71c0-2.62,2.58-4.71,5.77-4.71c3.2,0,5.77,2.13,5.77,4.71V25.4c0,2.62-2.58,4.71-5.77,4.71 c-3.2,0-5.77-2.13-5.77-4.71V4.71L29.53,4.71z M7.56,44.09h107.62V22.66c0-0.8-0.31-1.55-0.84-2.04c-0.53-0.53-1.24-0.84-2.04-0.84 h-9.31c-1.78,0-3.2-2.63-3.2-4.41c0-1.78,1.42-3.2,3.2-3.2h10.53c2.58,0,4.88,1.07,6.57,2.75c1.69,1.69,2.75,4.04,2.75,6.57v92.06 c0,2.58-1.07,4.88-2.75,6.57c-1.69,1.69-4.04,2.75-6.57,2.75H9.33c-2.58,0-4.88-1.07-6.57-2.75C1.07,118.44,0,116.08,0,113.55 V21.49c0-2.58,1.07-4.89,2.75-6.57c1.69-1.69,4.04-2.75,6.57-2.75h11.28c1.78,0,3.2,1.42,3.2,3.2s-1.42,4.41-3.2,4.41H10.54 c-0.8,0-1.55,0.31-2.09,0.84c-0.53,0.53-0.84,1.24-0.84,2.09v21.43L7.56,44.09L7.56,44.09z M115.19,52.9H7.56v59.4 c0,0.8,0.31,1.55,0.84,2.09c0.53,0.53,1.24,0.84,2.09,0.84h101.76c0.8,0,1.55-0.31,2.09-0.84c0.53-0.53,0.84-1.24,0.84-2.09V52.9 L115.19,52.9z M50.36,19.73c-1.78,0-3.2-2.63-3.2-4.41c0-1.78,1.42-3.2,3.2-3.2h21.49c1.78,0,3.2,1.42,3.2,3.2 c0,1.78-1.42,4.41-3.2,4.41H50.36L50.36,19.73z"/> </g> </g>
</svg>