<?xml version="1.0" encoding="UTF-8" standalone="no"?>
<!-- Created with Inkscape (http://www.inkscape.org/) -->

<svg
   width="50mm"
   height="50mm"
   viewBox="0 0 50 50"
   version="1.1"
   id="svg1"
   inkscape:version="1.3 (0e150ed6c4, 2023-07-21)"
   sodipodi:docname="icon.svg"
   xmlns:inkscape="http://www.inkscape.org/namespaces/inkscape"
   xmlns:sodipodi="http://sodipodi.sourceforge.net/DTD/sodipodi-0.dtd"
   xmlns:xlink="http://www.w3.org/1999/xlink"
   xmlns="http://www.w3.org/2000/svg"
   xmlns:svg="http://www.w3.org/2000/svg"
   xmlns:ns5="http://www.iki.fi/pav/software/textext/">
  <sodipodi:namedview
     id="namedview1"
     pagecolor="#ffffff"
     bordercolor="#000000"
     borderopacity="0.25"
     inkscape:showpageshadow="2"
     inkscape:pageopacity="0.0"
     inkscape:pagecheckerboard="0"
     inkscape:deskcolor="#d1d1d1"
     inkscape:document-units="mm"
     inkscape:zoom="2.708193"
     inkscape:cx="110.40572"
     inkscape:cy="87.142976"
     inkscape:window-width="1920"
     inkscape:window-height="1010"
     inkscape:window-x="0"
     inkscape:window-y="32"
     inkscape:window-maximized="1"
     inkscape:current-layer="svg1" />
  <defs
     id="defs1">
    <linearGradient
       id="linearGradient1"
       inkscape:collect="always">
      <stop
         style="stop-color:#4c566a;stop-opacity:1;"
         offset="0"
         id="stop1" />
      <stop
         style="stop-color:#2e3440;stop-opacity:1;"
         offset="1"
         id="stop2" />
    </linearGradient>
    <linearGradient
       inkscape:collect="always"
       xlink:href="#linearGradient1"
       id="linearGradient2"
       x1="7.8157897"
       y1="4.2986841"
       x2="43.768421"
       y2="41.91217"
       gradientUnits="userSpaceOnUse" />
  </defs>
  <rect
     style="opacity:1;fill:url(#linearGradient2);fill-opacity:1;stroke:none;stroke-width:0.0351896;stroke-linejoin:round"
     id="rect1"
     width="50"
     height="50"
     x="0"
     y="0"
     ry="10" />
  <g
     inkscape:label="Layer 1"
     inkscape:groupmode="layer"
     id="layer1" />
  <text
     xml:space="preserve"
     style="font-weight:bold;font-size:6.35px;font-family:'Noto Serif';-inkscape-font-specification:'Noto Serif Bold';opacity:1;fill:#e5e9f0;fill-opacity:1;stroke:none;stroke-width:0.0351896;stroke-linejoin:round"
     x="5.4070725"
     y="11.122277"
     id="text1"><tspan
       sodipodi:role="line"
       id="tspan1"
       style="font-style:normal;font-variant:normal;font-weight:normal;font-stretch:normal;font-size:6.35px;font-family:'Ubuntu Nerd Font';-inkscape-font-specification:'Ubuntu Nerd Font';fill:#e5e9f0;fill-opacity:1;stroke:none;stroke-width:0.0351896"
       x="5.4070725"
       y="11.122277">$F_{\mu\nu}$</tspan></text>
  <g
     transform="matrix(2.82222,0,0,2.82222,3.8760361,18.637139)"
     ns5:version="1.9.0"
     ns5:texconverter="pdflatex"
     ns5:pdfconverter="inkscape"
     ns5:text="$F_{\\mu\\nu}$"
     ns5:preamble="/usr/share/inkscape/extensions/textext/default_packages.tex"
     ns5:scale="8.0"
     ns5:alignment="middle center"
     ns5:stroke-to-path="0"
     id="g7359"
     ns5:jacobian_sqrt="2.82222"
     style="fill:#ebcb8b;fill-opacity:1">
    <defs
       id="id-caf3fa4b-ca17-4e10-b8b6-dacaa8863e27">
      <g
         id="id-f7785682-fcb0-41ba-883f-fcbb11f347d0">
        <g
           id="id-c7f2e5ba-80da-4acb-813b-a8a93b9f7b1e" />
        <g
           id="id-276ea80e-6c87-4b22-bfab-974db25d8c22">
          <path
             d="m 3.015625,-3.234375 h 0.96875 c 0.75,0 0.828125,0.15625 0.828125,0.4375 0,0.078125 0,0.1875 -0.0625,0.5 C 4.71875,-2.25 4.71875,-2.21875 4.71875,-2.1875 c 0,0.078125 0.0625,0.109375 0.109375,0.109375 0.109375,0 0.109375,-0.03125 0.15625,-0.203125 L 5.53125,-4.453125 C 5.5625,-4.5625 5.5625,-4.578125 5.5625,-4.609375 5.5625,-4.625 5.546875,-4.71875 5.4375,-4.71875 5.34375,-4.71875 5.328125,-4.671875 5.296875,-4.5 5.078125,-3.734375 4.859375,-3.546875 4,-3.546875 H 3.09375 l 0.640625,-2.53125 C 3.828125,-6.4375 3.84375,-6.46875 4.28125,-6.46875 h 1.3125 c 1.21875,0 1.453125,0.328125 1.453125,1.09375 0,0.234375 0,0.265625 -0.03125,0.546875 C 7,-4.703125 7,-4.6875 7,-4.65625 c 0,0.046875 0.03125,0.125 0.125,0.125 0.109375,0 0.109375,-0.0625 0.125,-0.25 L 7.453125,-6.515625 C 7.484375,-6.78125 7.4375,-6.78125 7.1875,-6.78125 H 2.296875 c -0.1875,0 -0.296875,0 -0.296875,0.203125 0,0.109375 0.09375,0.109375 0.28125,0.109375 0.375,0 0.65625,0 0.65625,0.171875 0,0.046875 0,0.0625 -0.0625,0.25 L 1.5625,-0.78125 c -0.09375,0.390625 -0.109375,0.46875 -0.90625,0.46875 -0.171875,0 -0.28125,0 -0.28125,0.1875 C 0.375,0 0.5,0 0.53125,0 0.8125,0 1.5625,-0.03125 1.84375,-0.03125 2.171875,-0.03125 3,0 3.328125,0 3.421875,0 3.53125,0 3.53125,-0.1875 3.53125,-0.265625 3.484375,-0.296875 3.484375,-0.296875 3.453125,-0.3125 3.421875,-0.3125 3.203125,-0.3125 c -0.21875,0 -0.265625,0 -0.515625,-0.015625 -0.296875,-0.03125 -0.328125,-0.078125 -0.328125,-0.203125 0,-0.015625 0,-0.078125 0.046875,-0.21875 z m 0,0"
             id="id-cd622e49-9ed7-4822-ab1d-1b8104b8157f" />
        </g>
        <g
           id="id-f0e49906-7e62-453b-8890-ae286b3ce181" />
        <g
           id="id-0a76fccb-750b-4b00-a05c-c0f9b89e7cfb">
          <path
             d="M 0.375,1.125 C 0.34375,1.21875 0.34375,1.265625 0.34375,1.265625 c 0,0.15625 0.125,0.21875 0.234375,0.21875 0.265625,0 0.3125,-0.21875 0.34375,-0.34375 0.015625,-0.03125 0.15625,-0.59375 0.3125,-1.265625 0.21875,0.140625 0.5,0.1875 0.75,0.1875 0.59375,0 0.984375,-0.484375 1,-0.5 0.140625,0.484375 0.625,0.5 0.71875,0.5 0.25,0 0.421875,-0.140625 0.5625,-0.359375 C 4.40625,-0.578125 4.5,-0.96875 4.5,-1 c 0,-0.09375 -0.09375,-0.09375 -0.109375,-0.09375 -0.09375,0 -0.109375,0.03125 -0.15625,0.21875 -0.078125,0.34375 -0.21875,0.75 -0.5,0.75 C 3.546875,-0.125 3.5,-0.28125 3.5,-0.46875 c 0,-0.109375 0.046875,-0.375 0.109375,-0.546875 0.046875,-0.1875 0.109375,-0.46875 0.140625,-0.625 l 0.171875,-0.625 C 3.953125,-2.4375 4.03125,-2.75 4.03125,-2.78125 4.03125,-2.921875 3.921875,-3 3.8125,-3 3.734375,-3 3.59375,-2.96875 3.515625,-2.84375 3.5,-2.796875 3.4375,-2.578125 3.40625,-2.4375 l -0.140625,0.578125 -0.21875,0.875 C 3,-0.8125 3,-0.796875 2.9375,-0.703125 2.71875,-0.390625 2.40625,-0.125 2.015625,-0.125 1.4375,-0.125 1.4375,-0.625 1.4375,-0.75 c 0,-0.171875 0.03125,-0.265625 0.125,-0.640625 0.0625,-0.3125 0.078125,-0.359375 0.15625,-0.625 L 1.8125,-2.40625 c 0.03125,-0.15625 0.109375,-0.421875 0.109375,-0.4375 0,-0.125 -0.109375,-0.234375 -0.25,-0.234375 -0.25,0 -0.3125,0.25 -0.328125,0.328125 z m 0,0"
             id="id-601bd68d-c6e4-4b17-a3a1-52f65d3c3f50" />
        </g>
        <g
           id="id-22b98ad2-1f53-4a36-95b0-166b7f4a8b4a">
          <path
             d="m 1.75,-2.875 c 0,-0.03125 0.015625,-0.0625 0.015625,-0.09375 0,-0.015625 0,-0.109375 -0.109375,-0.109375 -0.015625,0 -0.40625,0.046875 -0.453125,0.046875 C 1.0625,-3.03125 0.9375,-3.015625 0.8125,-3 c -0.109375,0 -0.203125,0.015625 -0.203125,0.15625 0,0.09375 0.09375,0.09375 0.1875,0.09375 0.328125,0 0.328125,0.046875 0.328125,0.109375 0,0.046875 -0.03125,0.1875 -0.0625,0.265625 L 0.71875,-0.96875 C 0.546875,-0.265625 0.515625,-0.125 0.515625,-0.09375 0.515625,0 0.609375,0 0.640625,0 H 0.75 C 1.375,-0.09375 2.265625,-0.421875 3,-1.09375 c 0.953125,-0.84375 1.09375,-1.75 1.09375,-1.75 0,-0.125 -0.09375,-0.234375 -0.234375,-0.234375 -0.25,0 -0.296875,0.203125 -0.359375,0.390625 -0.28125,1 -1.21875,2.0625 -2.40625,2.40625 z m 0,0"
             id="id-5d79c6ba-8de5-490c-8ae1-81ee3fedb485" />
        </g>
      </g>
    </defs>
    <g
       fill="#000000"
       fill-opacity="1"
       id="id-85b957a5-3224-42df-a6a2-9905c88dc783"
       transform="translate(-149.087,-127.984)"
       style="fill:#ebcb8b;fill-opacity:1">
      <g
         transform="translate(148.712,134.765)"
         id="g2308"
         style="fill:#ebcb8b;fill-opacity:1">
        <path
           d="m 3.015625,-3.234375 h 0.96875 c 0.75,0 0.828125,0.15625 0.828125,0.4375 0,0.078125 0,0.1875 -0.0625,0.5 C 4.71875,-2.25 4.71875,-2.21875 4.71875,-2.1875 c 0,0.078125 0.0625,0.109375 0.109375,0.109375 0.109375,0 0.109375,-0.03125 0.15625,-0.203125 L 5.53125,-4.453125 C 5.5625,-4.5625 5.5625,-4.578125 5.5625,-4.609375 5.5625,-4.625 5.546875,-4.71875 5.4375,-4.71875 5.34375,-4.71875 5.328125,-4.671875 5.296875,-4.5 5.078125,-3.734375 4.859375,-3.546875 4,-3.546875 H 3.09375 l 0.640625,-2.53125 C 3.828125,-6.4375 3.84375,-6.46875 4.28125,-6.46875 h 1.3125 c 1.21875,0 1.453125,0.328125 1.453125,1.09375 0,0.234375 0,0.265625 -0.03125,0.546875 C 7,-4.703125 7,-4.6875 7,-4.65625 c 0,0.046875 0.03125,0.125 0.125,0.125 0.109375,0 0.109375,-0.0625 0.125,-0.25 L 7.453125,-6.515625 C 7.484375,-6.78125 7.4375,-6.78125 7.1875,-6.78125 H 2.296875 c -0.1875,0 -0.296875,0 -0.296875,0.203125 0,0.109375 0.09375,0.109375 0.28125,0.109375 0.375,0 0.65625,0 0.65625,0.171875 0,0.046875 0,0.0625 -0.0625,0.25 L 1.5625,-0.78125 c -0.09375,0.390625 -0.109375,0.46875 -0.90625,0.46875 -0.171875,0 -0.28125,0 -0.28125,0.1875 C 0.375,0 0.5,0 0.53125,0 0.8125,0 1.5625,-0.03125 1.84375,-0.03125 2.171875,-0.03125 3,0 3.328125,0 3.421875,0 3.53125,0 3.53125,-0.1875 3.53125,-0.265625 3.484375,-0.296875 3.484375,-0.296875 3.453125,-0.3125 3.421875,-0.3125 3.203125,-0.3125 c -0.21875,0 -0.265625,0 -0.515625,-0.015625 -0.296875,-0.03125 -0.328125,-0.078125 -0.328125,-0.203125 0,-0.015625 0,-0.078125 0.046875,-0.21875 z m 0,0"
           id="id-725df69a-c46d-4fbd-8b03-5503bc76a3d5"
           style="fill:#ebcb8b;fill-opacity:1" />
      </g>
    </g>
    <g
       fill="#000000"
       fill-opacity="1"
       id="id-ee408676-82bc-4968-add6-434325943a90"
       transform="translate(-149.087,-127.984)"
       style="fill:#ebcb8b;fill-opacity:1">
      <g
         transform="translate(155.119,136.259)"
         id="g1799"
         style="fill:#ebcb8b;fill-opacity:1">
        <path
           d="M 0.375,1.125 C 0.34375,1.21875 0.34375,1.265625 0.34375,1.265625 c 0,0.15625 0.125,0.21875 0.234375,0.21875 0.265625,0 0.3125,-0.21875 0.34375,-0.34375 0.015625,-0.03125 0.15625,-0.59375 0.3125,-1.265625 0.21875,0.140625 0.5,0.1875 0.75,0.1875 0.59375,0 0.984375,-0.484375 1,-0.5 0.140625,0.484375 0.625,0.5 0.71875,0.5 0.25,0 0.421875,-0.140625 0.5625,-0.359375 C 4.40625,-0.578125 4.5,-0.96875 4.5,-1 c 0,-0.09375 -0.09375,-0.09375 -0.109375,-0.09375 -0.09375,0 -0.109375,0.03125 -0.15625,0.21875 -0.078125,0.34375 -0.21875,0.75 -0.5,0.75 C 3.546875,-0.125 3.5,-0.28125 3.5,-0.46875 c 0,-0.109375 0.046875,-0.375 0.109375,-0.546875 0.046875,-0.1875 0.109375,-0.46875 0.140625,-0.625 l 0.171875,-0.625 C 3.953125,-2.4375 4.03125,-2.75 4.03125,-2.78125 4.03125,-2.921875 3.921875,-3 3.8125,-3 3.734375,-3 3.59375,-2.96875 3.515625,-2.84375 3.5,-2.796875 3.4375,-2.578125 3.40625,-2.4375 l -0.140625,0.578125 -0.21875,0.875 C 3,-0.8125 3,-0.796875 2.9375,-0.703125 2.71875,-0.390625 2.40625,-0.125 2.015625,-0.125 1.4375,-0.125 1.4375,-0.625 1.4375,-0.75 c 0,-0.171875 0.03125,-0.265625 0.125,-0.640625 0.0625,-0.3125 0.078125,-0.359375 0.15625,-0.625 L 1.8125,-2.40625 c 0.03125,-0.15625 0.109375,-0.421875 0.109375,-0.4375 0,-0.125 -0.109375,-0.234375 -0.25,-0.234375 -0.25,0 -0.3125,0.25 -0.328125,0.328125 z m 0,0"
           id="id-b187ef5f-8afb-45ee-8b87-24fdd2395033"
           style="fill:#ebcb8b;fill-opacity:1" />
      </g>
      <g
         transform="translate(159.963,136.259)"
         id="g4081"
         style="fill:#ebcb8b;fill-opacity:1">
        <path
           d="m 1.75,-2.875 c 0,-0.03125 0.015625,-0.0625 0.015625,-0.09375 0,-0.015625 0,-0.109375 -0.109375,-0.109375 -0.015625,0 -0.40625,0.046875 -0.453125,0.046875 C 1.0625,-3.03125 0.9375,-3.015625 0.8125,-3 c -0.109375,0 -0.203125,0.015625 -0.203125,0.15625 0,0.09375 0.09375,0.09375 0.1875,0.09375 0.328125,0 0.328125,0.046875 0.328125,0.109375 0,0.046875 -0.03125,0.1875 -0.0625,0.265625 L 0.71875,-0.96875 C 0.546875,-0.265625 0.515625,-0.125 0.515625,-0.09375 0.515625,0 0.609375,0 0.640625,0 H 0.75 C 1.375,-0.09375 2.265625,-0.421875 3,-1.09375 c 0.953125,-0.84375 1.09375,-1.75 1.09375,-1.75 0,-0.125 -0.09375,-0.234375 -0.234375,-0.234375 -0.25,0 -0.296875,0.203125 -0.359375,0.390625 -0.28125,1 -1.21875,2.0625 -2.40625,2.40625 z m 0,0"
           id="id-2199ec9b-89fd-487d-a8f8-c0a605329ff7"
           style="fill:#ebcb8b;fill-opacity:1" />
      </g>
    </g>
  </g>
</svg>
