<?xml version="1.0" standalone="no"?><!DOCTYPE svg PUBLIC "-//W3C//DTD SVG 1.1//EN" "http://www.w3.org/Graphics/SVG/1.1/DTD/svg11.dtd"><svg t="1686318351546" class="icon" viewBox="0 0 1024 1024" version="1.1" xmlns="http://www.w3.org/2000/svg" p-id="4120" xmlns:xlink="http://www.w3.org/1999/xlink" width="200" height="200"><path d="M872 623.968c-83.808 0-152 68.192-152 152s68.192 152 152 152c83.824 0 152-68.192 152-152s-68.176-152-152-152z m0 224a72.08 72.08 0 0 1-72-72c0-39.696 32.304-72 72-72s72 32.304 72 72-32.288 72-72 72zM561.12 28.752L175.904 413.92c91.68 91.68 265.456 266.096 265.456 266.096-125.248 125.248-139.184 151.936-200.64 151.936-12.96 0-31.536-2.32-46.448-13.36a491.296 491.296 0 0 1-100.64-100.576c-25.584-34.624-11.52-97.168 17.184-125.888l76.4-76.4L130.656 459.2l-76.4 76.4c-54.128 54.144-77.056 159.488-24.848 230.112a571.776 571.776 0 0 0 117.2 117.168c68.384 50.56 174.352 30.72 230.016-24.944l506.848-506.816L561.104 28.752zM288.704 414.24L561.12 141.888l209.216 209.216-272.368 272.368-209.232-209.216zM552 831.968a72 72 0 1 0 0 144 72 72 0 0 0 0-144z" fill="#1296db" p-id="4121"></path></svg>
