<!--?xml version="1.0" encoding="utf-8"?-->
<!-- Generator: Adobe Illustrator 18.1.1, SVG Export Plug-In . SVG Version: 6.00 Build 0)  -->

<svg version="1.1" id="_x32_" xmlns="http://www.w3.org/2000/svg" xmlns:xlink="http://www.w3.org/1999/xlink" x="0px" y="0px" viewBox="0 0 512 512" style="width: 64px; height: 64px; opacity: 1;" xml:space="preserve">
<style type="text/css">
	.st0{fill:#4B4B4B;}
</style>
<g>
	<path class="st0" d="M256,0C114.617,0,0,114.61,0,256c0,141.375,114.617,256,256,256s256-114.625,256-256
		C512,114.61,397.382,0,256,0z M153.988,370.203c-10.516,0-19.035-8.523-19.035-19.031c0-10.515,8.519-19.039,19.035-19.039
		c10.508,0,19.031,8.524,19.031,19.039C173.019,361.68,164.496,370.203,153.988,370.203z M153.988,275.039
		c-10.516,0-19.035-8.523-19.035-19.039c0-10.507,8.519-19.031,19.035-19.031c10.508,0,19.031,8.524,19.031,19.031
		C173.019,266.516,164.496,275.039,153.988,275.039z M153.988,179.867c-10.516,0-19.035-8.515-19.035-19.031
		c0-10.507,8.519-19.031,19.035-19.031c10.508,0,19.031,8.524,19.031,19.031C173.019,171.352,164.496,179.867,153.988,179.867z
		 M377.054,370.203H204.992v-38.07h172.062V370.203z M377.054,275.039H204.992v-38.07h172.062V275.039z M377.054,179.867H204.992
		v-38.062h172.062V179.867z" style="fill: rgb(67, 123, 25);"></path>
</g>
</svg>
