<?xml version="1.0" encoding="utf-8"?><!-- Uploaded to: SVG Repo, www.svgrepo.com, Generator: SVG Repo Mixer Tools -->
<svg fill="#000000" width="800px" height="800px" viewBox="0 0 14 14" role="img" focusable="false" aria-hidden="true" xmlns="http://www.w3.org/2000/svg"><path d="m 5.5192163,12.93966 c -0.0629,-0.031 -0.14131,-0.1144 -0.17414,-0.1864 -0.0845,-0.1855 -0.0847,-11.3185003 -2.2e-4,-11.5039003 0.1044,-0.2292 0.23992,-0.24959996 1.65516,-0.24959996 1.41525,0 1.55077,0.02 1.65516,0.24959996 0.0843,0.185 0.0843,11.3184003 0,11.5034003 -0.0327,0.072 -0.11825,0.1573 -0.19006,0.1901 -0.17081,0.078 -2.78444,0.075 -2.94591,0 z m 2.04413,-1.0443 c 0.25809,-0.3436 0.47973,-0.6648 0.49252,-0.7138 0.0502,-0.1918 -0.0961,-0.2184 -1.1164,-0.2032 l -0.9843,0.015 -0.0158,0.1358 c -0.0117,0.1005 0.0986,0.2885 0.42467,0.7234 0.24227,0.3231 0.46641,0.6053 0.49808,0.6269 0.14527,0.099 0.25985,0 0.70127,-0.5837 z m 0.29401,-4.8943003 0,-3.0007 -0.85733,0 -0.85732,0 0,3.0007 0,3.0006003 0.85732,0 0.85733,0 0,-3.0006003 z m 0.13013,-3.9958 c 0.0463,-0.046 0.0842,-0.1145 0.0842,-0.1515 0,-0.075 -0.87562,-1.2626 -0.97931,-1.3285 -0.13827,-0.088 -0.21044,-0.024 -0.68011,0.5976 -0.71769,0.9504 -0.70814,0.9666 0.56786,0.9666 0.76779,0 0.93733,-0.014 1.00736,-0.084 z"/></svg>