<!--?xml version="1.0" encoding="utf-8"?-->
<!-- Generator: Adobe Illustrator 18.0.0, SVG Export Plug-In . SVG Version: 6.00 Build 0)  -->

<svg version="1.1" id="_x32_" xmlns="http://www.w3.org/2000/svg" xmlns:xlink="http://www.w3.org/1999/xlink" x="0px" y="0px" viewBox="0 0 512 512" style="width: 64px; height: 64px; opacity: 1;" xml:space="preserve">
<style type="text/css">
	.st0{fill:#4B4B4B;}
</style>
<g>
	<path class="st0" d="M211.875,291.59l-8.506-13.629c-0.014,0.024-0.025,0.043-0.041,0.063l-0.094-0.149
		c-9.273,14.539-15.207,23.981-15.207,23.981c-44.285,70.437-97.008,194.101-74.949,207.886l1.504,1.004
		c3.342,2.09,7.353,1.504,9.107-1.336l112.549-179.144l-4.26-6.77L211.875,291.59z" style="fill: rgb(185, 153, 21);"></path>
	<path class="st0" d="M437.191,10.833c-37.35-23.48-89.822-7.52-116.978,35.594c-10.443,16.711-15.625,35.008-15.791,52.641
		c-0.168,12.367-3.928,24.312-10.445,34.676c-4.93,7.856-11.281,17.797-18.215,28.91c0.668,1.086,1.42,2.172,2.088,3.258
		l16.963,26.988c4.93,7.856,9.942,15.711,14.705,23.398c18.299-21.808,44.451-36.348,73.279-38.437
		c27.572-2.004,55.562-18.465,72.943-46.203C482.812,88.54,474.457,34.313,437.191,10.833z M423.07,111.102
		c-14.623,23.308-42.279,32.332-61.664,20.218c-19.301-12.199-23.144-41.027-8.523-64.34c14.623-23.308,42.363-32.336,61.664-20.219
		c4.832,3.039,8.696,7.117,11.549,11.883c0.025,0.039,0.047,0.086,0.072,0.129c1.381,2.324,2.516,4.813,3.412,7.426
		c0.037,0.106,0.068,0.219,0.106,0.324C434.171,79.966,432.218,96.598,423.07,111.102z" style="fill: rgb(185, 153, 21);"></path>
	<path class="st0" d="M213.094,262.082l0.668,1.004l-0.5-1.172C213.261,262,213.177,262,213.094,262.082z" style="fill: rgb(185, 153, 21);"></path>
	<path class="st0" d="M286.205,241.946c-11.698-18.547-24.565-39.101-36.596-58.234c-12.285-19.469-23.564-37.434-31.586-49.969
		c-6.6-10.363-10.194-22.308-10.36-34.676c-0.252-17.633-5.348-35.93-15.875-52.641c-18.635-29.578-49.215-46.371-78.627-46.371
		c-2.256,0-4.428,0.082-6.686,0.25c-11.029,1-21.807,4.426-31.584,10.527C37.461,34.313,29.188,88.54,56.344,131.657
		c17.379,27.738,45.287,44.199,72.945,46.203c34.174,2.508,64.754,22.562,83.053,51.554l11.281,17.965l36.596,58.32l128.176,203.71
		c1.002,1.668,2.924,2.59,4.93,2.59c0.168,0,0.418,0,0.584-0.086c1.254-0.082,2.424-0.5,3.51-1.168l1.588-1.004
		c22.058-13.785-30.748-137.449-75.033-207.886C323.972,301.856,307.177,275.118,286.205,241.946z M150.594,131.321
		c-4.846,3.008-10.278,4.762-15.791,5.262c-1.086,0.086-2.256,0.168-3.342,0.168c-15.709,0-32.254-9.36-42.531-25.648
		c-14.621-23.313-10.777-52.141,8.523-64.34c4.846-3.008,10.278-4.68,15.875-5.18c1.086-0.086,2.174-0.168,3.344-0.168
		c15.625,0,32.168,9.274,42.445,25.566C173.74,90.294,169.98,119.122,150.594,131.321z M256.711,265.594
		c-0.586,0.086-1.17,0.086-1.754,0.086c-10.112,0-18.801-7.773-19.721-18.133c-0.92-10.863,7.104-20.472,18.049-21.476
		c0.584,0,1.17-0.082,1.754-0.082c10.195,0,18.8,7.77,19.718,18.133C275.761,254.981,267.656,264.676,256.711,265.594z" style="fill: rgb(185, 153, 21);"></path>
</g>
</svg>
