<!--?xml version="1.0" encoding="utf-8"?-->
<!-- Generator: Adobe Illustrator 18.1.1, SVG Export Plug-In . SVG Version: 6.00 Build 0)  -->

<svg version="1.1" id="_x32_" xmlns="http://www.w3.org/2000/svg" xmlns:xlink="http://www.w3.org/1999/xlink" x="0px" y="0px" viewBox="0 0 512 512" style="width: 64px; height: 64px; opacity: 1;" xml:space="preserve">
<style type="text/css">
	.st0{fill:#4B4B4B;}
</style>
<g>
	<path class="st0" d="M427.001,44.899h-2.714v27.229c0,17.038-13.861,30.907-30.914,30.907c-17.038,0-30.914-13.87-30.914-30.907
		V44.899h-75.552v27.229c0,17.038-13.876,30.907-30.914,30.907s-30.914-13.87-30.914-30.907V44.899h-75.552v27.229
		c0,17.038-13.876,30.907-30.914,30.907c-17.038,0-30.914-13.87-30.914-30.907V44.899h-2.698c-37.082,0-67.133,30.058-67.133,67.133
		v51.283h476.268v-51.283C494.134,74.958,464.067,44.899,427.001,44.899z" style="fill: rgb(48, 158, 74);"></path>
	<path class="st0" d="M118.627,89.297c9.483,0,17.176-7.686,17.176-17.169v-54.96C135.804,7.686,128.11,0,118.627,0
		s-17.176,7.686-17.176,17.169v54.96C101.451,81.611,109.145,89.297,118.627,89.297z" style="fill: rgb(48, 158, 74);"></path>
	<path class="st0" d="M256.007,89.297c9.483,0,17.177-7.686,17.177-17.169v-54.96C273.184,7.686,265.49,0,256.007,0
		c-9.482,0-17.176,7.686-17.176,17.169v54.96C238.831,81.611,246.525,89.297,256.007,89.297z" style="fill: rgb(48, 158, 74);"></path>
	<path class="st0" d="M393.388,89.297c9.482,0,17.176-7.686,17.176-17.169v-54.96C410.564,7.686,402.87,0,393.388,0
		c-9.482,0-17.176,7.686-17.176,17.169v54.96C376.212,81.611,383.906,89.297,393.388,89.297z" style="fill: rgb(48, 158, 74);"></path>
	<path class="st0" d="M17.866,444.867c0,37.074,30.051,67.133,67.133,67.133h342.002c37.066,0,67.133-30.058,67.133-67.133v-257.87
		H17.866V444.867z M295.557,287.304c0-1.85,0.702-3.277,2.22-4.479l23.283-16.884c1.426-1.14,2.93-1.642,4.965-1.642h18.125
		c2.336,0,4.032,1.696,4.032,4.048v140.641c0,2.352-1.696,4.048-4.032,4.048h-19.613c-2.352,0-4.056-1.696-4.056-4.048V298.166
		l-19.55,13.731c-0.802,0.516-1.558,0.77-2.29,0.77c-0.964,0-1.842-0.447-2.398-1.218c-0.455-0.632-0.686-1.442-0.686-2.405V287.304
		z M166.864,377.765l18.935-4.363l0.732-0.054c1.789,0,3.269,1.094,3.863,2.86c1.82,5.219,6.885,14.03,20.129,14.03
		c11.78,0,19.389-7.702,19.389-19.613c0-13.406-8.334-21.732-21.74-21.732h-6.176c-2.351,0-4.04-1.704-4.04-4.047v-16.829
		c0-2.359,1.689-4.056,4.04-4.056h5.751c11.649,0,19.181-7.532,19.181-19.181c0-10.9-6.691-17.685-17.47-17.685
		c-9.074,0-14.979,4.556-17.554,13.522c-0.624,1.904-1.997,2.945-3.808,2.945l-0.902-0.084l-18.232-4.287
		c-0.964-0.154-1.889-0.717-2.491-1.558c-0.632-0.878-0.87-2.011-0.678-3.176c3.562-19.451,21.448-32.502,44.521-32.502
		c27.052,0,44.53,16.475,44.53,41.977c0,12.212-5.22,22.766-14.764,30.02c9.198,5.428,17.747,18.642,17.747,35.618
		c0,26.967-19.459,45.808-47.304,45.808c-24.215,0-42.086-12.497-46.626-32.603C163.511,380.456,164.714,378.475,166.864,377.765z" style="fill: rgb(48, 158, 74);"></path>
</g>
</svg>
