<svg xmlns="http://www.w3.org/2000/svg" viewBox="84 53 59 90" role="img" aria-label="Daily Self-Esteem icon">
  <g fill="none" stroke="currentColor" stroke-linecap="round" stroke-linejoin="round">
    <ellipse cx="113.48891" cy="88.489326" rx="26.703104" ry="33.234798" stroke-width="2.665"/>
    <ellipse cx="113.42701" cy="88.680725" rx="21.945677" ry="27.313684" stroke-width="2"/>
    <path d="M120.09086 120.78022A26.703104 33.234798 0 0 1 113.53622 121.7967 26.703104 33.234798 0 0 1 108.0518 121.08822c-.88655 1.12148-1.4149 2.5406-1.4149 4.0876v9.19272c0 3.64802 2.93712 6.58513 6.58513 6.58513h1.95854c3.64801 0 6.58461-2.93711 6.58461-6.58513v-9.19272c0-1.69247-.63231-3.23153-1.67432-4.3956z" stroke-width="2.33145"/>
    <path d="m107.51824 83.334613-.27412.03289c-1.72152.195178-3.34434 1.171063-4.27638 2.570198-1.10746 1.65791-1.2741 3.951789-.44518 6.057072.51318 1.298257 1.34872 2.491251 2.68205 3.828981.96494.964917 1.66889 1.563613 3.92549 3.335554 1.58553 1.245622 2.13379 1.710532 2.80704 2.385972.625.62501 1.04167 1.15572 1.29607 1.65133.0526.10517.10082.19081.1074.19081.007 0 .044-.0636.0833-.14256.32896-.66667 1.00439-1.46053 1.98904-2.33773.55485-.49342.96712-.82896 2.4781-2.015372 1.97371-1.550448 2.64697-2.127211 3.59652-3.078969 1.02633-1.028518 1.69958-1.899139 2.24345-2.896956.9079-1.668874 1.17764-3.55705.75-5.243468-.24561-.96492-.71053-1.802648-1.39256-2.5066-1.14693-1.184221-2.73027-1.844315-4.41669-1.844315-1.9715 0-3.66451.903518-4.6404 2.478092-.24562.399127-.51315 1.002203-.63159 1.427644-.0461.162283-.0811.221494-.0811.133769 0-.09869-.23903-.732464-.40351-1.067993-.80482-1.642558-2.21711-2.649147-4.11406-2.927657-.16447-.02412-1.15792-.04825-1.28291-.03069z" stroke-width="1.99493"/>
    <path d="m124.78642 65.678363-8.04693 9.133773" stroke-width="1.12499"/>
    <path d="m127.81409 69.2932-8.04693 9.133773" stroke-width="1.12499"/>
  </g>
</svg>
