<?xml version="1.0" standalone="no"?><!DOCTYPE svg PUBLIC "-//W3C//DTD SVG 1.1//EN" "http://www.w3.org/Graphics/SVG/1.1/DTD/svg11.dtd">
<svg t="1686923416495" class="icon" viewBox="0 0 1024 1024" version="1.1"
  xmlns="http://www.w3.org/2000/svg" p-id="9808" data-spm-anchor-id="a313x.7781069.0.i12"
  xmlns:xlink="http://www.w3.org/1999/xlink" width="200" height="200">
  <defs>
    <filter id="blur-filter" x="0" y="0" width="100%" height="100%">
      <feGaussianBlur in="SourceGraphic" stdDeviation="5" />
    </filter>
    <radialGradient id="gradient" cx="50%" cy="50%" r="50%" fx="50%" fy="50%">
      <stop offset="0%" style="stop-color: #85c8c8" />
      <stop offset="100%" style="stop-color: #0e2a33" />
    </radialGradient>
  </defs>
  <rect x="0" y="0" width="100%" height="100%" rx="512" ry="512" fill="url(#gradient)" filter="url(#blur-filter)" />
  <g transform="scale(0.8, 0.8) translate(130, 130)">
    <path d="M672.5 759.39c-6.33 0-12.7-2.18-17.88-6.62L405.25 539.02c-4.57-3.92-11.37-3.8-15.8 0.26L178.71 732.45c-11.19 10.26-28.59 9.51-38.85-1.69-10.26-11.2-9.51-28.59 1.69-38.85l210.73-193.17c24.92-22.85 63.08-23.49 88.76-1.48l249.37 213.75c11.53 9.88 12.87 27.25 2.98 38.78-5.43 6.34-13.14 9.6-20.89 9.6z" fill="#95c6c7" p-id="9809" data-spm-anchor-id="a313x.7781069.0.i9" class=""></path>
    <path d="M878.56 660.85c-5.74 0-11.53-1.79-16.48-5.5l-130.31-97.73c-4.71-3.53-11.41-3.06-15.57 1.11l-94.07 94.07c-10.74 10.74-28.15 10.74-38.89 0-10.74-10.74-10.74-28.15 0-38.89l94.07-94.07a66.914 66.914 0 0 1 42.57-19.43 66.886 66.886 0 0 1 44.89 13.21l130.31 97.73c12.15 9.11 14.61 26.35 5.5 38.5-5.4 7.2-13.66 11-22.02 11z" fill="#95c6c7" p-id="9810" data-spm-anchor-id="a313x.7781069.0.i11" class=""></path>
    <path d="M852.15 902.77h-680.3c-17.32 0-34.14-7.01-47.36-19.73-12.81-12.32-20.15-28.06-20.15-43.18V204.13c0-22.8 6.01-42.7 17.38-57.57 12.32-16.11 30.59-25.34 50.14-25.34h403.37c15.19 0 27.5 12.31 27.5 27.5s-12.31 27.5-27.5 27.5H171.85c-7.14 0-12.52 12-12.52 27.91v634.84c1.09 2.82 6.69 8.8 12.52 8.8h680.31c5.92 0 12.52-7.36 12.52-17.91V428.04c0-15.19 12.31-27.5 27.5-27.5s27.5 12.31 27.5 27.5v401.82c-0.01 40.21-30.3 72.91-67.53 72.91z m-692.94-64.14z" fill="#95c6c7" p-id="9811" data-spm-anchor-id="a313x.7781069.0.i6" class=""></path>
    <path d="M796.39 406.1c-7.04 0-14.08-2.68-19.45-8.05l-95.78-95.78c-10.74-10.74-10.74-28.15 0-38.89 10.74-10.74 28.15-10.74 38.89 0l76.34 76.34 76.34-76.34c10.74-10.74 28.15-10.74 38.89 0 10.74 10.74 10.74 28.15 0 38.89l-95.78 95.78c-5.37 5.37-12.41 8.05-19.45 8.05z" fill="#0e2a33" p-id="9812" data-spm-anchor-id="a313x.7781069.0.i10" class=""></path>
    <path d="M796.39 406.1c-15.19 0-27.5-12.31-27.5-27.5V148.73c0-15.19 12.31-27.5 27.5-27.5s27.5 12.31 27.5 27.5V378.6c0 15.19-12.31 27.5-27.5 27.5z" fill="#0e2a33" p-id="9813" data-spm-anchor-id="a313x.7781069.0.i14" class=""></path>
  </g>
  <text x="900" y="1000" font-family="Verdana" font-size="30  " fill="#84bebf">
    b-yp
  </text>
</svg>
