<?xml version="1.0" standalone="no"?><!DOCTYPE svg PUBLIC "-//W3C//DTD SVG 1.1//EN" "http://www.w3.org/Graphics/SVG/1.1/DTD/svg11.dtd">
<svg t="1687090801402" class="icon" viewBox="0 0 1024 1024" version="1.1"
  xmlns="http://www.w3.org/2000/svg" p-id="9164" data-spm-anchor-id="a313x.7781069.0.i9"
  xmlns:xlink="http://www.w3.org/1999/xlink" width="200" height="200">
  <defs>
    <filter id="blur-filter" x="0" y="0" width="100%" height="100%">
      <feGaussianBlur in="SourceGraphic" stdDeviation="5" />
    </filter>
    <radialGradient id="gradient" cx="50%" cy="50%" r="50%" fx="50%" fy="50%">
      <stop offset="0%" style="stop-color: #85c8c8" />
      <stop offset="100%" style="stop-color: #0e2a33" />
    </radialGradient>
  </defs>
  <rect x="0" y="0" width="100%" height="100%" rx="512" ry="512" fill="url(#gradient)" filter="url(#blur-filter)" />
  <g transform="scale(0.7) translate(220, 220)">
    <path d="M885.17 668.35c0 135.83-80.97 216.8-216.8 216.8h-312.7c-95.15 0-163.81-39.93-195.9-110.82l4.1-2.99L347.46 648.2c29.85-20.15 72.02-17.91 98.51 5.22l12.69 10.45c29.11 25 76.12 25 105.23 0l155.23-133.21c29.11-25 76.12-25 105.23 0l60.82 52.24v85.45z" fill="#2B8CF7" p-id="19547"></path>
    <path d="M737.01 362.74c-41.84 0-75.75-33.91-75.75-75.75v-109.7c0-14.93 2.99-27.61 8.21-38.43H355.65c-119.73 0-216.8 97.06-216.8 216.8v312.7c0 40.67 7.09 76.12 20.9 105.97l4.1-2.99L347.44 648.2c29.85-20.15 72.02-17.91 98.51 5.22l12.69 10.45c29.53 24.32 77.45 23.84 106.49-1.08l154-132.15c28.94-24.83 76.28-24.82 105.2 0.02l60.82 52.24V355.65v-1.12c-10.82 5.22-23.51 8.21-38.43 8.21H737.01z" fill="#A4D4FF" p-id="19548"></path>
    <path d="M400.02 451.55c-49.05 0-88.81-39.76-88.81-88.81s39.76-88.81 88.81-88.81 88.81 39.76 88.81 88.81-39.76 88.81-88.81 88.81zM737.01 101.54c-47.39 0-75.75 28.36-75.75 75.75V287c0 47.39 28.36 75.75 75.75 75.75h109.71c47.39 0 75.75-28.36 75.75-75.75V177.29c0-47.39-28.36-75.75-75.75-75.75H737.01z m30.97 210.45l-38.81 5.6c-1.12 0.37-2.61 0.37-3.73 0.37-5.6 0-10.45-1.87-13.81-5.6-4.48-4.48-6.34-10.82-5.22-17.54l5.6-38.81c0.37-1.87 1.49-4.48 2.61-5.6l63.43-63.44c1.12 2.61 2.24 5.6 3.36 8.58 1.49 2.99 2.99 5.6 4.48 8.21 1.12 2.24 2.61 4.48 4.1 5.97 1.49 2.24 2.99 4.48 4.1 5.6 0.75 1.12 1.12 1.49 1.49 1.87 3.36 4.1 7.09 7.84 10.45 10.45 0.75 0.75 1.49 1.49 1.87 1.49 1.87 1.49 4.1 3.36 5.6 4.48 2.24 1.49 4.1 2.99 6.34 4.1 2.61 1.49 5.6 2.99 8.58 4.48s5.97 2.61 8.58 3.36l-63.43 63.81c-1.11 1.13-3.73 2.62-5.59 2.62z m82.84-79.85c-0.75 1.12-1.87 1.49-2.99 1.49h-1.12c-26.87-7.84-48.14-29.11-55.97-55.97-0.37-1.49 0-2.99 1.12-4.1l12.31-12.31c20.15-20.15 39.18-19.78 58.96 0 10.08 10.07 14.93 19.78 14.93 29.48-0.37 9.7-5.22 19.4-15.3 29.48l-11.94 11.93z" fill="#2B8CF7" p-id="19549"></path>
  </g>
  <text x="900" y="1000" font-family="Verdana" font-size="30  " fill="#84bebf">
    b-yp
  </text>
</svg>