<?xml version="1.0" encoding="UTF-8"?>
<svg id="Capa_1" xmlns="http://www.w3.org/2000/svg" version="1.1" viewBox="0 0 512 512">
  <!-- Generator: Adobe Illustrator 30.2.1, SVG Export Plug-In . SVG Version: 2.1.1 Build 1)  -->
  <path d="M350.2,329.3c9.8-7.3,18-16.1,24.6-26.4,9.2-14.3,13.8-30.3,13.8-47.4s-4.6-32.1-13.8-46.4c-8.9-13.9-20.8-25.2-35.5-33.5-14.8-8.4-31-12.6-48.1-12.6h-61c-9,0-17.1-2.1-24.5-6.3-7.5-4.2-13.4-9.8-17.8-17.1-4.3-7-6.4-14.4-6.4-22.5s2-15.5,6.2-22.4c4.3-7,10.1-12.5,17.7-16.7,7.7-4.3,15.8-6.3,24.9-6.3h116.7V24.7h-116.7c-17.4,0-33.6,4.1-48.4,12.3-14.8,8.1-26.7,19.4-35.5,33.4-8.9,14.3-13.5,30-13.5,46.7s4.5,32.4,13.5,46.7c4.3,6.9,9.3,13.1,15.1,18.6-9.9,7.3-18.2,16.1-24.7,26.4-9,14.2-13.5,30-13.5,47.1s4.5,32.4,13.5,46.7c8.7,14,20.6,25.3,35.3,33.6,14.8,8.4,31.1,12.6,48.5,12.6h61c9,0,17.1,2.1,24.6,6.3,7.5,4.2,13.4,9.8,17.8,17.1,4.3,7,6.4,14.4,6.4,22.5s-2.1,15.4-6.4,22.2c-4.5,7.1-10.3,12.7-17.9,17-7.5,4.2-15.5,6.3-24.5,6.3h-121.5v47.1h121.5c17.1,0,33.2-4.2,48-12.6,14.6-8.3,26.6-19.5,35.5-33.5,9.2-14.3,13.8-30,13.8-46.4s-4.6-33-13.8-47.4c-4.3-6.7-9.3-12.8-14.9-18.2ZM178.2,233.3c4.5-7.1,10.3-12.7,17.9-17,7.5-4.2,15.5-6.3,24.5-6.3h70.6c9,0,17.1,2.1,24.5,6.3,7.6,4.3,13.4,9.8,17.9,17,4.3,6.8,6.3,14.1,6.3,22.2s-2.1,15.5-6.4,22.5c-4.5,7.3-10.3,12.9-17.8,17.1-7.5,4.2-15.5,6.3-24.5,6.3h-70.6c-9,0-17.1-2.1-24.5-6.3-7.5-4.2-13.4-9.8-17.8-17.1-4.3-7-6.4-14.4-6.4-22.5s2.1-15.4,6.4-22.2Z"/>
</svg>