<!--?xml version="1.0" encoding="utf-8"?-->
<!-- Generator: Adobe Illustrator 18.0.0, SVG Export Plug-In . SVG Version: 6.00 Build 0)  -->

<svg version="1.1" id="_x32_" xmlns="http://www.w3.org/2000/svg" xmlns:xlink="http://www.w3.org/1999/xlink" x="0px" y="0px" viewBox="0 0 512 512" style="width: 256px; height: 256px; opacity: 1;" xml:space="preserve">
<style type="text/css">
	.st0{fill:#4B4B4B;}
</style>
<g>
	<path class="st0" d="M411.02,118.16c-4.333,0-8.881,0.375-14.136,1.28C378.87,59.623,325.98,19.433,265.278,19.433
		c-46.159,0-89.038,23.719-114.532,63.382c-7.81-1.89-15.586-2.85-23.112-2.85c-55.68,0-100.98,46.791-100.98,104.31
		c0,2.412,0.17,4.782,0.432,7.511C9.873,205.926,0,227.014,0,249.633c0,40.764,32.105,73.922,71.567,73.922
		c5.35,0,10.796-0.656,16.029-1.999c18.1,20.897,71.969,87.606,66.763,135.197c-0.027,0.258-0.076,0.508-0.107,0.761
		c-0.351,2.846-0.919,5.622-1.722,8.311c-0.152,0.519-0.33,1.027-0.5,1.538c-0.41,1.222-0.832,2.436-1.345,3.619
		c-2.077,4.79-1.606,10.256,1.257,14.616c2.862,4.364,7.689,6.968,12.908,6.968h163.494c5.217,0,10.044-2.604,12.908-6.968
		c2.861-4.36,3.332-9.826,1.257-14.616c-3.576-8.241-4.599-17.43-3.771-27.104c0.033-0.375,0.096-0.761,0.135-1.136
		c0.275-2.748,0.689-5.528,1.244-8.342c0.154-0.769,0.343-1.55,0.517-2.323c0.546-2.467,1.169-4.946,1.903-7.441
		c0.285-0.972,0.599-1.948,0.91-2.924c0.758-2.373,1.573-4.755,2.475-7.144c0.371-0.988,0.759-1.976,1.154-2.963
		c0.992-2.483,2.04-4.966,3.158-7.444c0.361-0.8,0.724-1.601,1.099-2.397c1.312-2.811,2.682-5.606,4.122-8.385
		c0.201-0.386,0.4-0.773,0.603-1.16c14.128-26.842,33.504-51.698,45.454-65.947c3.135,0.304,6.297,0.5,9.51,0.5
		c55.68,0,100.98-46.791,100.98-104.302C512,164.951,466.7,118.16,411.02,118.16z M308.319,459.127
		c0.082,0.851,0.082,1.714,0.19,2.561l-110.232,0.164h-13.443c7.062-55.223-39.819-120.296-68.594-154.13
		c-0.074-0.086-0.152-0.184-0.226-0.27c6.59-5.426,12.139-11.887,16.364-19.125c8.86-0.429,17.649-2.069,26.128-4.884
		c10.618,17.918,31.982,53.615,43.332,69.82c3.798,5.524,6.426,8.811,6.999,8.3c0.037,0.008,0.11,0.082,0.141,0.082
		c0,0,0.01,0,0.016,0c0.164-0.203,0.17-0.621,0.02-1.324c-1.595-7.444-4.132-36.848-4.33-61.38
		c-0.004-3.228,0.031-6.379,0.117-9.388c19.07,9.666,39.417,14.569,60.476,14.569c6.158,0,12.371-0.55,18.738-1.608
		c0.76-0.109,1.536-0.164,2.292-0.281c-3.681,37.8-6.582,62.27-8.081,69.581c-0.291,1.246-0.552,2.046-0.775,2.194
		c0.09-0.066,0.176-0.164,0.265-0.226c-0.052,0.125-0.107,0.285-0.152,0.336l-0.113-0.109l0.109,0.117
		c17.022-12.367,32.62-60.126,38.445-79.989c5.364-2.194,10.62-4.747,15.418-7.636c9.312,12.332,21.387,22.318,34.894,29.083
		c0.925,0.476,1.786,1.058,2.725,1.507C338.411,355.293,303.382,410.665,308.319,459.127z M415.308,239.057
		c-2.16,4.962-4.895,7.823-8.018,7.823c-0.021,0-0.043,0-0.062,0c-3.318-0.48-5.571-4.766-8.688-10.696
		c-2.078-3.954-4.434-8.436-7.714-12.968c-5.247-7.015-10.685-11.988-16.62-15.205c-3.996-2.202-7.673-3.642-11.235-4.396
		c-0.539-0.125-1.095-0.211-1.652-0.289c-0.468-0.07-0.939-0.14-2.18-0.39c0,0-8.71-0.539-9.65-0.578
		c-10.509-0.515-19.564-8.682-22.064-20.062l-0.578-2.588c-0.552-2.545-1.124-5.18-2.034-7.433l-0.558-1.386
		c-0.246-0.644-0.494-1.284-0.796-1.901c-1.794-4.084-4.201-8.167-7.353-12.488c-7.658-10.384-18.348-18.383-30.104-22.513
		c-7.271-2.608-15.061-3.927-23.152-3.927c-3.016,0-6.098,0.183-9.162,0.55c-8.399,0.972-15.734,3.166-21.629,4.926
		c-5.1,1.526-9.127,2.729-12.199,2.729c-1.901,0-3.316-0.484-4.328-1.48c-2.584-2.51-1.905-8.522,1.774-15.697
		c2.383-4.598,9.668-16.271,25.781-25.293c11.344-6.429,25.123-9.974,38.798-9.974c4.6,0,9.238,0.398,13.784,1.179
		c21.926,3.502,43.457,17.107,57.6,36.399c5.626,7.655,10.09,15.764,13.271,24.102c0.611,1.499,1.114,3.045,1.616,4.583l0.496,2.03
		l0.154,0.039c-0.084,0.156-0.185,0.367-0.283,0.671c0.035,0.035,0.027,0.055,0.045,0.082l-0.127,0.398
		c0.127,0.316,0.808,0.738,9.164,4.001c7.568,3.463,14.588,8.479,20.866,14.916c13.462,13.675,17.782,29.486,19.158,37.684
		C419.208,222.267,418.363,232.167,415.308,239.057z" style="fill: rgb(13, 147, 25);"></path>
</g>
</svg>
