<!--?xml version="1.0" encoding="utf-8"?-->
<!-- Generator: Adobe Illustrator 18.1.1, SVG Export Plug-In . SVG Version: 6.00 Build 0)  -->

<svg version="1.1" id="_x31_0" xmlns="http://www.w3.org/2000/svg" xmlns:xlink="http://www.w3.org/1999/xlink" x="0px" y="0px" viewBox="0 0 512 512" style="width: 64px; height: 64px; opacity: 1;" xml:space="preserve">
<style type="text/css">
	.st0{fill:#374149;}
</style>
<g>
	<path class="st0" d="M466.172,394.69H45.824V246.221c0-12.258-9.938-22.199-22.199-22.199h-1.43C9.938,224.022,0,233.962,0,246.221
		v243.59h45.824v-49.297h420.348v49.183v0.301l0,0v0.161H512v-49.645V394.69H466.172z" style="fill: rgb(204, 29, 101);"></path>
	<path class="st0" d="M210.047,295.705v66.328v0.203l0,0v0.16h273.214v-41.918c0-20.523-16.637-37.16-37.16-37.16l-198.894-24.774
		C226.683,258.545,210.047,275.182,210.047,295.705z" style="fill: rgb(204, 29, 101);"></path>
	<circle class="st0" cx="133.699" cy="307.06" r="55.336" style="fill: rgb(204, 29, 101);"></circle>
	<polygon class="st0" points="88.141,45.346 88.149,45.385 88.149,45.385 88.172,45.541 102.183,43.326 110.187,42.15 
		92.152,78.033 94.234,91.182 141.465,83.713 141.531,83.701 141.531,83.701 141.687,83.678 139.098,67.302 124.324,69.638 
		115.859,70.885 133.961,34.83 131.906,21.842 85.844,29.126 85.742,29.142 85.742,29.142 85.582,29.166 	" style="fill: rgb(204, 29, 101);"></polygon>
	<polygon class="st0" points="218.359,134.354 203.687,131.111 195.383,129.182 225.469,102.193 228.313,89.33 182.687,79.248 
		182.59,79.225 182.59,79.225 182.434,79.19 178.851,95.408 192.742,98.478 200.617,100.31 170.656,127.162 167.782,140.182 
		214.778,150.572 	" style="fill: rgb(204, 29, 101);"></polygon>
	<polygon class="st0" points="108.863,175.85 108.875,175.912 108.879,175.912 108.914,176.068 121.961,172.966 129.414,171.287 
		115.016,206.404 117.922,218.646 162.11,208.142 158.535,193.115 158.523,193.053 158.519,193.053 158.484,192.9 144.722,196.17 
		136.844,197.947 151.297,162.662 148.422,150.572 105.289,160.822 	" style="fill: rgb(204, 29, 101);"></polygon>
	<polygon class="st0" points="75.93,190.022 32.176,99.154 32,98.787 32,98.787 31.93,98.642 17.516,105.58 61.516,196.962 	" style="fill: rgb(204, 29, 101);"></polygon>
	<polygon class="st0" points="228.274,205.763 241.703,214.466 303.438,119.232 290.172,110.634 290.141,110.615 290.141,110.615 
		290.008,110.529 	" style="fill: rgb(204, 29, 101);"></polygon>
</g>
</svg>
