<!--?xml version="1.0" encoding="utf-8"?-->
<!-- Generator: Adobe Illustrator 18.1.1, SVG Export Plug-In . SVG Version: 6.00 Build 0)  -->

<svg version="1.1" id="_x32_" xmlns="http://www.w3.org/2000/svg" xmlns:xlink="http://www.w3.org/1999/xlink" x="0px" y="0px" viewBox="0 0 512 512" style="width: 64px; height: 64px; opacity: 1;" xml:space="preserve">
<style type="text/css">
	.st0{fill:#4B4B4B;}
</style>
<g>
	<path class="st0" d="M383.924,288.725c-2.796-1.816-9.054-1.91-10.643,4.511l-12.735,58.45c-0.994,4.567,0.133,9.344,3.062,12.993
		c2.937,3.635,7.37,5.757,12.046,5.757c0,0,45.84,0,51.644,0c5.796,0,6.798-7.323,5.984-10.808
		C425.473,325.74,406.378,303.184,383.924,288.725z" style="fill: rgb(53, 123, 147);"></path>
	<path class="st0" d="M284.928,264.58c-17.41,0.086-33.811,3.18-46.185,8.952c-6.125,2.859-15.898,7.518-18.703,18.022
		l-12.773,58.583c-0.994,4.574,0.133,9.351,3.062,13.001c2.937,3.642,7.37,5.756,12.046,5.756h66.078
		c7.268,0,13.565-5.059,15.116-12.163l15.774-72.375C321.245,275.114,316.131,264.431,284.928,264.58z" style="fill: rgb(53, 123, 147);"></path>
	<path class="st0" d="M498.38,390.917c-4.534-74.623-40.624-118.952-70.981-143.254c-37.218-29.777-87.718-46.851-138.571-46.851
		c-28.704,0-55.474,5.42-77.411,15.648c-25,11.67-43.75,27.342-57.44,38.776c-4.456,3.728-9.986,8.349-14.277,11.403
		c-3.18-21.186,18.468-58.583,36.223-86.496c18.906-29.715,21.452-63.384,6.822-90.037c-11.928-21.741-33.795-35.244-57.072-35.244
		c-0.853,0-1.699,0.023-2.553,0.063c-39.003,1.629-59.578,25.008-69.478,36.239c-1.277,1.464-2.639,2.717-3.203,3.547
		c-9.163,13.315-34.445,27.647-40.883,30.866c-6.477,3.25-9.829,5.882-9.539,11.434c0.306,6.078,5.052,9.195,11.059,10.378
		c0,0,0.439,0.11,1.222,0.196c13.722,1.606,51.495,17.724,50.806,26.942c-2.726,19.039-8.435,31.1-15.836,48.91
		c-10.863,26.096-23.175,55.669-25.728,101.604c-1.418,25.32,1.778,47.344,9.414,65.913c-7.354,0.196-13.275,6.196-13.275,13.604
		c0,7.527,6.102,13.644,13.644,13.644h16.275c1.096,1.277,2.076,2.639,3.234,3.877c22.016,23.261,54.362,35.056,96.16,35.056h291.89
		h0.768l0.751-0.055c23.582-1.629,48.606-14.474,56.156-38.877h1.801c7.542,0,13.643-6.117,13.643-13.644
		S505.907,390.933,498.38,390.917z M55.201,390.917c-8.881-16.282-13.384-37.46-11.873-64.653
		c4.221-75.735,36.121-98.134,41.94-153.452c1.182-11.184-12.273-23.034-27.828-27.819c-0.117-6.759-5.349-15.194-10.393-21.781
		c7.606-4.433,14.881-9.171,18.75-13c8.271-8.2,23.3-32.025,58.231-33.482c0.548-0.023,1.096-0.038,1.644-0.038
		c34.194,0,61.92,44.462,31.83,91.743c-32.236,50.657-52.004,93.154-31.822,119.993c3.117,2.186,6.219,3.165,9.422,3.165
		c18.993,0,41.071-34.586,85.541-55.341c18.978-8.866,42.778-13.612,68.186-13.612c81.601,0,179.822,48.974,187.771,168.277H55.201z
		" style="fill: rgb(53, 123, 147);"></path>
	<path class="st0" d="M97.893,109.389c-5.287,0-9.563,4.276-9.563,9.547c0,5.272,4.276,9.548,9.563,9.548
		c5.263,0,9.547-4.276,9.547-9.548C107.44,113.666,103.156,109.389,97.893,109.389z" style="fill: rgb(53, 123, 147);"></path>
</g>
</svg>
