<?xml version="1.0" encoding="UTF-8"?>
<!DOCTYPE svg PUBLIC "-//W3C//DTD SVG 1.1//EN" "http://www.w3.org/Graphics/SVG/1.1/DTD/svg11.dtd">
<!-- Creator: CorelDRAW -->
<svg xmlns="http://www.w3.org/2000/svg" xml:space="preserve" width="8.66666in" height="8.66666in" style="shape-rendering:geometricPrecision; text-rendering:geometricPrecision; image-rendering:optimizeQuality; fill-rule:evenodd; clip-rule:evenodd"
viewBox="0 0 8.66666 8.66666"
 xmlns:xlink="http://www.w3.org/1999/xlink">
 <defs>
  <style type="text/css">
   <![CDATA[
    .fil0 {fill:black}
    .fil1 {fill:black;fill-rule:nonzero}
   ]]>
  </style>
 </defs>
 <g id="Layer_x0020_1">
  <metadata id="CorelCorpID_0Corel-Layer"/>
  <g id="_199646912">
   <path id="_199647704" class="fil0" d="M4.55233 4.49841l0.477705 0.477709c0.0624567,0.0624567 0.0624567,0.163803 0,0.22626 -0.0624567,0.0624567 -0.163799,0.0624567 -0.226256,0l-0.477705 -0.477713c-0.0624606,-0.0624606 -0.0624606,-0.163799 0,-0.226256 0.0624567,-0.0624567 0.163799,-0.0624567 0.226256,0z"/>
   <path id="_199646624" class="fil1" d="M4.59739 5.29564l0.56474 -0.56474 -3.93701e-006 -3.93701e-006c0.0312402,-0.0312402 0.0818937,-0.0312402 0.113134,0l0.000287402 0.000295276 1.48888 1.48888 7.87402e-006 7.87402e-006 3.93701e-006 -3.93701e-006c0.00245669,0.00245669 0.00472047,0.00503937 0.00679134,0.00771654 0.0183189,0.0217205 0.0274843,0.0484843 0.0274843,0.0751417 0,0.0297795 -0.0114331,0.059685 -0.0342795,0.0825433l-0.0326614 -0.0324803 -9.05512e-005 2.75591e-005 0.0327717 0.032752 -0.000326772 0.000318898 -0.51213 0.512134c-0.0228504,0.0228504 -0.0528937,0.0342874 -0.0828622,0.0342874 -0.0297795,0 -0.059689,-0.0114331 -0.0825551,-0.0342874l0.056252 -0.056563 -0.0565512 0.0565827 -0.000318898 -0.000326772 -1.48886 -1.48886 -3.93701e-006 3.93701e-006c-0.0312402,-0.0312402 -0.0312402,-0.0818937 0,-0.113134l0.000295276 -0.000287402z"/>
   <path id="_199647104" class="fil0" d="M4.9545 3.45042c0,-0.419165 -0.159913,-0.838339 -0.479732,-1.15816 -0.319819,-0.319819 -0.738996,-0.479732 -1.15816,-0.479732 -0.419165,0 -0.838339,0.159913 -1.15816,0.479732 -0.319819,0.319819 -0.479732,0.738992 -0.479732,1.15816 0,0.419161 0.159913,0.838339 0.479732,1.15816 0.319819,0.319819 0.738992,0.479732 1.15816,0.479732 0.385772,0 0.771559,-0.135453 1.07989,-0.40635 0.026685,-0.0234449 0.0527913,-0.0479055 0.0782677,-0.0733819 0.0124803,-0.0124803 0.0247165,-0.0251142 0.0367126,-0.0378898 0.295343,-0.314646 0.44302,-0.717465 0.44302,-1.12027zm-0.319996 0c0,-0.350961 -0.137807,-0.683685 -0.386008,-0.931886 -0.248201,-0.248201 -0.580925,-0.386008 -0.931886,-0.386008 -0.350961,0 -0.683685,0.137807 -0.931886,0.386008 -0.248201,0.248201 -0.386008,0.580925 -0.386008,0.931886 0,0.350961 0.137807,0.683685 0.386008,0.931886 0.248201,0.248201 0.580925,0.386008 0.931886,0.386008 0.320386,0 0.627898,-0.115197 0.868681,-0.326748 0.0217008,-0.0190669 0.0427795,-0.0388346 0.0632047,-0.0592598 0.0100551,-0.0100551 0.0199528,-0.0202717 0.029689,-0.0306417 0.229949,-0.244933 0.356319,-0.565394 0.356319,-0.901244z"/>
  </g>
  <path class="fil0" d="M4.33333 0c2.39323,0 4.33333,1.9401 4.33333,4.33333 0,2.39323 -1.9401,4.33333 -4.33333,4.33333 -2.39323,0 -4.33333,-1.9401 -4.33333,-4.33333 0,-2.39323 1.9401,-4.33333 4.33333,-4.33333zm0 0.479996c2.12814,0 3.85333,1.7252 3.85333,3.85333 0,2.12814 -1.7252,3.85333 -3.85333,3.85333 -2.12814,0 -3.85333,-1.7252 -3.85333,-3.85333 0,-2.12814 1.7252,-3.85333 3.85333,-3.85333z"/>
 </g>
</svg>
