<!--?xml version="1.0" encoding="utf-8"?-->
<!-- Generator: Adobe Illustrator 15.1.0, SVG Export Plug-In . SVG Version: 6.00 Build 0)  -->

<svg version="1.1" id="_x32_" xmlns="http://www.w3.org/2000/svg" xmlns:xlink="http://www.w3.org/1999/xlink" x="0px" y="0px" width="512px" height="512px" viewBox="0 0 512 512" style="width: 256px; height: 256px; opacity: 1;" xml:space="preserve">
<style type="text/css">

	.st0{fill:#4B4B4B;}

</style>
<g>
	<path class="st0" d="M191.266,42c-18.859,0-34.141,4.828-34.141,10.781c0,5.969,15.281,10.781,34.141,10.781
		c18.844,0,34.141-4.813,34.141-10.781C225.406,46.828,210.109,42,191.266,42z" style="fill: rgb(50, 104, 135);"></path>
	<path class="st0" d="M434.906,189.5c0-6.313-3.344-12.406-9.422-18.094V74.594c6.078-5.688,9.422-11.781,9.422-18.094
		C434.906,25.281,354.797,0,256,0S77.094,25.281,77.094,56.5c0,6.313,3.344,12.406,9.422,18.094v88.125
		c1.391,1.375,2.953,2.719,4.766,4.063c8.438,6.344,21.313,12.406,37.422,17.469c32.234,10.188,77.422,16.625,127.297,16.594
		c47.234,0.031,90.234-5.719,122.047-15l0,0c3-0.875,6.125,0.844,7,3.844s-0.844,6.125-3.844,7
		C348,206.344,304.156,212.156,256,212.156c-33.375,0-64.688-2.781-91.813-7.719c-27.141-4.938-50.047-11.969-66.813-20.656
		c-5.344-2.781-10.031-5.734-14.078-8.906c-3.969,4.672-6.203,9.563-6.203,14.625c0,6.344,3.344,12.406,9.422,18.094v86.672
		c1.391,1.359,2.953,2.703,4.766,4.047c8.438,6.344,21.313,12.391,37.422,17.469c32.234,10.188,77.422,16.625,127.297,16.594
		c47.234,0.031,90.234-5.719,122.047-15c3-0.875,6.125,0.844,7,3.844s-0.844,6.125-3.844,7C348,337.875,304.156,343.688,256,343.688
		c-33.375,0-64.688-2.813-91.813-7.719c-27.141-4.938-50.047-11.938-66.813-20.656c-5-2.594-9.375-5.391-13.25-8.328
		c-4.484,4.953-7.031,10.141-7.031,15.516c0,6.313,3.344,12.406,9.422,18.094v85.188c1.391,1.375,2.953,2.719,4.766,4.078
		c8.438,6.328,21.313,12.375,37.422,17.453C160.938,457.5,206.125,463.938,256,463.906c47.234,0.031,90.234-5.719,122.047-15l0,0
		c3-0.875,6.125,0.844,7,3.844s-0.844,6.125-3.844,7C348,469.406,304.156,475.219,256,475.219c-33.375,0-64.688-2.813-91.813-7.719
		c-27.141-4.938-50.047-11.938-66.813-20.656c-4.656-2.438-8.75-5.031-12.438-7.75c-4.984,5.219-7.844,10.688-7.844,16.406
		c0,31.219,80.109,56.5,178.906,56.5s178.906-25.281,178.906-56.5c0-6.313-3.344-12.391-9.422-18.078v-96.828
		c6.078-5.688,9.422-11.75,9.422-18.094s-3.344-12.406-9.422-18.078v-96.828C431.563,201.906,434.906,195.844,434.906,189.5z
		 M256,91.813c-99.25,0-151.625-24.625-157.484-35.313C104.375,45.813,156.75,21.188,256,21.188S407.625,45.813,413.484,56.5
		C407.625,67.188,355.25,91.813,256,91.813z" style="fill: rgb(50, 104, 135);"></path>
</g>
</svg>
