<!--?xml version="1.0" encoding="utf-8"?-->
<!-- Generator: Adobe Illustrator 18.1.1, SVG Export Plug-In . SVG Version: 6.00 Build 0)  -->

<svg version="1.1" id="_x32_" xmlns="http://www.w3.org/2000/svg" xmlns:xlink="http://www.w3.org/1999/xlink" x="0px" y="0px" viewBox="0 0 512 512" style="width: 64px; height: 64px; opacity: 1;background-color: #ffffff" xml:space="preserve">
<style type="text/css">
	.st0{fill:#4B4B4B;}
</style>
<g>
	<path class="st0" d="M468.563,286.251L385.152,41.18l-3.24-9.52c-3.329-9.772-11.784-16.718-21.734-18.353v-0.014l-0.954-0.178
		l-0.214-0.044l-0.23-0.03c-1.146-0.163-2.426-0.296-4.438-0.451l-0.081-0.008c-1.99-0.14-4.831-0.318-8.981-0.503
		c-5.814-0.266-12.871-0.458-20.949-0.458c-5.577,0-11.761,0.132-18.234,0.37C295.771,4.55,283.374-0.037,269.829,0
		c-10.275-0.015-19.966,2.448-28.517,6.894c-7.367,3.824-13.832,9.106-19.528,15.298c-8.677,1.835-17.48,3.913-26.438,6.414
		c-25.136,7.035-51.056,16.873-76.088,30.647C94.233,73.026,70.089,90.772,48.77,113.504l0.008-0.015
		c-0.711,0.762-1.184,1.265-1.613,1.731l-0.222,0.237l-0.252,0.259l-0.341,0.413l-0.162,0.192l-0.23,0.259l-0.555,0.732
		l-0.303,0.399l-0.747,1.184l-0.355,0.562l-0.784,1.642l-0.266,0.548l-0.444,1.25l0.067,0.022
		c-1.753,3.995-2.796,8.278-2.796,12.672c0,1.191,0.14,2.123,0.252,3.106V316.95l0.436,2.071l0.015,0.074
		c2.101,9.72,8.662,17.908,17.753,22.029l2.693,1.242l0.252,0.112l366.007,166.63c4.253,1.946,8.803,2.893,13.301,2.893
		c7.819,0,15.541-2.863,21.563-8.307l0.044-0.045l0.214-0.199l0.023-0.023l0.132-0.126l-0.022-0.03
		c4.505-4.239,7.642-9.572,9.136-15.342l-0.023,0.089l0.296-1.109l0.377-1.435V286.251H468.563z M315.685,84.869
		c3.454,0,6.258,4.216,6.258,9.409c0,5.185-2.804,9.394-6.258,9.394c-3.47,0-6.273-4.21-6.273-9.394
		C309.412,89.085,312.215,84.869,315.685,84.869z M312.378,138.203c3.358,0.821,5.096,5.57,3.861,10.622
		c-1.228,5.038-4.949,8.462-8.314,7.649c-3.366-0.828-5.09-5.577-3.862-10.622C305.291,140.807,309.02,137.374,312.378,138.203z
		 M296.622,38.044c3.055-0.835,6.546,2.205,7.811,6.791c1.25,4.602-0.222,8.995-3.284,9.832c-3.055,0.835-6.554-2.204-7.804-6.798
		C292.094,43.266,293.56,38.88,296.622,38.044z M275.88,58.342c3.462,0,6.266,4.202,6.266,9.402c0,5.193-2.804,9.395-6.266,9.395
		s-6.273-4.202-6.273-9.395C269.607,62.544,272.418,58.342,275.88,58.342z M275.88,109.19c3.462,0,6.266,4.21,6.266,9.395
		c0,5.2-2.804,9.408-6.266,9.408s-6.273-4.208-6.273-9.408C269.607,113.4,272.418,109.19,275.88,109.19z M237.429,44.834
		c1.258-4.586,4.75-7.626,7.812-6.791c3.062,0.836,4.527,5.223,3.277,9.824c-1.25,4.594-4.756,7.634-7.811,6.798
		C237.644,53.83,236.179,49.436,237.429,44.834z M239.064,146.495c0.932,5.111-1.073,9.757-4.483,10.371
		c-3.41,0.621-6.924-3.018-7.856-8.122c-0.932-5.111,1.08-9.757,4.482-10.378C234.611,137.751,238.124,141.391,239.064,146.495z
		 M229.448,87.088c3.469,0,6.272,4.201,6.272,9.394c0,5.192-2.803,9.402-6.272,9.402c-3.454,0-6.258-4.209-6.258-9.402
		C223.19,91.289,225.993,87.088,229.448,87.088z M443.176,481.316l-0.636,0.843c-0.577,0.518-1.31,0.784-2.056,0.792l-1.273-0.281
		L72.988,315.929l-2.737-1.243l-1.176-1.146V272.24L434.18,438.464c2.02,0.924,4.172,1.368,6.303,1.368
		c0.902,0,1.805-0.081,2.692-0.236V481.316z M443.176,396.263c-0.872,0.288-1.775,0.458-2.692,0.458
		c-1.206-0.008-2.412-0.259-3.559-0.776L70.696,229.204l-1.62-0.732v-56.722l364.647,166.016c2.16,0.984,4.475,1.465,6.761,1.465
		c0.902,0,1.805-0.082,2.692-0.229V396.263z M443.176,329.894c-0.865,0.326-1.768,0.496-2.692,0.496
		c-1.043,0-2.101-0.214-3.092-0.666L71.154,162.976l-2.079-0.947v-25.003l-0.192-0.924l-0.06-0.51l0.607-1.605l-0.022-0.015
		l0.548-0.584c18.988-20.254,40.589-36.172,63.306-48.681c26.437-14.558,54.399-24.463,81.347-31.128
		c-7.042,15.024-11.791,33.029-14.128,52.365c-5.311,43.814,26.8,75.659,69.349,75.659c42.564,0,73.61-31.727,69.364-75.659
		c-2.345-24.255-9.749-47.727-21.422-65.221c2.256-0.029,4.453-0.052,6.561-0.052c7.604,0,14.225,0.185,19.632,0.429
		c5.259,0.229,8.115,0.436,9.512,0.57l0.725,0.073l0.355,0.104l0.133,0.015l2.966,8.684L442.17,298.87
		c0.17,0.473,0.414,1.45,0.592,2.693c0.17,1.25,0.288,2.774,0.288,4.461v0.355l-0.081,8.921h0.207V329.894z" style="fill: rgb(190, 0, 0);"></path>
</g>
</svg>
