<svg xmlns="http://www.w3.org/2000/svg" viewBox="-4 -4 108 108"><path d="M50 4.62A45.38 45.38 0 1 0 95.38 50 45.44 45.44 0 0 0 50 4.62Z" fill="#ff6188"/><path fill="#ffd866" d="M71.54 57.69H40.77V33.08H71.54v24.61z"/><path fill="#2c292d" d="M59.23 39.23h6.15v12.31h-6.15zM46.92 39.23h6.15v12.31h-6.15z"/><path d="M50 0a50 50 0 1 0 50 50A50.06 50.06 0 0 0 50 0ZM28.46 74.22V63.85h12.31v6.51a6.49 6.49 0 0 0-1.32-.07c-3.55.19-6.78 3.55-10.18 3.93a7.07 7.07 0 0 1-.81 0Zm12.31-16.53V33.08h30.77v24.61Zm30.77 6.15v10.38a7.09 7.09 0 0 1-.81 0A15.77 15.77 0 0 1 65.38 72v-8.15Zm-12.31 0v6.51c-3 .45-6.14 2.72-9.23 2.72a9.63 9.63 0 0 1-3.08-.61v-8.61Zm22.29 8.79a9.43 9.43 0 0 0-3.82.32v-46H43.37L41.6 27l-1.51.09-1.35.13-1.23.16-1.14.2-1.07.23-1 .27-1 .3-.9.34-.85.37-.81.41-.77.44-.73.48-.69.51-.65.55-.61.58-.58.62-.54.66-.5.7-.47.73-.43.78-.4.82-.36.86-.33.91-.29 1-.26 1-.23 1.08-.19 1.16-.16 1.25-.09 1.37-.09 1.55-.05 1.85V73a9.43 9.43 0 0 0-3.83-.32c-2.65.46-4.3 1.5-6.34 2.32a45.37 45.37 0 1 1 83.23-25 45.1 45.1 0 0 1-7.52 25c-2.05-.86-3.69-1.9-6.34-2.36Z" fill="#2c292d"/><path d="M70.81 86.68a13.24 13.24 0 0 1-4.54-1.83 13.89 13.89 0 0 0-5.68-2.1 13.78 13.78 0 0 0-5.68 1.43A13.61 13.61 0 0 1 50 85.54a13.63 13.63 0 0 1-4.9-1.36 14 14 0 0 0-5.69-1.44 13.9 13.9 0 0 0-5.68 2.1 13.3 13.3 0 0 1-4.54 1.83 14.33 14.33 0 0 1-5-.8c-.85-.24-1.71-.47-2.57-.63 1 .84 2.1 1.65 3.2 2.4a12.43 12.43 0 0 0 4.58.56 14.57 14.57 0 0 0 5.11-2 12.55 12.55 0 0 1 5-1.91 12.09 12.09 0 0 1 5 1.32A14.87 14.87 0 0 0 50 87.08a14.84 14.84 0 0 0 5.49-1.48c1.76-.72 3.35-1.44 5-1.32a12.58 12.58 0 0 1 5 1.91 14.54 14.54 0 0 0 5.11 2 12.4 12.4 0 0 0 4.58-.56c1.11-.75 2.17-1.56 3.21-2.4-.86.17-1.72.4-2.57.63a14 14 0 0 1-5.01.82ZM75.86 79.27a14.1 14.1 0 0 1-5 .8 13.39 13.39 0 0 1-4.54-1.83 14.21 14.21 0 0 0-5.55-2.08h-.55a14.63 14.63 0 0 0-5.26 1.41A13.63 13.63 0 0 1 50 78.92a13.63 13.63 0 0 1-4.9-1.36 13.76 13.76 0 0 0-5.69-1.43 13.92 13.92 0 0 0-5.68 2.1 13.29 13.29 0 0 1-4.54 1.83 14.33 14.33 0 0 1-5-.8 13.35 13.35 0 0 0-5.79-.77 15.12 15.12 0 0 0-2.83.79c.36.42.7.85 1.07 1.25a13.22 13.22 0 0 1 2-.53 12.07 12.07 0 0 1 5.11.73 14.93 14.93 0 0 0 5.63.84 14.53 14.53 0 0 0 5.11-2 12.58 12.58 0 0 1 5-1.91 12.24 12.24 0 0 1 5 1.32A14.89 14.89 0 0 0 50 80.46 14.92 14.92 0 0 0 55.49 79a12.13 12.13 0 0 1 5-1.32 12.57 12.57 0 0 1 5 1.91 14.53 14.53 0 0 0 5.1 2 15.13 15.13 0 0 0 5.64-.84 12.33 12.33 0 0 1 5.16-.75 13.27 13.27 0 0 1 2 .53c.37-.4.71-.84 1.06-1.25a15.08 15.08 0 0 0-2.83-.79 13.34 13.34 0 0 0-5.76.78ZM39.49 90.91a12.1 12.1 0 0 1 5 1.32A14.89 14.89 0 0 0 50 93.7a14.92 14.92 0 0 0 5.49-1.47 12 12 0 0 1 5-1.32 11.86 11.86 0 0 1 4.77 1.77l1-.38c.29-.11.56-.25.84-.37l-.89-.45a13.89 13.89 0 0 0-5.69-2.1 13.46 13.46 0 0 0-5.62 1.42 13.63 13.63 0 0 1-4.9 1.36 13.63 13.63 0 0 1-4.9-1.36 13.76 13.76 0 0 0-5.69-1.43 13.93 13.93 0 0 0-5.68 2.1l-.89.46c.28.12.56.26.84.37l1 .38a11.86 11.86 0 0 1 4.81-1.77Z" fill="#78dce8"/></svg>