<?xml version="1.0" standalone="no"?>
<!DOCTYPE svg PUBLIC "-//W3C//DTD SVG 1.1//EN" "http://www.w3.org/Graphics/SVG/1.1/DTD/svg11.dtd">
<svg t="1687090801402" class="icon" viewBox="0 0 1024 1024" version="1.1"
  xmlns="http://www.w3.org/2000/svg" p-id="9164" data-spm-anchor-id="a313x.7781069.0.i9"
  xmlns:xlink="http://www.w3.org/1999/xlink" width="200" height="200">
  <defs>
    <filter id="blur-filter" x="0" y="0" width="100%" height="100%">
      <feGaussianBlur in="SourceGraphic" stdDeviation="5" />
    </filter>
    <radialGradient id="gradient" cx="50%" cy="50%" r="50%" fx="50%" fy="50%">
      <stop offset="0%" style="stop-color: #85c8c8" />
      <stop offset="100%" style="stop-color: #0e2a33" />
    </radialGradient>
  </defs>
  <rect x="0" y="0" width="100%" height="100%" rx="512" ry="512" fill="url(#gradient)" filter="url(#blur-filter)" />
  <g transform="scale(0.7) translate(250, 250)">
    <path d="M413.866667 853.333333c-14.933333 0-32-6.4-44.8-17.066666L61.866667 533.333333c-12.8-10.666667-19.2-25.6-19.2-42.666666s6.4-32 19.2-42.666667l110.933333-108.8c23.466667-23.466667 64-23.466667 87.466667 0L567.466667 640c12.8 10.666667 19.2 27.733333 19.2 42.666667 0 17.066667-6.4 32-19.2 42.666666l-110.933334 108.8c-10.666667 12.8-27.733333 19.2-42.666666 19.2z m-198.4-490.666666c-4.266667 0-10.666667 2.133333-14.933334 6.4l-110.933333 108.8c-2.133333 4.266667-4.266667 8.533333-4.266667 12.8s2.133333 8.533333 6.4 12.8l309.333334 300.8c8.533333 8.533333 19.2 8.533333 27.733333 0l110.933333-108.8c4.266667-4.266667 6.4-8.533333 6.4-12.8 0-4.266667-2.133333-8.533333-6.4-12.8L230.4 369.066667c-4.266667-4.266667-8.533333-6.4-14.933333-6.4z" fill="#002c37" p-id="13615"></path>
    <path d="M413.866667 853.333333c-14.933333 0-32-6.4-44.8-17.066666l-110.933334-108.8c-12.8-10.666667-19.2-27.733333-19.2-42.666667 0-17.066667 6.4-32 19.2-42.666667L763.733333 145.066667c23.466667-23.466667 64-23.466667 87.466667 0l110.933333 108.8c12.8 10.666667 19.2 27.733333 19.2 42.666666s-6.4 32-19.2 42.666667L456.533333 836.266667c-10.666667 10.666667-27.733333 17.066667-42.666666 17.066666zM808.533333 170.666667c-4.266667 0-10.666667 2.133333-14.933333 6.4L288 669.866667c-4.266667 4.266667-6.4 8.533333-6.4 12.8 0 4.266667 2.133333 8.533333 6.4 12.8l110.933333 108.8c8.533333 8.533333 19.2 8.533333 27.733334 0l505.6-494.933334c4.266667-4.266667 6.4-8.533333 6.4-12.8s-2.133333-8.533333-6.4-12.8l-110.933334-108.8c-4.266667-2.133333-8.533333-4.266667-12.8-4.266666z" fill="#002c37" p-id="13616"></path>
  </g>
  <text x="900" y="1000" font-family="Verdana" font-size="30" fill="#84bebf">
    b-yp
  </text>
</svg>