<svg width="300" height="300" viewBox="0 0 30 30" fill="none" xmlns="http://www.w3.org/2000/svg" class="ednwsl34">
  <rect width="30" height="30" fill="#0D0D0D"></rect>
  <rect width="30" height="30" fill="#0D0D0D"></rect>
  <path fill-rule="evenodd" clip-rule="evenodd" d="M9.84397 7.71374L14.9855 14.9118L20.127 7.71374L23.3691 20.6822L22.1878 20.9776L19.5852 10.5672L14.9855 17.0068L10.3857 10.5672L7.78314 20.9776L6.60184 20.6822L9.84397 7.71374Z" fill="white"></path>
  <path d="M16.9338 15.9595C16.9338 17.0355 16.0615 17.9078 14.9856 17.9078C13.9096 17.9078 13.0373 17.0355 13.0373 15.9595C13.0373 14.8835 13.9096 14.0113 14.9856 14.0113C16.0615 14.0113 16.9338 14.8835 16.9338 15.9595Z" fill="white"></path>
  <path d="M12.0632 9.14063C12.0632 10.2166 11.1909 11.0889 10.115 11.0889C9.03897 11.0889 8.16672 10.2166 8.16672 9.14063C8.16672 8.06464 9.03897 7.19238 10.115 7.19238C11.1909 7.19238 12.0632 8.06464 12.0632 9.14063Z" fill="white"></path>
  <path d="M24.7265 20.8301C24.7265 19.7541 23.8542 18.8819 22.7782 18.8819C21.7022 18.8819 20.83 19.7541 20.83 20.8301C20.83 21.9061 21.7022 22.7783 22.7782 22.7783C23.8542 22.7783 24.7265 21.9061 24.7265 20.8301Z" fill="white"></path>
  <path d="M9.14063 20.8301C9.14063 19.7541 8.26837 18.8819 7.19238 18.8819C6.1164 18.8819 5.24414 19.7541 5.24414 20.8301C5.24414 21.9061 6.1164 22.7783 7.19238 22.7783C8.26837 22.7783 9.14063 21.9061 9.14063 20.8301Z" fill="white"></path>
  <path d="M17.9079 9.14063C17.9079 10.2166 18.7802 11.0889 19.8562 11.0889C20.9322 11.0889 21.8044 10.2166 21.8044 9.14063C21.8044 8.06464 20.9322 7.19238 19.8562 7.19238C18.7802 7.19238 17.9079 8.06464 17.9079 9.14063Z" fill="white"></path>
</svg>