<?xml version="1.0" encoding="UTF-8"?>
<svg width="100px" height="100px" viewBox="0 0 100 100" version="1.1" xmlns="http://www.w3.org/2000/svg" xmlns:xlink="http://www.w3.org/1999/xlink">
    <title>Artboard</title>
    <g id="Artboard" stroke="none" stroke-width="1" fill="none" fill-rule="evenodd">
        <rect fill="#FFFFFF" x="0" y="0" width="100" height="100"></rect>
        <g id="logo" transform="translate(4.000000, 11.000000)" fill="#A8C2F8" fill-rule="nonzero">
            <path d="M73,69.5 L73,74.5 C73,76.7 71.1,78 68.9,78 L3.6,78 C1.4,78 0,76.8 0,74.5 L0,25.1 C0,22.9 1.4,20.9 3.6,20.9 L15.3,20.9 C17.5,20.9 19.3,22.7 19.3,24.9 C19.3,27.1 17.5,28.9 15.3,28.9 L8,28.9 L8,70 L65,70 L65,69.5 C65,67.3 66.8,65.5 69,65.5 C71.2,65.5 73,67.3 73,69.5 Z M90.8,32.2 L66,57.5 C64.8,58.7 63.1,59 61.6,58.4 C60,57.7 59,56.3 59,54.6 L59,43.7 C51,43.5 31.8,44.3 24.8,56.6 C24.1,57.9 22.7,58.7 21.3,58.7 C21,58.7 20.6,58.7 20.3,58.6 C18.5,58.1 17.3,56.5 17.3,54.7 C17.3,54.1 17.3,38.6 28.9,27.1 C36.2,19.6 46,15.6 59,14.9 L59,4 C59,2.4 60,0.9 61.5,0.3 C63.1,-0.3 64.8,0 66,1.2 L90.9,26.5 C92.4,28.1 92.4,30.6 90.8,32.2 Z M82.2,29.3 L67,13.9 L67,18.8 C67,21 65.3,22.8 63,22.8 C50.6,22.8 41.1,26.1 34.6,32.7 C31.6,35.7 29.6,39 28.3,42.2 C37.7,36.6 49.6,35.6 56.9,35.6 C60.7,35.6 63.2,35.9 63.5,35.9 C65.5,36.1 67,37.9 67,39.9 L67,44.8 L82.2,29.3 Z" id="XMLID_1022_"></path>
        </g>
    </g>
</svg>