<!--?xml version="1.0" encoding="utf-8"?-->
<!-- Generator: Adobe Illustrator 18.1.1, SVG Export Plug-In . SVG Version: 6.00 Build 0)  -->

<svg version="1.1" id="_x32_" xmlns="http://www.w3.org/2000/svg" xmlns:xlink="http://www.w3.org/1999/xlink" x="0px" y="0px" viewBox="0 0 512 512" style="width: 48px; height: 48px; opacity: 1;" xml:space="preserve">
<style type="text/css">
	.st0{fill:#4B4B4B;}
</style>
<g>
	<path class="st0" d="M396.479,129.478c0.034,0,0.084,0,0.118,0l0.763-0.041L396.479,129.478z" style="fill: rgb(149, 136, 136);"></path>
	<path class="st0" d="M433.132,143.576c-9.077-9.102-21.381-14.165-34.163-14.156c-0.855-0.008-1.626,0.025-2.372,0.058
		l-9.731,0.495c2.993-22.095,4.745-43.308,5.507-56.92c0.461-8.516,0.252-17.182-0.905-25.53
		c-1.148-8.331-3.236-16.353-6.681-23.536c-2.296-4.777-5.238-9.202-9.002-12.95c-2.958-2.975-6.437-5.514-10.368-7.35
		c-3.94-1.878-8.314-3.068-12.966-3.504c-3.11-0.285-6.345-0.235-9.706,0.134c-5.858,0.662-11.256,2.129-16.126,4.4
		c-4.879,2.254-9.162,5.322-12.799,8.952c-4.116,4.123-7.376,8.96-9.907,14.241c-2.548,5.28-4.376,11.03-5.616,17.064
		c-2.482,12.086-2.716,25.456-1.4,39.335c2.112,22.22,3.604,39.478,4.492,50.014l-26.846,1.358
		c-11.952,0.62-23.251,5.649-31.699,14.098l-163.97,163.97c-9.412,9.404-14.174,21.834-14.165,34.155
		c-0.017,12.321,4.735,24.759,14.132,34.163l0.025,0.008L194.641,497.86c9.413,9.397,21.826,14.157,34.155,14.14
		c12.313,0.016,24.751-4.744,34.155-14.14l163.979-163.986c8.465-8.458,13.477-19.764,14.098-31.7l6.194-122.003
		c0.034-0.813,0.075-1.627,0.067-2.448C447.297,164.966,442.227,152.653,433.132,143.576z M314.181,82.65
		c-0.906-9.446-0.981-18.44-0.076-26.478c0.871-8.055,2.716-15.103,5.431-20.745c1.81-3.771,4.006-6.923,6.555-9.48
		c2.271-2.271,4.844-4.082,7.862-5.498c3.025-1.416,6.546-2.413,10.711-2.875c3.436-0.385,6.337-0.234,8.809,0.277
		c2.489,0.519,4.576,1.391,6.488,2.582c1.249,0.804,2.438,1.743,3.562,2.866c2.112,2.121,4.015,4.878,5.632,8.231
		c1.618,3.345,2.934,7.284,3.914,11.609c1.961,8.658,2.54,18.858,1.961,28.941c-0.561,10.285-1.734,25.296-3.621,41.623
		c-1.852,16.336-4.45,34.022-7.828,49.569c-2.254,10.376-4.852,19.832-7.702,27.157c-1.618,4.191-3.319,7.661-4.928,10.142
		c-0.821,1.316-1.693,2.381-2.456,3.152c-0.704,0.696-1.324,1.157-1.81,1.433c-0.512,0.276-0.846,0.378-1.082,0.419
		c-0.176,0.034-0.301,0.034-0.486,0.026c-0.244-0.042-0.545-0.101-1.065-0.344c-0.662-0.31-1.65-0.964-2.892-2.196
		c-1.19-1.199-2.606-3.067-4.098-5.398c2.053-0.688,4.149-1.232,6.278-1.509c0.554-1.215,1.09-2.523,1.635-3.915
		c2.858-7.308,5.464-16.754,7.702-27.122c2.306-10.628,4.224-22.212,5.834-33.686l-39.788,2.011
		C317.851,122.907,316.335,105.381,314.181,82.65z M116.407,341.693l47.332-47.357l9.873,9.866l-47.348,47.34L116.407,341.693z
		 M135.803,361.08l47.348-47.331l14.014,14.014l-47.356,47.331L135.803,361.08z M159.363,384.649l47.34-47.356l9.857,9.857
		l-47.34,47.348L159.363,384.649z M189.663,414.94l-7.787-7.778l47.34-47.349l7.786,7.787L189.663,414.94z M200.249,425.526
		l47.348-47.331l13.997,13.997l-47.339,47.34L200.249,425.526z M233.657,458.936l-9.856-9.865l47.34-47.332l9.857,9.857
		L233.657,458.936z M371.084,252.638c-12.983,13.009-34.022,13.009-47.022,0.008c-12.455-12.455-12.832-32.277-1.374-45.336
		c1.953,3.059,3.982,5.792,6.202,8.021c1.996,1.995,4.116,3.662,6.421,4.937c2.304,1.282,4.819,2.146,7.376,2.498
		c1.718,0.243,3.453,0.243,5.129,0.008c2.23-0.277,4.342-0.965,6.252-1.911c2.557-1.258,4.761-2.942,6.689-4.879
		c1.811-1.81,3.387-3.838,4.786-6.026c1.224-1.903,2.348-3.948,3.403-6.11c0.712,0.595,1.467,1.098,2.138,1.768
		C384.075,218.634,384.075,239.672,371.084,252.638z" style="fill: rgb(149, 136, 136);"></path>
</g>
</svg>
