<svg width="474" height="474" viewBox="0 0 474 474" fill="none" xmlns="http://www.w3.org/2000/svg">
    <path d="M474 0H0V474H474V0Z" fill="black"/>
    <path fill-rule="evenodd" clip-rule="evenodd" d="M378.205 363.375C361.533 361.395 353.381 355.868 343.387 339.242L286.693 247.086C328.926 239.993 349.881 219.406 349.881 176.299C349.881 119.328 309.629 103.117 232.578 103.117H104.775V119.743C129.23 121.723 134.066 124.487 134.066 147.422V335.742C134.066 358.263 128.493 361.441 104.775 363.421V380.047H228.94V363.421C205.221 361.441 199.649 358.309 199.649 335.742V251.461H218.9L295.95 380.001H378.205V363.375ZM285.271 201.631C285.271 201.631 275.231 144.983 281.724 132.962L198.641 225.119C218.997 208.171 280.435 207.894 280.435 207.894C283.382 207.249 285.409 204.624 285.271 201.631Z" fill="white"/>
</svg>