<?xml version="1.0" encoding="UTF-8"?>
<svg version="1.1" xmlns="http://www.w3.org/2000/svg" width="482" height="484">
<path d="M0 0 C159.06 0 318.12 0 482 0 C482 159.72 482 319.44 482 484 C322.94 484 163.88 484 0 484 C0 324.28 0 164.56 0 0 Z " fill="#0E2934" transform="translate(0,0)"/>
<path d="M0 0 C2.71155585 0.02402456 5.42215071 0.02047878 8.13378906 0.01391602 C9.87077408 0.01948135 11.60775501 0.02658396 13.34472656 0.03540039 C14.14883972 0.03448898 14.95295288 0.03357758 15.78143311 0.03263855 C19.67865232 0.08224343 22.58153354 0.26057605 25.92285156 2.33618164 C28.19997025 2.60789825 28.19997025 2.60789825 30.67285156 2.64868164 C41.29960705 3.44747132 51.59693965 7.32782154 60.92285156 12.33618164 C62.90821783 13.04524102 64.90357645 13.73039911 66.92285156 14.33618164 C66.92285156 14.99618164 66.92285156 15.65618164 66.92285156 16.33618164 C67.91285156 16.33618164 68.90285156 16.33618164 69.92285156 16.33618164 C69.92285156 16.99618164 69.92285156 17.65618164 69.92285156 18.33618164 C71.90285156 18.33618164 73.88285156 18.33618164 75.92285156 18.33618164 C76.25285156 19.32618164 76.58285156 20.31618164 76.92285156 21.33618164 C79.89285156 21.66618164 82.86285156 21.99618164 85.92285156 22.33618164 C85.92285156 22.99618164 85.92285156 23.65618164 85.92285156 24.33618164 C86.91285156 24.33618164 87.90285156 24.33618164 88.92285156 24.33618164 C88.92285156 25.32618164 88.92285156 26.31618164 88.92285156 27.33618164 C89.91285156 27.33618164 90.90285156 27.33618164 91.92285156 27.33618164 C92.25285156 28.98618164 92.58285156 30.63618164 92.92285156 32.33618164 C93.56222656 32.45993164 94.20160156 32.58368164 94.86035156 32.71118164 C95.54097656 32.91743164 96.22160156 33.12368164 96.92285156 33.33618164 C97.25285156 33.99618164 97.58285156 34.65618164 97.92285156 35.33618164 C99.58564483 36.34260915 101.2526864 37.34203571 102.92285156 38.33618164 C104.73535156 39.89868164 104.73535156 39.89868164 105.92285156 41.33618164 C105.92285156 41.99618164 105.92285156 42.65618164 105.92285156 43.33618164 C106.58285156 43.33618164 107.24285156 43.33618164 107.92285156 43.33618164 C112.80800783 47.24430665 115.38679236 52.36152854 118.37207031 57.78930664 C119.67216122 60.43223957 119.67216122 60.43223957 121.92285156 61.33618164 C123.80471159 64.36806724 123.92285156 65.58135519 123.92285156 69.33618164 C124.91285156 69.33618164 125.90285156 69.33618164 126.92285156 69.33618164 C126.92285156 71.31618164 126.92285156 73.29618164 126.92285156 75.33618164 C127.58285156 75.33618164 128.24285156 75.33618164 128.92285156 75.33618164 C128.9834375 76.17922852 129.04402344 77.02227539 129.10644531 77.89086914 C129.23212891 79.53442383 129.23212891 79.53442383 129.36035156 81.21118164 C129.4415625 82.30172852 129.52277344 83.39227539 129.60644531 84.51586914 C129.7528686 87.28347135 129.7528686 87.28347135 130.92285156 89.33618164 C131.16434701 92.47562246 131.11319093 95.62596332 131.11035156 98.77368164 C131.10914307 100.12888916 131.10914307 100.12888916 131.10791016 101.51147461 C130.95411855 118.30491465 130.95411855 118.30491465 126.92285156 122.33618164 C126.20435025 123.89667668 125.54411441 125.48448836 124.92285156 127.08618164 C124.40464844 128.42036133 124.40464844 128.42036133 123.87597656 129.78149414 C122.82008601 132.61162701 121.83250129 135.45562418 120.92285156 138.33618164 C119.93285156 138.33618164 118.94285156 138.33618164 117.92285156 138.33618164 C117.65472656 138.87243164 117.38660156 139.40868164 117.11035156 139.96118164 C116.71847656 140.74493164 116.32660156 141.52868164 115.92285156 142.33618164 C115.24222656 143.82118164 115.24222656 143.82118164 114.54785156 145.33618164 C112.94401998 148.29710149 111.27823575 149.98079745 108.92285156 152.33618164 C108.51035156 153.36743164 108.09785156 154.39868164 107.67285156 155.46118164 C105.69648644 158.7080672 105.23615388 158.8498243 101.73535156 159.71118164 C100.47722656 159.91743164 99.21910156 160.12368164 97.92285156 160.33618164 C97.81972656 160.97555664 97.71660156 161.61493164 97.61035156 162.27368164 C97.38347656 162.95430664 97.15660156 163.63493164 96.92285156 164.33618164 C95.93285156 164.66618164 94.94285156 164.99618164 93.92285156 165.33618164 C93.92285156 165.99618164 93.92285156 166.65618164 93.92285156 167.33618164 C92.93285156 167.33618164 91.94285156 167.33618164 90.92285156 167.33618164 C90.59285156 168.32618164 90.26285156 169.31618164 89.92285156 170.33618164 C89.26285156 170.33618164 88.60285156 170.33618164 87.92285156 170.33618164 C87.92285156 170.99618164 87.92285156 171.65618164 87.92285156 172.33618164 C86.72660156 172.74868164 85.53035156 173.16118164 84.29785156 173.58618164 C81.35985766 174.66723925 79.41644285 175.69066774 76.79785156 177.52368164 C73.52147741 179.58922187 71.72110446 179.69792001 67.92285156 179.33618164 C67.84421875 179.95493164 67.76558594 180.57368164 67.68457031 181.21118164 C66.92285156 183.33618164 66.92285156 183.33618164 65.12988281 184.46118164 C64.3396875 184.74993164 63.54949219 185.03868164 62.73535156 185.33618164 C61.39537109 185.82731445 61.39537109 185.82731445 60.02832031 186.32836914 C55.39888294 187.83075259 50.72482643 189.1454079 46.02441406 190.40649414 C43.07124319 191.16820784 43.07124319 191.16820784 41.16479492 192.32470703 C30.77493833 197.01219215 16.27837738 195.62294345 5.1081543 195.54199219 C2.43626689 195.52333897 -0.23527982 195.52148594 -2.90722656 195.52172852 C-4.60840146 195.51682576 -6.30957402 195.51100296 -8.01074219 195.50415039 C-8.80846542 195.50303757 -9.60618866 195.50192474 -10.42808533 195.5007782 C-15.96096693 195.45236314 -15.96096693 195.45236314 -17.07714844 194.33618164 C-19.5920436 194.05224186 -22.10704426 193.88806924 -24.63183594 193.71508789 C-27.07714844 193.33618164 -27.07714844 193.33618164 -30.07714844 191.33618164 C-32.06684794 190.94604448 -34.06734713 190.60415515 -36.07714844 190.33618164 C-36.05358276 191.4154895 -36.05358276 191.4154895 -36.02954102 192.51660156 C-35.64793425 212.63226949 -35.3234873 231.93417501 -50.10058594 247.59008789 C-63.05032576 259.02987781 -78.22308475 259.49886491 -94.68212891 259.46557617 C-96.3188858 259.46820465 -96.3188858 259.46820465 -97.9887085 259.47088623 C-101.55726768 259.47524866 -105.12577634 259.47238623 -108.69433594 259.46899414 C-111.19955454 259.46966889 -113.70477308 259.47064034 -116.20999146 259.47189331 C-122.11447008 259.47355023 -128.01893073 259.47007607 -133.92340672 259.46474254 C-138.60698545 259.46099199 -143.29054315 259.46231439 -147.97412109 259.46655273 C-154.47188038 259.47237977 -160.9696195 259.47324398 -167.46738052 259.46999741 C-169.92871226 259.46933484 -172.39004487 259.47013289 -174.85137558 259.47247696 C-217.08496015 259.50387356 -217.08496015 259.50387356 -231.07714844 246.33618164 C-240.46823125 236.65740702 -243.08129317 223.50771028 -243.62695312 210.52172852 C-243.66892193 209.55277397 -243.71089073 208.58381943 -243.75413132 207.58550262 C-244.19883038 196.51442967 -244.26042229 185.44607279 -244.28027344 174.36743164 C-244.28310081 173.27975998 -244.28592819 172.19208832 -244.28884125 171.07145691 C-244.30365692 165.33645399 -244.31300203 159.60147517 -244.31738281 153.86645508 C-244.32290174 147.99206985 -244.34705208 142.11791234 -244.37535477 136.24359894 C-244.39405814 131.67251948 -244.39919042 127.10149473 -244.40071869 122.53038025 C-244.40371851 120.36489084 -244.411655 118.19940176 -244.42490387 116.03395081 C-244.53138935 97.32603771 -243.92460885 79.80992017 -230.37011719 65.44165039 C-223.21057635 58.86755753 -215.56878645 55.18612608 -206.07714844 53.33618164 C-205.2254306 53.16304947 -204.37371277 52.9899173 -203.4961853 52.8115387 C-199.22686685 52.21796491 -195.07150735 52.20460679 -190.76708984 52.22265625 C-189.84937805 52.22251022 -188.93166626 52.2223642 -187.98614502 52.22221375 C-184.96697589 52.2229078 -181.94786923 52.23067641 -178.92871094 52.23852539 C-176.82978346 52.24039137 -174.73085556 52.24181443 -172.63192749 52.24281311 C-167.11805002 52.2466241 -161.60419906 52.25644226 -156.09033203 52.26751709 C-150.45963906 52.27776172 -144.8289418 52.28231727 -139.19824219 52.28735352 C-128.15786599 52.29806582 -117.11750942 52.31512519 -106.07714844 52.33618164 C-105.78066406 51.74321289 -105.48417969 51.15024414 -105.17871094 50.53930664 C-103.81152344 47.80493164 -102.44433594 45.07055664 -101.07714844 42.33618164 C-100.41714844 42.33618164 -99.75714844 42.33618164 -99.07714844 42.33618164 C-99.07714844 41.67618164 -99.07714844 41.01618164 -99.07714844 40.33618164 C-98.41714844 40.33618164 -97.75714844 40.33618164 -97.07714844 40.33618164 C-97.07714844 39.34618164 -97.07714844 38.35618164 -97.07714844 37.33618164 C-96.08714844 37.33618164 -95.09714844 37.33618164 -94.07714844 37.33618164 C-94.07714844 36.67618164 -94.07714844 36.01618164 -94.07714844 35.33618164 C-92.43261719 33.71508789 -92.43261719 33.71508789 -90.26464844 31.89868164 C-87.28399132 29.39366195 -87.28399132 29.39366195 -84.50292969 26.67602539 C-83.07714844 25.33618164 -83.07714844 25.33618164 -80.07714844 24.33618164 C-79.74714844 23.67618164 -79.41714844 23.01618164 -79.07714844 22.33618164 C-77.41360054 21.66177033 -75.74647902 20.99614954 -74.07714844 20.33618164 C-73.37589844 19.79993164 -72.67464844 19.26368164 -71.95214844 18.71118164 C-70.07714844 17.33618164 -70.07714844 17.33618164 -67.07714844 17.33618164 C-67.07714844 16.67618164 -67.07714844 16.01618164 -67.07714844 15.33618164 C-66.43777344 15.21243164 -65.79839844 15.08868164 -65.13964844 14.96118164 C-64.45902344 14.75493164 -63.77839844 14.54868164 -63.07714844 14.33618164 C-62.74714844 13.67618164 -62.41714844 13.01618164 -62.07714844 12.33618164 C-59.74905301 11.65144769 -57.41477067 10.98765013 -55.07714844 10.33618164 C-54.1503125 9.86051758 -53.22347656 9.38485352 -52.26855469 8.89477539 C-48.93376579 7.26615756 -45.78906839 6.27804246 -42.20214844 5.33618164 C-41.04972656 5.02680664 -39.89730469 4.71743164 -38.70996094 4.39868164 C-37.16757499 4.03639441 -35.62293193 3.6836868 -34.07714844 3.33618164 C-32.97306641 3.07812744 -31.86898437 2.82007324 -30.73144531 2.55419922 C-20.43256231 0.36002714 -10.51316488 -0.09985762 0 0 Z " fill="#CA5243" transform="translate(269.0771484375,195.663818359375)"/>
<path d="M0 0 C2.71155585 0.02402456 5.42215071 0.02047878 8.13378906 0.01391602 C9.87077408 0.01948135 11.60775501 0.02658396 13.34472656 0.03540039 C14.14883972 0.03448898 14.95295288 0.03357758 15.78143311 0.03263855 C19.67865232 0.08224343 22.58153354 0.26057605 25.92285156 2.33618164 C28.19997025 2.60789825 28.19997025 2.60789825 30.67285156 2.64868164 C41.29960705 3.44747132 51.59693965 7.32782154 60.92285156 12.33618164 C62.90821783 13.04524102 64.90357645 13.73039911 66.92285156 14.33618164 C66.92285156 14.99618164 66.92285156 15.65618164 66.92285156 16.33618164 C67.91285156 16.33618164 68.90285156 16.33618164 69.92285156 16.33618164 C69.92285156 16.99618164 69.92285156 17.65618164 69.92285156 18.33618164 C71.90285156 18.33618164 73.88285156 18.33618164 75.92285156 18.33618164 C76.25285156 19.32618164 76.58285156 20.31618164 76.92285156 21.33618164 C79.89285156 21.66618164 82.86285156 21.99618164 85.92285156 22.33618164 C85.92285156 22.99618164 85.92285156 23.65618164 85.92285156 24.33618164 C86.91285156 24.33618164 87.90285156 24.33618164 88.92285156 24.33618164 C88.92285156 25.32618164 88.92285156 26.31618164 88.92285156 27.33618164 C89.91285156 27.33618164 90.90285156 27.33618164 91.92285156 27.33618164 C92.25285156 28.98618164 92.58285156 30.63618164 92.92285156 32.33618164 C93.88191406 32.52180664 93.88191406 32.52180664 94.86035156 32.71118164 C95.88128906 33.02055664 95.88128906 33.02055664 96.92285156 33.33618164 C97.25285156 33.99618164 97.58285156 34.65618164 97.92285156 35.33618164 C99.58564483 36.34260915 101.2526864 37.34203571 102.92285156 38.33618164 C104.73535156 39.89868164 104.73535156 39.89868164 105.92285156 41.33618164 C105.92285156 41.99618164 105.92285156 42.65618164 105.92285156 43.33618164 C106.58285156 43.33618164 107.24285156 43.33618164 107.92285156 43.33618164 C112.80800783 47.24430665 115.38679236 52.36152854 118.37207031 57.78930664 C119.67216122 60.43223957 119.67216122 60.43223957 121.92285156 61.33618164 C123.80471159 64.36806724 123.92285156 65.58135519 123.92285156 69.33618164 C124.91285156 69.33618164 125.90285156 69.33618164 126.92285156 69.33618164 C126.92285156 71.31618164 126.92285156 73.29618164 126.92285156 75.33618164 C127.58285156 75.33618164 128.24285156 75.33618164 128.92285156 75.33618164 C128.9834375 76.17922852 129.04402344 77.02227539 129.10644531 77.89086914 C129.19023437 78.98657227 129.27402344 80.08227539 129.36035156 81.21118164 C129.4415625 82.30172852 129.52277344 83.39227539 129.60644531 84.51586914 C129.7528686 87.28347135 129.7528686 87.28347135 130.92285156 89.33618164 C131.16434701 92.47562246 131.11319093 95.62596332 131.11035156 98.77368164 C131.1095459 99.67715332 131.10874023 100.580625 131.10791016 101.51147461 C130.95411855 118.30491465 130.95411855 118.30491465 126.92285156 122.33618164 C126.20435025 123.89667668 125.54411441 125.48448836 124.92285156 127.08618164 C124.57738281 127.97563477 124.23191406 128.86508789 123.87597656 129.78149414 C122.82008601 132.61162701 121.83250129 135.45562418 120.92285156 138.33618164 C119.93285156 138.33618164 118.94285156 138.33618164 117.92285156 138.33618164 C117.65472656 138.87243164 117.38660156 139.40868164 117.11035156 139.96118164 C116.71847656 140.74493164 116.32660156 141.52868164 115.92285156 142.33618164 C115.46910156 143.32618164 115.01535156 144.31618164 114.54785156 145.33618164 C112.94401998 148.29710149 111.27823575 149.98079745 108.92285156 152.33618164 C108.51035156 153.36743164 108.09785156 154.39868164 107.67285156 155.46118164 C105.69648644 158.7080672 105.23615388 158.8498243 101.73535156 159.71118164 C100.47722656 159.91743164 99.21910156 160.12368164 97.92285156 160.33618164 C97.76816406 161.29524414 97.76816406 161.29524414 97.61035156 162.27368164 C97.38347656 162.95430664 97.15660156 163.63493164 96.92285156 164.33618164 C95.93285156 164.66618164 94.94285156 164.99618164 93.92285156 165.33618164 C93.92285156 165.99618164 93.92285156 166.65618164 93.92285156 167.33618164 C92.93285156 167.33618164 91.94285156 167.33618164 90.92285156 167.33618164 C90.59285156 168.32618164 90.26285156 169.31618164 89.92285156 170.33618164 C89.26285156 170.33618164 88.60285156 170.33618164 87.92285156 170.33618164 C87.92285156 170.99618164 87.92285156 171.65618164 87.92285156 172.33618164 C86.12847656 172.95493164 86.12847656 172.95493164 84.29785156 173.58618164 C81.35985766 174.66723925 79.41644285 175.69066774 76.79785156 177.52368164 C73.52147741 179.58922187 71.72110446 179.69792001 67.92285156 179.33618164 C67.849375 179.95364258 67.77589844 180.57110352 67.70019531 181.20727539 C66.92285156 183.33618164 66.92285156 183.33618164 64.98925781 184.49633789 C64.16296875 184.79411133 63.33667969 185.09188477 62.48535156 185.39868164 C61.5765625 185.72739258 60.66777344 186.05610352 59.73144531 186.39477539 C58.34119141 186.86077148 58.34119141 186.86077148 56.92285156 187.33618164 C56.10945312 187.6159082 55.29605469 187.89563477 54.45800781 188.18383789 C44.71989166 191.32465655 34.81877203 192.48539364 24.63769531 193.09008789 C21.82897186 193.24009049 21.82897186 193.24009049 18.92285156 194.33618164 C16.3261757 194.46364404 13.77002672 194.52593467 11.17285156 194.52368164 C10.40021973 194.52432617 9.62758789 194.5249707 8.83154297 194.52563477 C-1.51007643 194.43600876 -11.79467362 193.37020425 -22.07714844 192.33618164 C-22.07714844 191.67618164 -22.07714844 191.01618164 -22.07714844 190.33618164 C-22.92019531 190.2755957 -23.76324219 190.21500977 -24.63183594 190.15258789 C-25.72753906 190.06879883 -26.82324219 189.98500977 -27.95214844 189.89868164 C-29.58796875 189.77686523 -29.58796875 189.77686523 -31.25683594 189.65258789 C-34.07714844 189.33618164 -34.07714844 189.33618164 -36.07714844 188.33618164 C-36.08523529 187.23752274 -36.09332214 186.13886383 -36.10165405 185.00691223 C-36.17944811 174.60654854 -36.2672687 164.20631034 -36.36467552 153.80611134 C-36.41442625 148.4604478 -36.46075664 143.11480202 -36.49902344 137.76904297 C-36.53614623 132.60125335 -36.58257604 127.43362048 -36.63521194 122.26596642 C-36.65361354 120.30344099 -36.66877281 118.34088214 -36.6804924 116.37830544 C-36.56554547 89.88355569 -36.56554547 89.88355569 -49.07714844 67.33618164 C-62.60812855 55.06673651 -77.0674192 53.41249353 -94.57714844 52.77368164 C-95.68574219 52.73049805 -96.79433594 52.68731445 -97.93652344 52.64282227 C-100.6499635 52.5375595 -103.36348261 52.43542318 -106.07714844 52.33618164 C-104.41048177 49.00284831 -102.7438151 45.66951497 -101.07714844 42.33618164 C-100.41714844 42.33618164 -99.75714844 42.33618164 -99.07714844 42.33618164 C-99.07714844 41.67618164 -99.07714844 41.01618164 -99.07714844 40.33618164 C-98.41714844 40.33618164 -97.75714844 40.33618164 -97.07714844 40.33618164 C-97.07714844 39.34618164 -97.07714844 38.35618164 -97.07714844 37.33618164 C-96.08714844 37.33618164 -95.09714844 37.33618164 -94.07714844 37.33618164 C-94.07714844 36.67618164 -94.07714844 36.01618164 -94.07714844 35.33618164 C-92.43261719 33.71508789 -92.43261719 33.71508789 -90.26464844 31.89868164 C-87.28399132 29.39366195 -87.28399132 29.39366195 -84.50292969 26.67602539 C-83.07714844 25.33618164 -83.07714844 25.33618164 -80.07714844 24.33618164 C-79.74714844 23.67618164 -79.41714844 23.01618164 -79.07714844 22.33618164 C-77.41360054 21.66177033 -75.74647902 20.99614954 -74.07714844 20.33618164 C-73.37589844 19.79993164 -72.67464844 19.26368164 -71.95214844 18.71118164 C-70.07714844 17.33618164 -70.07714844 17.33618164 -67.07714844 17.33618164 C-67.07714844 16.67618164 -67.07714844 16.01618164 -67.07714844 15.33618164 C-66.43777344 15.21243164 -65.79839844 15.08868164 -65.13964844 14.96118164 C-64.45902344 14.75493164 -63.77839844 14.54868164 -63.07714844 14.33618164 C-62.74714844 13.67618164 -62.41714844 13.01618164 -62.07714844 12.33618164 C-59.74905301 11.65144769 -57.41477067 10.98765013 -55.07714844 10.33618164 C-53.68689453 9.62268555 -53.68689453 9.62268555 -52.26855469 8.89477539 C-48.93376579 7.26615756 -45.78906839 6.27804246 -42.20214844 5.33618164 C-41.04972656 5.02680664 -39.89730469 4.71743164 -38.70996094 4.39868164 C-37.16757499 4.03639441 -35.62293193 3.6836868 -34.07714844 3.33618164 C-32.42102539 2.94910034 -32.42102539 2.94910034 -30.73144531 2.55419922 C-20.43256231 0.36002714 -10.51316488 -0.09985762 0 0 Z " fill="#93C5C6" transform="translate(269.0771484375,195.663818359375)"/>
<path d="M0 0 C1.7624707 0.00773437 1.7624707 0.00773437 3.56054688 0.015625 C12.95787098 0.10149432 12.95787098 0.10149432 16.8125 1.25 C16.8125 2.24 16.8125 3.23 16.8125 4.25 C19.7825 5.24 22.7525 6.23 25.8125 7.25 C25.8125 7.91 25.8125 8.57 25.8125 9.25 C26.369375 9.3325 26.92625 9.415 27.5 9.5 C30.54045754 10.48609434 32.44210305 12.13586218 34.8125 14.25 C35.3075 15.24 35.3075 15.24 35.8125 16.25 C37.235625 16.6521875 37.235625 16.6521875 38.6875 17.0625 C42.49319537 18.50866424 43.06161176 19.66484788 44.8125 23.25 C46.65309081 26.94322589 46.65309081 26.94322589 49.875 29.25 C51.8125 30.25 51.8125 30.25 52.9375 32.375 C53.65839791 34.74366457 54.28504711 37.09712618 54.875 39.5 C55.41412308 43.02312166 55.41412308 43.02312166 56.8125 44.25 C58.20957537 53.71906638 59.251733 64.87608805 56.8125 74.25 C55 76.3125 55 76.3125 52.8125 78.25 C52.08002367 79.55916479 51.39592675 80.89603816 50.75 82.25 C48.03848642 87.92723157 48.03848642 87.92723157 45.8125 90.25 C44.8225 90.25 43.8325 90.25 42.8125 90.25 C42.3175 91.735 42.3175 91.735 41.8125 93.25 C37.99276448 96.79614565 33.81867786 98.86531251 28.8125 100.25 C27.94753906 100.5903125 27.08257812 100.930625 26.19140625 101.28125 C21.97834178 102.4891575 18.17031201 102.58047777 13.8125 102.5625 C13.03132813 102.57861328 12.25015625 102.59472656 11.4453125 102.61132812 C6.42319486 102.6155555 3.24762467 101.80724674 -1.1875 99.25 C-2.59426369 98.80103287 -4.01087035 98.38116059 -5.4375 98 C-10.20430052 96.48621875 -13.84116633 93.93942509 -17.828125 90.96875 C-20.18519985 89.18016074 -20.18519985 89.18016074 -22.921875 87.71875 C-25.1875 86.25 -25.1875 86.25 -26.1875 83.25 C-28.57322119 80.73173875 -30.97774362 78.4178051 -33.6875 76.25 C-41.18231605 67.25622074 -43.5530075 54.25182407 -43.375 42.8125 C-43.37435547 41.99845703 -43.37371094 41.18441406 -43.37304688 40.34570312 C-43.32834821 34.39084821 -43.32834821 34.39084821 -42.1875 33.25 C-42.125625 32.26 -42.06375 31.27 -42 30.25 C-41.4558789 25.85168777 -39.21101427 22.89186372 -36.66015625 19.36328125 C-35.28189209 17.3854539 -34.20629165 15.43031257 -33.1875 13.25 C-32.5275 13.25 -31.8675 13.25 -31.1875 13.25 C-30.94386719 12.65316406 -30.70023438 12.05632812 -30.44921875 11.44140625 C-28.95281895 8.84239608 -27.50890903 7.80684748 -25 6.1875 C-24.26394531 5.70152344 -23.52789062 5.21554688 -22.76953125 4.71484375 C-14.86529077 0.23059234 -9.07724392 -0.16092621 0 0 Z " fill="#92C4C5" transform="translate(121.1875,94.75)"/>
<path d="M0 0 C1.84927689 1.04915735 1.84927689 1.04915735 4.4296875 1.87109375 C7.5712074 3.31449479 9.482344 5.35091547 11.7421875 7.93359375 C11.7421875 8.59359375 11.7421875 9.25359375 11.7421875 9.93359375 C12.4021875 9.93359375 13.0621875 9.93359375 13.7421875 9.93359375 C16.2215699 16.17632443 17.06204481 21.21659028 16.7421875 27.93359375 C15.7521875 27.93359375 14.7621875 27.93359375 13.7421875 27.93359375 C13.8040625 28.82046875 13.8659375 29.70734375 13.9296875 30.62109375 C13.72154276 34.29831744 12.96012167 36.0332183 10.7421875 38.93359375 C10.0821875 38.93359375 9.4221875 38.93359375 8.7421875 38.93359375 C8.51402344 39.5059375 8.28585937 40.07828125 8.05078125 40.66796875 C6.39129345 43.5411118 4.39929092 45.12619896 1.8046875 47.18359375 C0.92941406 47.89 0.05414063 48.59640625 -0.84765625 49.32421875 C-3.2578125 50.93359375 -3.2578125 50.93359375 -6.2578125 50.93359375 C-6.5878125 51.92359375 -6.9178125 52.91359375 -7.2578125 53.93359375 C-11.01688891 55.55683129 -14.17867463 56.17354304 -18.2578125 55.93359375 C-18.5878125 56.92359375 -18.9178125 57.91359375 -19.2578125 58.93359375 C-26.73436358 61.38747824 -34.37088669 61.27333366 -42.16918945 61.24926758 C-44.31968336 61.24609468 -46.46881458 61.26968158 -48.61914062 61.29492188 C-55.75986926 61.32623406 -61.77481025 61.1287275 -68.2578125 57.93359375 C-68.2578125 57.27359375 -68.2578125 56.61359375 -68.2578125 55.93359375 C-69.340625 56.08828125 -69.340625 56.08828125 -70.4453125 56.24609375 C-74.36756716 55.81028768 -75.55778476 53.70112218 -78.2578125 50.93359375 C-80.93572146 50.06120517 -80.93572146 50.06120517 -83.2578125 49.93359375 C-83.2578125 48.61359375 -83.2578125 47.29359375 -83.2578125 45.93359375 C-83.9178125 45.93359375 -84.5778125 45.93359375 -85.2578125 45.93359375 C-87.89665225 40.10922234 -88.24793663 34.07973852 -86.7578125 27.83984375 C-85.12959588 23.62128252 -82.56252779 20.92357425 -79.2578125 17.93359375 C-76.58601724 15.32393327 -74.33211029 13.04504044 -72.2578125 9.93359375 C-70.19921875 8.546875 -70.19921875 8.546875 -67.8203125 7.24609375 C-67.03785156 6.80910156 -66.25539062 6.37210938 -65.44921875 5.921875 C-63.2578125 4.93359375 -63.2578125 4.93359375 -60.2578125 4.93359375 C-60.2578125 3.94359375 -60.2578125 2.95359375 -60.2578125 1.93359375 C-59.2678125 1.85109375 -58.2778125 1.76859375 -57.2578125 1.68359375 C-54.28885685 1.27469567 -52.17354124 0.46416195 -49.5703125 -1.00390625 C-35.89988247 -8.17827316 -13.41253407 -7.35265422 0 0 Z " fill="#92C4C5" transform="translate(298.2578125,92.06640625)"/>
<path d="M0 0 C159.06 0 318.12 0 482 0 C482 159.72 482 319.44 482 484 C322.94 484 163.88 484 0 484 C0 483.01 0 482.02 0 481 C158.4 481 316.8 481 480 481 C480 322.6 480 164.2 480 1 C321.6 1 163.2 1 0 1 C0 0.67 0 0.34 0 0 Z " fill="#FFFFFF" transform="translate(0,0)"/>
<path d="M0 0 C2.65234375 1.3125 2.65234375 1.3125 4.9375 3 C6.09572266 3.8353125 6.09572266 3.8353125 7.27734375 4.6875 C7.84582031 5.120625 8.41429687 5.55375 9 6 C8.83618164 7.78759766 8.83618164 7.78759766 8 10 C5.69702148 11.70068359 5.69702148 11.70068359 2.62109375 13.3984375 C0.91578491 14.35411621 0.91578491 14.35411621 -0.82397461 15.32910156 C-2.07011695 16.01112763 -3.31629291 16.69309226 -4.5625 17.375 C-5.84010587 18.08672508 -7.11687208 18.79995937 -8.39282227 19.51464844 C-10.3486002 20.60986564 -12.3048596 21.70409801 -14.26383972 22.7935791 C-20.37307087 26.19207289 -26.41058423 29.70774719 -32.4375 33.25 C-40.84195794 38.17063305 -49.2672621 43.0521128 -57.73828125 47.85742188 C-61.58612311 50.04044671 -65.41923116 52.23752416 -69.20703125 54.5234375 C-69.84431152 54.90322754 -70.4815918 55.28301758 -71.13818359 55.67431641 C-72.79424006 56.66435505 -74.44243753 57.66750839 -76.08984375 58.671875 C-79.47976594 60.21895358 -81.31317227 60.52668968 -85 60 C-87.50195638 58.84390347 -89.72144277 57.66923043 -92.0625 56.25 C-93.4634266 55.43079277 -94.86447505 54.6117939 -96.265625 53.79296875 C-97.01779297 53.34743652 -97.76996094 52.9019043 -98.54492188 52.44287109 C-103.10387759 49.76353256 -107.71413232 47.17340068 -112.3125 44.5625 C-114.1011634 43.54455378 -115.88898433 42.52512515 -117.67578125 41.50390625 C-118.43802002 41.06892822 -119.20025879 40.6339502 -119.9855957 40.18579102 C-121.69215143 39.18121688 -123.35230896 38.09846069 -125 37 C-125.34057617 35.12060547 -125.34057617 35.12060547 -125.29296875 32.8671875 C-125.28330078 32.06152344 -125.27363281 31.25585938 -125.26367188 30.42578125 C-125.23853516 29.58402344 -125.21339844 28.74226563 -125.1875 27.875 C-125.17396484 27.02550781 -125.16042969 26.17601562 -125.14648438 25.30078125 C-125.11108219 23.20025163 -125.05727401 21.10004707 -125 19 C-121.3124099 20.37998519 -118.00649109 22.05364413 -114.61328125 24.046875 C-113.59169922 24.645 -112.57011719 25.243125 -111.51757812 25.859375 C-110.45990234 26.48328125 -109.40222656 27.1071875 -108.3125 27.75 C-107.27416016 28.3584375 -106.23582031 28.966875 -105.16601562 29.59375 C-104.13798828 30.19703125 -103.10996094 30.8003125 -102.05078125 31.421875 C-101.03193848 32.01677734 -100.0130957 32.61167969 -98.96337891 33.22460938 C-97.04544412 34.37366373 -95.14948952 35.56058804 -93.28271484 36.79101562 C-87.24581828 40.78815815 -87.24581828 40.78815815 -80.171875 41.61816406 C-75.01145866 40.14939449 -70.5410328 37.15491301 -66 34.375 C-64.85106015 33.68924737 -63.70105631 33.00527456 -62.55004883 32.32299805 C-60.18407454 30.91774861 -57.82363568 29.50384478 -55.46728516 28.08251953 C-50.24104699 24.93507026 -44.96254538 21.87718599 -39.6875 18.8125 C-33.79949494 15.39017905 -27.92031523 11.95712569 -22.078125 8.45703125 C-20.19806901 7.34609632 -18.31786699 6.23540846 -16.4375 5.125 C-15.58696045 4.60655518 -14.7364209 4.08811035 -13.86010742 3.55395508 C-9.09392415 0.76253211 -5.68166768 -0.89637961 0 0 Z " fill="#FDF7F7" transform="translate(150,322)"/>
<path d="M0 0 C3.84356525 1.30536178 6.88498465 2.95657192 10.3125 5.125 C10.546875 7.44433594 10.546875 7.44433594 10.3125 10.125 C8.765625 11.68847656 8.765625 11.68847656 6.5625 13.015625 C5.7375 13.52029297 4.9125 14.02496094 4.0625 14.54492188 C3.155 15.06634766 2.2475 15.58777344 1.3125 16.125 C0.384375 16.66189453 -0.54375 17.19878906 -1.5 17.75195312 C-4.54891087 19.4852103 -7.61528973 21.18341292 -10.6875 22.875 C-17.83624488 26.84393086 -24.97219303 30.82006838 -32 35 C-39.68081436 39.5638916 -47.42941479 44.00678726 -55.1875 48.4375 C-55.79091217 48.78238464 -56.39432434 49.12726929 -57.01602173 49.48260498 C-59.87874339 51.11840409 -62.74362761 52.7498932 -65.61328125 54.37353516 C-67.53764913 55.46989913 -69.45334623 56.58178859 -71.35546875 57.71630859 C-72.13535156 58.17473145 -72.91523437 58.6331543 -73.71875 59.10546875 C-74.37423828 59.50016357 -75.02972656 59.8948584 -75.70507812 60.30151367 C-78.25627311 61.36126499 -79.94078908 61.44265924 -82.6875 61.125 C-85.2043457 59.98266602 -85.2043457 59.98266602 -87.86328125 58.37890625 C-88.84941406 57.79254395 -89.83554688 57.20618164 -90.8515625 56.60205078 C-91.89054687 55.97024902 -92.92953125 55.33844727 -94 54.6875 C-96.15174846 53.40394944 -98.3040945 52.12140015 -100.45703125 50.83984375 C-101.51229004 50.20804199 -102.56754883 49.57624023 -103.65478516 48.92529297 C-107.79579108 46.46709158 -111.98165518 44.09503593 -116.1875 41.75 C-118.3325 40.55375 -120.4775 39.3575 -122.6875 38.125 C-122.6875 32.185 -122.6875 26.245 -122.6875 20.125 C-119.04570262 21.58171895 -115.93252457 23.01130742 -112.5546875 24.91796875 C-111.58273438 25.46646484 -110.61078125 26.01496094 -109.609375 26.58007812 C-108.60390625 27.15177734 -107.5984375 27.72347656 -106.5625 28.3125 C-105.58023438 28.86486328 -104.59796875 29.41722656 -103.5859375 29.98632812 C-98.54553606 32.84145026 -93.67649052 35.79681622 -88.8828125 39.05078125 C-85.84157192 40.96764998 -83.75933514 42.10757061 -80.2421875 42.9609375 C-74.53416758 41.61861194 -69.8354828 38.70875368 -64.8125 35.75 C-63.69842773 35.10949707 -62.58435547 34.46899414 -61.43652344 33.80908203 C-58.17738226 31.93011138 -54.93071025 30.03130651 -51.6875 28.125 C-50.12763272 27.21349281 -48.56774061 26.30202809 -47.0078125 25.390625 C-44.31654826 23.81310725 -41.63167697 22.22524662 -38.94921875 20.6328125 C-33.06425914 17.15156879 -27.11402873 13.78340269 -21.16699219 10.40966797 C-20.33973633 9.93932129 -19.51248047 9.46897461 -18.66015625 8.984375 C-17.84603271 8.52208496 -17.03190918 8.05979492 -16.19311523 7.58349609 C-12.70518571 5.55320369 -9.29009029 3.40783455 -5.88134766 1.24755859 C-3.6875 0.125 -3.6875 0.125 0 0 Z " fill="#FDF7F7" transform="translate(147.6875,285.875)"/>
<path d="M0 0 C3.18415204 1.77067429 6.10401213 3.79353305 9 6 C8.65967864 8.72403307 8.31496051 9.75013434 6.12768555 11.48535156 C5.3056665 11.9490918 4.48364746 12.41283203 3.63671875 12.890625 C2.23305054 13.6954834 2.23305054 13.6954834 0.80102539 14.51660156 C-0.22643799 15.08862305 -1.25390137 15.66064453 -2.3125 16.25 C-3.9068689 17.15830566 -3.9068689 17.15830566 -5.53344727 18.08496094 C-7.82248223 19.38766646 -10.11354735 20.68563182 -12.40917969 21.9765625 C-16.02394258 24.01043687 -19.62657231 26.06511467 -23.2265625 28.125 C-24.12134056 28.63693405 -24.12134056 28.63693405 -25.03419495 29.15921021 C-26.23575808 29.84668549 -27.43730131 30.53419557 -28.63882446 31.22174072 C-30.43890475 32.25080306 -32.24014054 33.2778133 -34.04174805 34.30419922 C-40.43205897 37.94618661 -46.79807091 41.62396999 -53.125 45.375 C-55.74758633 46.92080163 -58.37338299 48.46105976 -61 50 C-61.77617676 50.45697266 -62.55235352 50.91394531 -63.35205078 51.38476562 C-65.78933836 52.81227148 -68.23684974 54.22058316 -70.6875 55.625 C-71.8024585 56.28314697 -71.8024585 56.28314697 -72.93994141 56.95458984 C-77.09319454 59.30819497 -80.10849652 60.81525058 -85 60 C-87.41548197 58.96685479 -89.54954883 57.91981116 -91.8125 56.625 C-92.77168335 56.09459106 -92.77168335 56.09459106 -93.75024414 55.5534668 C-95.84396172 54.38647253 -97.92336589 53.19711292 -100 52 C-100.73379883 51.5776709 -101.46759766 51.1553418 -102.22363281 50.72021484 C-110.86625148 45.72457896 -110.86625148 45.72457896 -114.98974609 43.18676758 C-117.01166596 41.95698116 -117.01166596 41.95698116 -119.26416016 40.8972168 C-124.6526624 38.09812636 -124.6526624 38.09812636 -125.62866211 35.01245117 C-125.78861316 32.68586719 -125.70247218 30.51008955 -125.5 28.1875 C-125.46390625 27.39923828 -125.4278125 26.61097656 -125.390625 25.79882812 C-125.29680438 23.86377789 -125.15330744 21.93124793 -125 20 C-119.4887307 21.5431554 -114.94615438 24.16943342 -110.0625 27.0625 C-109.23073242 27.5462207 -108.39896484 28.02994141 -107.54199219 28.52832031 C-103.53536842 30.86794344 -99.57036677 33.25180237 -95.66796875 35.76171875 C-95.00337646 36.18251709 -94.33878418 36.60331543 -93.65405273 37.03686523 C-92.42010311 37.82305522 -91.1960757 38.62513031 -89.98461914 39.44555664 C-86.9669103 41.35885302 -85.11083349 42.00111702 -81.51171875 41.96484375 C-77.6546883 40.90512571 -74.46487397 39.35240207 -71.0625 37.3125 C-70.38775635 36.92094727 -69.7130127 36.52939453 -69.01782227 36.12597656 C-66.67208268 34.76142902 -64.33638035 33.38050519 -62 32 C-59.15821732 30.33760318 -56.31434457 28.67881593 -53.47045898 27.02001953 C-51.4378001 25.83377008 -49.40607024 24.64592737 -47.37524414 23.45654297 C-39.18633383 18.66671774 -30.94219563 13.9804481 -22.66186523 9.35058594 C-17.91318584 6.68674512 -13.25747055 3.95896426 -8.71655273 0.95214844 C-5.56217051 -0.79754445 -3.49498854 -0.67447147 0 0 Z " fill="#FDF7F7" transform="translate(150,357)"/>
<path d="M0 0 C-0.16381836 1.78759766 -0.16381836 1.78759766 -1 4 C-3.30297852 5.70068359 -3.30297852 5.70068359 -6.37890625 7.3984375 C-8.08421509 8.35411621 -8.08421509 8.35411621 -9.82397461 9.32910156 C-11.07011695 10.01112763 -12.31629291 10.69309226 -13.5625 11.375 C-14.84010587 12.08672508 -16.11687208 12.79995937 -17.39282227 13.51464844 C-19.3486002 14.60986564 -21.3048596 15.70409801 -23.26383972 16.7935791 C-29.37307087 20.19207289 -35.41058423 23.70774719 -41.4375 27.25 C-49.84195794 32.17063305 -58.2672621 37.0521128 -66.73828125 41.85742188 C-70.58612311 44.04044671 -74.41923116 46.23752416 -78.20703125 48.5234375 C-78.84431152 48.90322754 -79.4815918 49.28301758 -80.13818359 49.67431641 C-81.79424006 50.66435505 -83.44243753 51.66750839 -85.08984375 52.671875 C-88.47976594 54.21895358 -90.31317227 54.52668968 -94 54 C-96.50195638 52.84390347 -98.72144277 51.66923043 -101.0625 50.25 C-102.4634266 49.43079277 -103.86447505 48.6117939 -105.265625 47.79296875 C-106.01779297 47.34743652 -106.76996094 46.9019043 -107.54492188 46.44287109 C-112.10387759 43.76353256 -116.71413232 41.17340068 -121.3125 38.5625 C-123.1011634 37.54455378 -124.88898433 36.52512515 -126.67578125 35.50390625 C-127.43802002 35.06892822 -128.20025879 34.6339502 -128.9855957 34.18579102 C-130.69215143 33.18121688 -132.35230896 32.09846069 -134 31 C-134.34057617 29.12060547 -134.34057617 29.12060547 -134.29296875 26.8671875 C-134.28330078 26.06152344 -134.27363281 25.25585938 -134.26367188 24.42578125 C-134.23853516 23.58402344 -134.21339844 22.74226563 -134.1875 21.875 C-134.17396484 21.02550781 -134.16042969 20.17601562 -134.14648438 19.30078125 C-134.11108219 17.20025163 -134.05727401 15.10004707 -134 13 C-133.01 13.495 -133.01 13.495 -132 14 C-132 18.95 -132 23.9 -132 29 C-130.35 29.33 -128.7 29.66 -127 30 C-125.12966801 30.97367283 -123.29800523 32.02347482 -121.5 33.125 C-116.02273878 36.41949128 -110.4721524 39.45333183 -104.8125 42.421875 C-102.35813297 43.79904761 -100.23448802 45.30435975 -98 47 C-95.85266073 47.70514846 -95.85266073 47.70514846 -94 48 C-94 48.66 -94 49.32 -94 50 C-92.58194169 49.71517632 -91.16559621 49.42181856 -89.75 49.125 C-88.96109375 48.96257812 -88.1721875 48.80015625 -87.359375 48.6328125 C-84.98184966 47.99513186 -83.08106265 47.31677858 -81 46 C-80.67 45.01 -80.34 44.02 -80 43 C-77.33916031 41.00603743 -74.38757675 39 -71 39 C-70.67 38.01 -70.34 37.02 -70 36 C-68.02 35.67 -66.04 35.34 -64 35 C-64 34.34 -64 33.68 -64 33 C-63.26007813 32.73960937 -62.52015625 32.47921875 -61.7578125 32.2109375 C-58.9536753 30.97965912 -57.1721486 29.62517882 -54.875 27.625 C-50.65930281 24.22569826 -46.62967887 22.57084945 -41.51953125 20.8984375 C-36.86105381 19.237275 -33.40704062 16.5619061 -30 13 C-27.50564146 10.78279241 -25.17596863 9.64519116 -22.0625 8.5625 C-19.36851176 7.61516347 -17.92047264 6.93336897 -15.6875 5.0625 C-11.95768092 2.20008071 -4.57086288 -2.28543144 0 0 Z " fill="#F3C5C0" transform="translate(159,328)"/>
<path d="M0 0 C2.31 0.33 4.62 0.66 7 1 C3.56768391 3.87803389 0.13268845 6.17639452 -3.796875 8.3203125 C-4.91118896 8.93253662 -6.02550293 9.54476074 -7.17358398 10.17553711 C-7.75695526 10.49344208 -8.34032654 10.81134705 -8.94137573 11.1388855 C-12.01509567 12.81476692 -15.07966929 14.50720748 -18.14453125 16.19921875 C-18.74826065 16.5321846 -19.35199005 16.86515045 -19.97401428 17.20820618 C-24.50597931 19.71297467 -28.98974175 22.28665907 -33.4375 24.9375 C-41.07445325 29.48456628 -48.78188692 33.90520215 -56.5 38.3125 C-57.10359344 38.65747528 -57.70718689 39.00245056 -58.32907104 39.35787964 C-61.19161238 40.99358268 -64.05630531 42.62499374 -66.92578125 44.24853516 C-68.85014913 45.34489913 -70.76584623 46.45678859 -72.66796875 47.59130859 C-73.44785156 48.04973145 -74.22773437 48.5081543 -75.03125 48.98046875 C-75.68673828 49.37516357 -76.34222656 49.7698584 -77.01757812 50.17651367 C-79.56877311 51.23626499 -81.25328908 51.31765924 -84 51 C-86.5168457 49.85766602 -86.5168457 49.85766602 -89.17578125 48.25390625 C-90.16191406 47.66754395 -91.14804688 47.08118164 -92.1640625 46.47705078 C-93.20304687 45.84524902 -94.24203125 45.21344727 -95.3125 44.5625 C-97.46424846 43.27894944 -99.6165945 41.99640015 -101.76953125 40.71484375 C-102.82479004 40.08304199 -103.88004883 39.45124023 -104.96728516 38.80029297 C-109.10829108 36.34209158 -113.29415518 33.97003593 -117.5 31.625 C-119.645 30.42875 -121.79 29.2325 -124 28 C-124 22.06 -124 16.12 -124 10 C-123.67 10 -123.34 10 -123 10 C-123 14.62 -123 19.24 -123 24 C-121.68 24.33 -120.36 24.66 -119 25 C-117.59222085 25.8654829 -116.21872482 26.78807153 -114.875 27.75 C-110.14166463 31.01056713 -105.19072343 33.55093216 -100 36 C-100 36.66 -100 37.32 -100 38 C-99.21625 38.226875 -98.4325 38.45375 -97.625 38.6875 C-92.87698375 40.40660933 -88.47897448 42.68084721 -84 45 C-84 45.66 -84 46.32 -84 47 C-82.9275 46.690625 -81.855 46.38125 -80.75 46.0625 C-77 45 -77 45 -74.625 44.5625 C-73.820625 44.2840625 -73.820625 44.2840625 -73 44 C-72.67 43.01 -72.34 42.02 -72 41 C-71.34 41 -70.68 41 -70 41 C-69.67 40.01 -69.34 39.02 -69 38 C-67.0390625 36.90234375 -67.0390625 36.90234375 -64.625 35.9375 C-61.78250709 34.78476265 -59.57934445 33.71956297 -57 32 C-55.01363702 31.29373761 -53.01151741 30.63106429 -51 30 C-49.88625 29.62875 -48.7725 29.2575 -47.625 28.875 C-46.75875 28.58625 -45.8925 28.2975 -45 28 C-45 27.34 -45 26.68 -45 26 C-44.31035156 25.70867187 -43.62070313 25.41734375 -42.91015625 25.1171875 C-37.40268402 22.71475106 -32.49840037 20.10890422 -27.58203125 16.671875 C-23.68572913 14.14900464 -19.57915357 12.05542671 -15.46704102 9.90893555 C-11.94735033 8.06383895 -8.53178391 6.15425588 -5.1875 4 C-2 2 -2 2 0 2 C0 1.34 0 0.68 0 0 Z " fill="#F3C5C0" transform="translate(149,296)"/>
<path d="M0 0 C-3.47981271 2.9118185 -6.99658495 5.27402563 -10.9453125 7.50390625 C-11.50795807 7.82339737 -12.07060364 8.14288849 -12.65029907 8.47206116 C-13.85102533 9.15323507 -15.05286805 9.83244419 -16.2557373 10.50982666 C-18.15483004 11.57929875 -20.05093902 12.65389093 -21.94628906 13.72998047 C-24.47613184 15.16621595 -27.00681497 16.6009513 -29.53808594 18.03466797 C-33.95522775 20.54228373 -38.35661289 23.07604999 -42.75 25.625 C-43.47550049 26.04531494 -44.20100098 26.46562988 -44.94848633 26.89868164 C-49.40048991 29.48137864 -53.84399736 32.07838963 -58.28515625 34.6796875 C-59.36764648 35.31310059 -60.45013672 35.94651367 -61.56542969 36.59912109 C-63.68040226 37.83725466 -65.79438626 39.07707894 -67.90722656 40.31884766 C-70.59686874 41.89356804 -73.29516157 43.45156611 -76 45 C-77.09699219 45.6290625 -78.19398437 46.258125 -79.32421875 46.90625 C-82.54977303 48.22472474 -84.5402215 48.45185327 -88 48 C-90.41548197 46.96685479 -92.54954883 45.91981116 -94.8125 44.625 C-95.77168335 44.09459106 -95.77168335 44.09459106 -96.75024414 43.5534668 C-98.84396172 42.38647253 -100.92336589 41.19711292 -103 40 C-103.73379883 39.5776709 -104.46759766 39.1553418 -105.22363281 38.72021484 C-113.86625148 33.72457896 -113.86625148 33.72457896 -117.98974609 31.18676758 C-120.01166596 29.95698116 -120.01166596 29.95698116 -122.26416016 28.8972168 C-127.6526624 26.09812636 -127.6526624 26.09812636 -128.62866211 23.01245117 C-128.78861316 20.68586719 -128.70247218 18.51008955 -128.5 16.1875 C-128.46390625 15.39923828 -128.4278125 14.61097656 -128.390625 13.79882812 C-128.29680438 11.86377789 -128.15330744 9.93124793 -128 8 C-127.67 8 -127.34 8 -127 8 C-127 12.95 -127 17.9 -127 23 C-125.35 23 -123.7 23 -122 23 C-120.31003995 24.30368347 -118.64864545 25.64444707 -117 27 C-114.53297208 28.32934067 -112.0295711 29.54840752 -109.5 30.75390625 C-105.91722735 32.53969449 -102.57354241 34.63312511 -99.203125 36.7890625 C-90.71840236 42.40610407 -90.71840236 42.40610407 -81 43 C-76.07411218 40.69133446 -71.57177884 37.93742312 -67 35 C-66.07058594 34.45730469 -65.14117187 33.91460937 -64.18359375 33.35546875 C-61.91750406 32.09716374 -61.91750406 32.09716374 -60.3125 30.0625 C-57.30681466 27.38175362 -54.15357355 26.34785952 -50.4140625 24.94140625 C-45.32439538 23.00778557 -45.32439538 23.00778557 -42 19 C-38.9375 18.375 -38.9375 18.375 -36 18 C-35.505 16.515 -35.505 16.515 -35 15 C-33.40315346 14.25253992 -31.79695559 13.52052351 -30.15625 12.875 C-23.60895132 10.21812517 -17.46727845 6.82964241 -11.59375 2.91796875 C-10 2 -10 2 -8 2 C-8 1.34 -8 0.68 -8 0 C-4.71023192 -1.09658936 -3.28696233 -0.79953138 0 0 Z " fill="#F3C6C1" transform="translate(153,369)"/>
<path d="M0 0 C-2 2 -2 2 -4.3828125 2.1953125 C-5.28773438 2.17210937 -6.19265625 2.14890625 -7.125 2.125 C-8.03507812 2.10695313 -8.94515625 2.08890625 -9.8828125 2.0703125 C-10.58148438 2.04710937 -11.28015625 2.02390625 -12 2 C-12 2.66 -12 3.32 -12 4 C-19.21356368 9.23367067 -27.69317348 13.28223736 -35.9375 16.625 C-38.9672253 17.7672859 -38.9672253 17.7672859 -40.6875 19.6875 C-41.120625 20.120625 -41.55375 20.55375 -42 21 C-43.32 21 -44.64 21 -46 21 C-46.495 22.485 -46.495 22.485 -47 24 C-49.36328125 25.60546875 -49.36328125 25.60546875 -52.3125 27.1875 C-53.27800781 27.71730469 -54.24351563 28.24710937 -55.23828125 28.79296875 C-58 30 -58 30 -62 30 C-62.33 30.99 -62.66 31.98 -63 33 C-66.3770521 36.08156004 -69.89147504 38.09732543 -74 40.0625 C-76.9814726 41.49619282 -79.83260803 42.8929789 -82.62109375 44.67578125 C-85.88434016 46.49226817 -87.78567638 46.31320851 -91.39453125 45.78125 C-96.74682677 44.17636379 -101.32642431 40.98952188 -106 38 C-110.36975965 35.32241788 -114.85677461 32.90845846 -119.37890625 30.5 C-122 29 -122 29 -124.16796875 27.35546875 C-126.39712315 25.70617967 -128.28160804 25.37755444 -131 25 C-131 23.68 -131 22.36 -131 21 C-126.95293895 21.60447906 -123.89235455 22.91169641 -120.3125 24.875 C-118.88357422 25.64457031 -118.88357422 25.64457031 -117.42578125 26.4296875 C-115 28 -115 28 -113 31 C-107.03124709 34.85858774 -100.68129588 37.64917367 -94 40 C-93.67 40.33 -93.34 40.66 -93 41 C-87.0522143 41.41019212 -83.27369388 40.79828655 -78 38 C-77.505 37.01 -77.505 37.01 -77 36 C-75.68 36 -74.36 36 -73 36 C-72.67 35.01 -72.34 34.02 -72 33 C-69.671875 31.5 -69.671875 31.5 -66.75 30 C-63.89692745 28.51948668 -61.08807388 27.05375097 -58.34375 25.37890625 C-56 24 -56 24 -52.75 22.9375 C-49.86381294 22.31285945 -49.86381294 22.31285945 -49 20 C-48.38125 19.855625 -47.7625 19.71125 -47.125 19.5625 C-44.96489034 19.18669887 -44.96489034 19.18669887 -43.75 17.70703125 C-39.5894711 13.64865819 -33.97899309 10.97236057 -29 8 C-28.12730469 7.46117187 -27.25460938 6.92234375 -26.35546875 6.3671875 C-22.08074878 3.81837661 -19.14251797 2.34070282 -14 3 C-14 2.34 -14 1.68 -14 1 C-8.83955235 -0.512545 -5.34001821 -1.33500455 0 0 Z " fill="#FAE3E1" transform="translate(157,367)"/>
<path d="M0 0 C0.99 0.495 0.99 0.495 2 1 C2 5.95 2 10.9 2 16 C3.65 16.33 5.3 16.66 7 17 C8.87033199 17.97367283 10.70199477 19.02347482 12.5 20.125 C17.97726122 23.41949128 23.5278476 26.45333183 29.1875 29.421875 C31.64186703 30.79904761 33.76551198 32.30435975 36 34 C38.14733927 34.70514846 38.14733927 34.70514846 40 35 C40 35.66 40 36.32 40 37 C41.41805831 36.71517632 42.83440379 36.42181856 44.25 36.125 C45.03890625 35.96257812 45.8278125 35.80015625 46.640625 35.6328125 C49.01815034 34.99513186 50.91893735 34.31677858 53 33 C53.33 32.01 53.66 31.02 54 30 C55.84765625 29.26953125 55.84765625 29.26953125 58.0625 28.8125 C58.79597656 28.65394531 59.52945313 28.49539063 60.28515625 28.33203125 C60.85105469 28.22246094 61.41695312 28.11289062 62 28 C62 29.32 62 30.64 62 32 C59.46686886 33.51626852 56.92512202 35.01280099 54.375 36.5 C53.66214844 36.92925781 52.94929688 37.35851562 52.21484375 37.80078125 C48.02415451 40.22292274 44.9601357 41.87648984 40 41 C37.49804362 39.84390347 35.27855723 38.66923043 32.9375 37.25 C31.5365734 36.43079277 30.13552495 35.6117939 28.734375 34.79296875 C27.98220703 34.34743652 27.23003906 33.9019043 26.45507812 33.44287109 C21.89612241 30.76353256 17.28586768 28.17340068 12.6875 25.5625 C10.8988366 24.54455378 9.11101567 23.52512515 7.32421875 22.50390625 C6.56197998 22.06892822 5.79974121 21.6339502 5.0144043 21.18579102 C3.30784857 20.18121688 1.64769104 19.09846069 0 18 C-0.34057617 16.12060547 -0.34057617 16.12060547 -0.29296875 13.8671875 C-0.28330078 13.06152344 -0.27363281 12.25585938 -0.26367188 11.42578125 C-0.23853516 10.58402344 -0.21339844 9.74226563 -0.1875 8.875 C-0.17396484 8.02550781 -0.16042969 7.17601562 -0.14648438 6.30078125 C-0.11108219 4.20025163 -0.05727401 2.10004707 0 0 Z " fill="#F2C3BE" transform="translate(25,341)"/>
<path d="M0 0 C0.74636719 -0.00386719 1.49273437 -0.00773437 2.26171875 -0.01171875 C6.14139586 -0.00485206 9.71080898 0.17770224 13.5 1.125 C13.5 1.785 13.5 2.445 13.5 3.125 C12.89639648 3.11452637 12.29279297 3.10405273 11.67089844 3.09326172 C-8.17529436 2.26614782 -8.17529436 2.26614782 -26.67578125 8.3046875 C-29.68178758 9.65642482 -32.25534434 9.39538797 -35.5 9.125 C-35.5 10.115 -35.5 11.105 -35.5 12.125 C-36.74735567 12.7759259 -37.99801832 13.42051669 -39.25 14.0625 C-39.94609375 14.42214844 -40.6421875 14.78179687 -41.359375 15.15234375 C-43.5 16.125 -43.5 16.125 -45.70703125 16.64453125 C-46.59455078 16.88236328 -46.59455078 16.88236328 -47.5 17.125 C-48.20394612 18.43903276 -48.86345658 19.7770257 -49.5 21.125 C-51.9669424 23.72529064 -54.5327397 26.15469415 -57.1875 28.5625 C-61.81454135 33.68976204 -61.71479445 38.8389822 -61.66796875 45.44140625 C-61.50249263 48.08517586 -61.08338743 50.54409403 -60.5 53.125 C-59.84 53.125 -59.18 53.125 -58.5 53.125 C-58.5 53.785 -58.5 54.445 -58.5 55.125 C-59.49 55.125 -60.48 55.125 -61.5 55.125 C-64.51667085 50.10513301 -64.88714622 46.41176196 -64.6875 40.75 C-64.67396484 40.01394531 -64.66042969 39.27789062 -64.64648438 38.51953125 C-64.61144869 36.72103257 -64.55765288 34.92291578 -64.5 33.125 C-63.51 33.125 -62.52 33.125 -61.5 33.125 C-61.37625 32.58875 -61.2525 32.0525 -61.125 31.5 C-60.37793984 28.6611714 -59.44696636 25.90276798 -58.5 23.125 C-57.84 23.125 -57.18 23.125 -56.5 23.125 C-56.5 22.465 -56.5 21.805 -56.5 21.125 C-54.85 20.795 -53.2 20.465 -51.5 20.125 C-51.5 19.465 -51.5 18.805 -51.5 18.125 C-50.51 18.125 -49.52 18.125 -48.5 18.125 C-48.17 17.135 -47.84 16.145 -47.5 15.125 C-45.25 13.80859375 -45.25 13.80859375 -42.5 12.5625 C-38.79032372 11.10135423 -38.79032372 11.10135423 -36.5 8.125 C-35.51 8.125 -34.52 8.125 -33.5 8.125 C-33.5 7.135 -33.5 6.145 -33.5 5.125 C-32.365625 4.980625 -31.23125 4.83625 -30.0625 4.6875 C-26.69222799 4.51328522 -26.69222799 4.51328522 -25.5 3.125 C-23.59100343 2.75022767 -21.6721591 2.42504435 -19.75 2.125 C-15.42451839 1.45480121 -15.42451839 1.45480121 -11.140625 0.5703125 C-7.41945025 -0.05722289 -3.76650538 -0.01951557 0 0 Z " fill="#3E6269" transform="translate(273.5,84.875)"/>
<path d="M0 0 C-0.33 0.99 -0.66 1.98 -1 3 C-3.475 2.505 -3.475 2.505 -6 2 C-6 2.66 -6 3.32 -6 4 C-7.66015625 5.2265625 -7.66015625 5.2265625 -10.0625 6.625 C-10.97 7.15351563 -11.8775 7.68203125 -12.8125 8.2265625 C-17.01344696 10.56385407 -21.26684657 12.79588206 -25.52392578 15.02880859 C-29.87554246 17.3345572 -33.95188561 19.87621008 -38.00390625 22.6796875 C-42.01280694 25.33136741 -46.10570346 28 -51 28 C-51 28.66 -51 29.32 -51 30 C-56.2734375 33.22265625 -56.2734375 33.22265625 -58 34 C-58.66 33.67 -59.32 33.34 -60 33 C-56.54345299 29.00336752 -53.86917197 27.28495208 -48.76953125 25.87109375 C-46.82359215 25.15492787 -46.82359215 25.15492787 -46.2265625 23.1328125 C-44.30193715 19.78617097 -40.98516878 18.87031995 -37.5625 17.4375 C-31.73497335 15.04370483 -31.73497335 15.04370483 -27 11 C-8.7875 -0.2375 -8.7875 -0.2375 0 0 Z " fill="#F9DBD7" transform="translate(155,294)"/>
<path d="M0 0 C3.61223207 1.3416862 6.70849422 3.01088859 10 5 C16.52489009 8.6427819 23.05444183 12.18318978 29.9453125 15.0859375 C32.72845952 16.32406754 35.35348131 17.8237178 37.98046875 19.36328125 C41.00669119 20.31739007 42.9436202 19.8227283 46 19 C49.08377783 17.3447874 52.01398103 15.58029654 54.96484375 13.70703125 C59.50479347 10.94745397 59.50479347 10.94745397 62.4296875 11.2578125 C62.94789062 11.50273437 63.46609375 11.74765625 64 12 C61.66293564 13.977516 59.9719403 15.00818408 57 15.875 C53.35465417 17.24200469 52.31463741 18.93870535 50 22 C46.24770505 24.86359351 43.68326696 25.32673956 39 25 C39 24.34 39 23.68 39 23 C37.989375 22.7525 36.97875 22.505 35.9375 22.25 C31.86005944 21.09804017 28.6125876 19.19588658 25 17 C24.34 16.67 23.68 16.34 23 16 C23 15.34 23 14.68 23 14 C22.44183594 13.89429688 21.88367188 13.78859375 21.30859375 13.6796875 C18.56901368 12.87311063 16.48892872 11.62796509 14.0625 10.125 C12.81146484 9.35542969 12.81146484 9.35542969 11.53515625 8.5703125 C10.69855469 8.05210937 9.86195312 7.53390625 9 7 C6.04483109 5.20702471 3.11519804 3.49991017 0 2 C0 1.34 0 0.68 0 0 Z " fill="#FAE7E5" transform="translate(26,318)"/>
<path d="M0 0 C0.33 0 0.66 0 1 0 C1 4.95 1 9.9 1 15 C2.65 15 4.3 15 6 15 C7.68996005 16.30368347 9.35135455 17.64444707 11 19 C13.46702792 20.32934067 15.9704289 21.54840752 18.5 22.75390625 C21.09127875 24.04549675 23.52739614 25.49493678 26 27 C27.30710937 27.72509766 27.30710937 27.72509766 28.640625 28.46484375 C29.93226562 29.19380859 29.93226562 29.19380859 31.25 29.9375 C32.55710937 30.66259766 32.55710937 30.66259766 33.890625 31.40234375 C36 33 36 33 36.796875 35.19140625 C36.86390625 35.78824219 36.9309375 36.38507813 37 37 C37.66 37 38.32 37 39 37 C38.505 37.99 38.505 37.99 38 39 C30.62613368 35.12711717 23.36515806 31.10051197 16.1875 26.875 C15.495354 26.46781738 14.80320801 26.06063477 14.09008789 25.64111328 C12.73456535 24.83895432 11.38519232 24.02630374 10.04248047 23.20288086 C7.99207624 21.95917019 7.99207624 21.95917019 5.72705078 20.89282227 C3.52582114 19.74936112 1.7748278 18.73599192 0 17 C-0.94826693 14.00004165 -0.77089579 11.29498724 -0.5 8.1875 C-0.46390625 7.39923828 -0.4278125 6.61097656 -0.390625 5.79882812 C-0.29680438 3.86377789 -0.15330744 1.93124793 0 0 Z " fill="#F2C5C0" transform="translate(25,377)"/>
<path d="M0 0 C2.36280927 2.14800843 3.58340234 4.16680467 5 7 C5.66 7.33 6.32 7.66 7 8 C8.88186002 11.0318856 9 12.24517355 9 16 C9.99 16 10.98 16 12 16 C12 17.98 12 19.96 12 22 C12.66 22 13.32 22 14 22 C14.06058594 22.84304688 14.12117188 23.68609375 14.18359375 24.5546875 C14.26738281 25.65039062 14.35117187 26.74609375 14.4375 27.875 C14.55931641 29.51082031 14.55931641 29.51082031 14.68359375 31.1796875 C14.83001703 33.94728971 14.83001703 33.94728971 16 36 C16.73895427 45.60640557 17.49600127 57.91413575 14 67 C12.515 67.99 12.515 67.99 11 69 C11.16153564 68.349104 11.32307129 67.69820801 11.48950195 67.02758789 C12.13524971 63.19788061 12.16238057 59.43013997 12.16796875 55.55859375 C12.17296135 54.3515554 12.17296135 54.3515554 12.17805481 53.12013245 C12.18310158 51.42490203 12.18546383 49.72966175 12.18530273 48.03442383 C12.1874956 45.44270561 12.20569227 42.851409 12.22460938 40.25976562 C12.2275425 38.60937645 12.22952784 36.95898526 12.23046875 35.30859375 C12.23765427 34.53559433 12.24483978 33.76259491 12.25224304 32.96617126 C12.23574834 29.08284242 11.98040444 26.35201969 10 23 C10 22.01 10 21.02 10 20 C9.34 20 8.68 20 8 20 C7.87625 18.865625 7.7525 17.73125 7.625 16.5625 C7.41875 15.386875 7.2125 14.21125 7 13 C6.34 12.67 5.68 12.34 5 12 C5 11.34 5 10.68 5 10 C4.34 10 3.68 10 3 10 C0.96564469 6.27034861 0 4.33094958 0 0 Z " fill="#557B7F" transform="translate(384,249)"/>
<path d="M0 0 C4.90747773 0.44613434 6.67858832 1.47100009 10 5 C11.97522846 6.04808041 13.97481509 7.0520411 16 8 C16.99 8.66 17.98 9.32 19 10 C19 10.66 19 11.32 19 12 C19.56847656 12.09796875 20.13695313 12.1959375 20.72265625 12.296875 C26.62122161 13.43916813 32.28871235 14.92373132 36.421875 19.61328125 C38.49668965 21.43644759 39.6508753 21.34297354 42.375 21.25 C43.16519531 21.22421875 43.95539063 21.1984375 44.76953125 21.171875 C47.24095064 20.98143288 49.59887937 20.61964403 52 20 C50.17251097 22.46313739 48.77023784 23.83428618 45.73046875 24.48828125 C43.48520654 24.72518293 41.25544422 24.90361349 39 25 C39 24.34 39 23.68 39 23 C38.319375 22.9175 37.63875 22.835 36.9375 22.75 C33.92044647 21.97968846 31.58804896 20.75354873 28.9296875 19.15625 C26.93899069 17.96344382 24.91508417 16.8559797 22.875 15.75 C17.76038828 12.94663034 12.89554727 9.76267038 8.015625 6.57421875 C4.96414295 4.98128188 3.3716837 4.63161234 0 5 C0 3.35 0 1.7 0 0 Z " fill="#F9DEDB" transform="translate(26,353)"/>
<path d="M0 0 C1.875 0.1875 1.875 0.1875 4 1 C5.59884394 3.93121389 6.27024097 7.02891766 7.0625 10.25 C7.60162308 13.77312166 7.60162308 13.77312166 9 15 C10.39496329 24.45475117 11.45898242 35.64387175 9 45 C7.0625 47.25 7.0625 47.25 5 49 C3.74563813 51.63222962 3.74563813 51.63222962 3 54 C2 51 2 51 2.875 49.1875 C3.24625 48.465625 3.6175 47.74375 4 47 C4.38290462 45.00889599 4.72604615 43.00899487 5 41 C5.66 41 6.32 41 7 41 C6.86149295 37.54133208 6.71295273 34.08316725 6.5625 30.625 C6.52318359 29.64015625 6.48386719 28.6553125 6.44335938 27.640625 C6.38051758 26.22910156 6.38051758 26.22910156 6.31640625 24.7890625 C6.27974854 23.91975098 6.24309082 23.05043945 6.20532227 22.15478516 C6.12598456 19.9516738 6.12598456 19.9516738 5 18 C4.72830546 15.76606709 4.55522167 13.53239492 4.37890625 11.2890625 C3.97153241 8.82802055 3.30325012 7.12070091 2 5 C1.34 4.67 0.68 4.34 0 4 C0 2.68 0 1.36 0 0 Z " fill="#82B2B4" transform="translate(169,124)"/>
<path d="M0 0 C0.33 0 0.66 0 1 0 C1 4.62 1 9.24 1 14 C2.98 14.495 2.98 14.495 5 15 C6.40777915 15.8654829 7.78127518 16.78807153 9.125 17.75 C13.85833537 21.01056713 18.80927657 23.55093216 24 26 C24 26.66 24 27.32 24 28 C24.969375 28.268125 25.93875 28.53625 26.9375 28.8125 C27.948125 29.204375 28.95875 29.59625 30 30 C30.33 30.99 30.66 31.98 31 33 C28 34 28 34 25.51977539 32.86010742 C24.55547607 32.28107666 23.59117676 31.7020459 22.59765625 31.10546875 C21.54255859 30.47962891 20.48746094 29.85378906 19.40039062 29.20898438 C18.29888672 28.54189453 17.19738281 27.87480469 16.0625 27.1875 C13.88722882 25.88846841 11.71146738 24.59025733 9.53515625 23.29296875 C8.569729 22.7105542 7.60430176 22.12813965 6.60961914 21.52807617 C4.45447932 20.26612275 2.23376885 19.11688442 0 18 C0 12.06 0 6.12 0 0 Z " fill="#E6BFBB" transform="translate(25,306)"/>
<path d="M0 0 C1.9587043 0.14076315 3.91696093 0.2877676 5.875 0.4375 C7.51082031 0.55931641 7.51082031 0.55931641 9.1796875 0.68359375 C12 1 12 1 14 2 C14 2.66 14 3.32 14 4 C14.85658203 3.98259766 14.85658203 3.98259766 15.73046875 3.96484375 C20.52451095 3.91149193 25.22416554 4.06914327 30 4.5 C35.55050611 4.9636461 41.05879459 5.11164111 46.625 5.125 C47.40746094 5.12951172 48.18992187 5.13402344 48.99609375 5.13867188 C52.2550326 5.13011074 54.88709435 5.03763522 58 4 C60.05925841 3.79717291 62.12272177 3.63555402 64.1875 3.5 C69.15736166 3.14977485 74.06503876 2.67734762 79 2 C70.56577579 9.69177026 51.96981643 7.28396655 41.18530273 7.20581055 C38.51341532 7.18715733 35.84186862 7.1853043 33.16992188 7.18554688 C31.46874697 7.18064412 29.76757441 7.17482132 28.06640625 7.16796875 C27.26868301 7.16685593 26.47095978 7.1657431 25.64906311 7.16459656 C20.1161815 7.1161815 20.1161815 7.1161815 19 6 C16.48510484 5.71606022 13.97010418 5.5518876 11.4453125 5.37890625 C9 5 9 5 6 3 C4.0103005 2.60986284 2.00980131 2.26797351 0 2 C0 1.34 0 0.68 0 0 Z " fill="#577C7F" transform="translate(233,384)"/>
<path d="M0 0 C1.7624707 0.00773437 1.7624707 0.00773437 3.56054688 0.015625 C12.95787098 0.10149432 12.95787098 0.10149432 16.8125 1.25 C16.8125 1.91 16.8125 2.57 16.8125 3.25 C15.96953369 3.24476318 15.12656738 3.23952637 14.25805664 3.23413086 C11.14022064 3.21712174 8.02240823 3.20456594 4.90454102 3.19506836 C3.55329614 3.19002943 2.20205674 3.18319823 0.85083008 3.17456055 C-1.08770434 3.16247581 -3.026278 3.15730172 -4.96484375 3.15234375 C-6.13265381 3.14710693 -7.30046387 3.14187012 -8.50366211 3.13647461 C-11.10641551 2.94338505 -11.10641551 2.94338505 -12.1875 4.25 C-14.18708364 4.29080783 -16.18795254 4.29254356 -18.1875 4.25 C-18.5175 5.24 -18.8475 6.23 -19.1875 7.25 C-20.1775 7.25 -21.1675 7.25 -22.1875 7.25 C-22.1875 7.91 -22.1875 8.57 -22.1875 9.25 C-23.7863191 10.48030726 -25.44280585 11.63640163 -27.125 12.75 C-30.75520686 14.95978178 -30.75520686 14.95978178 -33.1875 18.25 C-33.8475 17.92 -34.5075 17.59 -35.1875 17.25 C-34.5275 15.93 -33.8675 14.61 -33.1875 13.25 C-32.5275 13.25 -31.8675 13.25 -31.1875 13.25 C-30.94386719 12.65316406 -30.70023437 12.05632812 -30.44921875 11.44140625 C-28.95281895 8.84239608 -27.50890903 7.80684748 -25 6.1875 C-24.26394531 5.70152344 -23.52789062 5.21554688 -22.76953125 4.71484375 C-14.86529077 0.23059234 -9.07724392 -0.16092621 0 0 Z " fill="#51797F" transform="translate(121.1875,94.75)"/>
<path d="M0 0 C2.7117549 0.01634781 5.42207398 -0.00008333 8.13378906 -0.01904297 C9.87077149 -0.01706463 11.60775304 -0.01322947 13.34472656 -0.00732422 C14.5508963 -0.01643326 14.5508963 -0.01643326 15.78143311 -0.02572632 C20.08526906 0.02862001 22.8180635 0.26250596 25.92285156 3.39111328 C24.66472656 3.41173828 23.40660156 3.43236328 22.11035156 3.45361328 C21.40265625 3.46521484 20.69496094 3.47681641 19.96582031 3.48876953 C17.92285156 3.39111328 17.92285156 3.39111328 14.92285156 2.39111328 C12.85922166 2.2408134 10.79161242 2.1426688 8.72363281 2.07470703 C7.51513672 2.0328125 6.30664062 1.99091797 5.06152344 1.94775391 C3.79888672 1.9084375 2.53625 1.86912109 1.23535156 1.82861328 C-0.03888672 1.78542969 -1.313125 1.74224609 -2.62597656 1.69775391 C-5.77625695 1.59156468 -8.92661683 1.48951795 -12.07714844 1.39111328 C-12.07714844 2.05111328 -12.07714844 2.71111328 -12.07714844 3.39111328 C-13.18574219 3.44009766 -14.29433594 3.48908203 -15.43652344 3.53955078 C-16.90008909 3.61460543 -18.36362956 3.69015209 -19.82714844 3.76611328 C-20.55675781 3.79705078 -21.28636719 3.82798828 -22.03808594 3.85986328 C-25.8625941 4.06847282 -28.79092884 4.38583311 -32.07714844 6.39111328 C-36.72341244 7.93986795 -41.14245906 8.70858319 -45.98730469 9.17236328 C-48.38918619 9.42377518 -50.72219815 9.85935031 -53.07714844 10.39111328 C-49.73273086 7.47716529 -46.59572796 6.49031831 -42.32714844 5.39111328 C-41.15667969 5.08173828 -39.98621094 4.77236328 -38.78027344 4.45361328 C-37.21422234 4.09218915 -35.64619665 3.73929594 -34.07714844 3.39111328 C-32.97016602 3.13378418 -31.86318359 2.87645508 -30.72265625 2.61132812 C-20.4337447 0.42327681 -10.50383489 -0.07555322 0 0 Z " fill="#638D92" transform="translate(269.0771484375,195.60888671875)"/>
<path d="M0 0 C1.32 0.33 2.64 0.66 4 1 C4 1.66 4 2.32 4 3 C6.97 3.99 9.94 4.98 13 6 C13 6.66 13 7.32 13 8 C14.423125 8.2165625 14.423125 8.2165625 15.875 8.4375 C19 9 19 9 21 10 C23.30302412 10.09810342 25.60895074 10.13078003 27.9140625 10.1328125 C28.60253265 10.13376923 29.29100281 10.13472595 30.00033569 10.13571167 C31.46132498 10.1363929 32.92231729 10.13454258 34.38330078 10.13037109 C36.59544906 10.1250708 38.80738972 10.13029242 41.01953125 10.13671875 C42.44270878 10.136057 43.86588617 10.13477385 45.2890625 10.1328125 C47.21806396 10.13112061 47.21806396 10.13112061 49.18603516 10.12939453 C53.19570461 9.99336042 57.02944382 9.55494102 61 9 C59.91796875 10.48828125 59.91796875 10.48828125 58 12 C54.86328125 12.29296875 54.86328125 12.29296875 51.3125 12.1875 C49.54326172 12.14689453 49.54326172 12.14689453 47.73828125 12.10546875 C46.83464844 12.07066406 45.93101562 12.03585938 45 12 C45 12.66 45 13.32 45 14 C42.37493198 14.02690844 39.75013827 14.04679404 37.125 14.0625 C36.37863281 14.07087891 35.63226563 14.07925781 34.86328125 14.08789062 C29.2265625 14.11328125 29.2265625 14.11328125 27 13 C25.58605156 12.84729357 24.16855652 12.72632547 22.75 12.625 C18.57514127 12.20484649 15.70679489 11.01456244 12 9 C9.68416689 8.22805563 7.36473027 7.61482987 5 7 C5 6.34 5 5.68 5 5 C4.01 4.67 3.02 4.34 2 4 C2 3.34 2 2.68 2 2 C1.34 2 0.68 2 0 2 C0 1.34 0 0.68 0 0 Z " fill="#557A7E" transform="translate(217,142)"/>
<path d="M0 0 C4.65123401 1.328924 7.99780575 3.3318705 12 6 C13.97888961 6.72693904 15.97954558 7.39816251 18 8 C19.051875 8.51433594 19.051875 8.51433594 20.125 9.0390625 C24.09919761 10.36739485 27.77651776 10.29076064 31.9375 10.25 C33.11602539 10.26160156 33.11602539 10.26160156 34.31835938 10.2734375 C38.9569913 10.2579107 42.63583771 9.73072342 47 8 C50 7 53 6 56 5 C56 5.99 56 6.98 56 8 C51.37802694 10.21854707 48.23175837 11.38281159 43 11 C43 11.66 43 12.32 43 13 C39.68751813 13.02888146 36.37506833 13.04675799 33.0625 13.0625 C32.11697266 13.07087891 31.17144531 13.07925781 30.19726562 13.08789062 C28.84858398 13.09272461 28.84858398 13.09272461 27.47265625 13.09765625 C26.64000244 13.10289307 25.80734863 13.10812988 24.94946289 13.11352539 C23 13 23 13 22 12 C19.67182036 11.63239269 17.3381615 11.29758419 15 11 C14.67 10.01 14.34 9.02 14 8 C11.69 8 9.38 8 7 8 C7 7.34 7 6.68 7 6 C6.01 5.67 5.02 5.34 4 5 C4 4.34 4 3.68 4 3 C2.68 2.34 1.36 1.68 0 1 C0 0.67 0 0.34 0 0 Z " fill="#35545A" transform="translate(103,186)"/>
<path d="M0 0 C0.99 0.495 0.99 0.495 2 1 C2 5.95 2 10.9 2 16 C3.65 16.33 5.3 16.66 7 17 C8.97499093 18.01337466 10.9114587 19.10389384 12.8125 20.25 C13.85535156 20.87519531 14.89820313 21.50039063 15.97265625 22.14453125 C19.66378176 24.40683398 23.34464999 26.68025865 27 29 C26.67 29.99 26.34 30.98 26 32 C22.444218 30.65788025 19.20894833 29.07755303 15.91796875 27.1796875 C14.98662109 26.64472656 14.05527344 26.10976563 13.09570312 25.55859375 C12.13599609 25.00300781 11.17628906 24.44742187 10.1875 23.875 C9.20845703 23.31167969 8.22941406 22.74835938 7.22070312 22.16796875 C4.81211965 20.78156461 2.40583311 19.3911714 0 18 C0 12.06 0 6.12 0 0 Z " fill="#E4BDB9" transform="translate(25,341)"/>
<path d="M0 0 C0.98079025 0.00022659 1.96158051 0.00045319 2.97209167 0.00068665 C4.028423 0.0161705 5.08475433 0.03165436 6.1730957 0.04760742 C7.25645706 0.05185226 8.33981842 0.05609711 9.45600891 0.06047058 C12.92054972 0.07728048 16.38451157 0.11493769 19.84887695 0.15307617 C22.19587377 0.16811999 24.54287969 0.18180892 26.88989258 0.1940918 C32.647252 0.22719156 38.40427312 0.27741412 44.16137695 0.34057617 C44.16137695 1.00057617 44.16137695 1.66057617 44.16137695 2.34057617 C44.86004883 2.31737305 45.5587207 2.29416992 46.27856445 2.27026367 C47.64368164 2.24319336 47.64368164 2.24319336 49.03637695 2.21557617 C50.39375977 2.18077148 50.39375977 2.18077148 51.77856445 2.14526367 C54.16137695 2.34057617 54.16137695 2.34057617 56.16137695 4.34057617 C58.1282807 5.01350118 58.1282807 5.01350118 60.28637695 5.46557617 C61.56512695 5.75432617 62.84387695 6.04307617 64.16137695 6.34057617 C64.16137695 7.00057617 64.16137695 7.66057617 64.16137695 8.34057617 C63.42274414 8.13561523 62.68411133 7.9306543 61.9230957 7.71948242 C55.75651527 6.08185179 49.91362364 4.96233829 43.53637695 4.64916992 C41.16137695 4.34057617 41.16137695 4.34057617 39.26585388 3.33647156 C36.99777793 2.26315669 35.60273569 2.09249274 33.11474609 2.09765625 C32.3303566 2.09457962 31.5459671 2.09150299 30.73780823 2.08833313 C29.47987709 2.0991114 29.47987709 2.0991114 28.1965332 2.11010742 C27.32620956 2.11056564 26.45588593 2.11102386 25.55918884 2.11149597 C23.7209232 2.11451308 21.88266 2.12238321 20.04443359 2.13476562 C17.2376189 2.15298696 14.43113518 2.15527541 11.62426758 2.1550293 C9.83585328 2.15994635 8.04744121 2.16577548 6.2590332 2.17260742 C5.42243668 2.17372025 4.58584015 2.17483307 3.72389221 2.17597961 C-0.25943702 2.20824845 -3.9506138 2.35518134 -7.83862305 3.34057617 C-5.39004092 0.31720043 -3.83549229 -0.02957963 0 0 Z " fill="#30525B" transform="translate(253.838623046875,194.659423828125)"/>
<path d="M0 0 C-0.33 1.32 -0.66 2.64 -1 4 C-3.84089857 4.66844672 -6.19120671 4.99235173 -9.125 4.875 C-12.64553899 5.02806691 -12.63314399 5.60027099 -15 8 C-16.93147604 9.21061177 -18.89340004 10.37330476 -20.875 11.5 C-22.41800781 12.38171875 -22.41800781 12.38171875 -23.9921875 13.28125 C-24.98476562 13.8484375 -25.97734375 14.415625 -27 15 C-29.54043785 16.48673352 -31.8534104 17.87927915 -34.125 19.75 C-34.74375 20.1625 -35.3625 20.575 -36 21 C-36.99 20.67 -37.98 20.34 -39 20 C-37.6078125 19.1028125 -37.6078125 19.1028125 -36.1875 18.1875 C-33.75647422 16.51914897 -31.99759092 15.08839051 -30 13 C-27.50564146 10.78279241 -25.17596863 9.64519116 -22.0625 8.5625 C-19.36851176 7.61516347 -17.92047264 6.93336897 -15.6875 5.0625 C-11.95768092 2.20008071 -4.57086288 -2.28543144 0 0 Z " fill="#F8DCD9" transform="translate(159,328)"/>
<path d="M0 0 C0.33 0.66 0.66 1.32 1 2 C-3.75 5 -3.75 5 -6 5 C-6 5.66 -6 6.32 -6 7 C-6.66 7 -7.32 7 -8 7 C-8 7.66 -8 8.32 -8 9 C-9.62874008 10.72689391 -11.28460716 12.36285124 -13 14 C-14.11333977 15.108008 -15.22390231 16.21881185 -16.33203125 17.33203125 C-19.5546875 20.5546875 -22.77734375 23.77734375 -26 27 C-26.66 26.67 -27.32 26.34 -28 26 C-27.34 24.35 -26.68 22.7 -26 21 C-25.34 21 -24.68 21 -24 21 C-24 20.34 -24 19.68 -24 19 C-23.34 19 -22.68 19 -22 19 C-22 18.01 -22 17.02 -22 16 C-21.01 16 -20.02 16 -19 16 C-19 15.34 -19 14.68 -19 14 C-17.35546875 12.37890625 -17.35546875 12.37890625 -15.1875 10.5625 C-12.20684288 8.05748031 -12.20684288 8.05748031 -9.42578125 5.33984375 C-8 4 -8 4 -5 3 C-4.67 2.34 -4.34 1.68 -4 1 C-1.9375 0.375 -1.9375 0.375 0 0 Z " fill="#76A4A7" transform="translate(194,217)"/>
<path d="M0 0 C0.66 0.33 1.32 0.66 2 1 C1.51789063 1.65226562 1.03578125 2.30453125 0.5390625 2.9765625 C-5.62929268 11.51155191 -7.65974865 17.45936465 -7 28 C-6.69858579 29.6727338 -6.37473955 31.34215225 -6 33 C-5.34 33 -4.68 33 -4 33 C-4 33.66 -4 34.32 -4 35 C-4.99 35 -5.98 35 -7 35 C-10.01667085 29.98013301 -10.38714622 26.28676196 -10.1875 20.625 C-10.17396484 19.88894531 -10.16042969 19.15289062 -10.14648438 18.39453125 C-10.11144869 16.59603257 -10.05765288 14.79791578 -10 13 C-9.01 13 -8.02 13 -7 13 C-6.87625 12.46375 -6.7525 11.9275 -6.625 11.375 C-5.87793984 8.5361714 -4.94696636 5.77776798 -4 3 C-3.34 3 -2.68 3 -2 3 C-2 2.34 -2 1.68 -2 1 C-1.34 0.67 -0.68 0.34 0 0 Z " fill="#32545C" transform="translate(219,105)"/>
<path d="M0 0 C0.33 0 0.66 0 1 0 C1 4.95 1 9.9 1 15 C2.65 15 4.3 15 6 15 C8.5 16.8125 8.5 16.8125 11 19 C12.6502694 20.0268343 14.31243867 21.03567924 16 22 C15.67 23.32 15.34 24.64 15 26 C12.68637791 24.68944504 10.37407322 23.3766597 8.0625 22.0625 C7.40314453 21.68931641 6.74378906 21.31613281 6.06445312 20.93164062 C1.11328125 18.11328125 1.11328125 18.11328125 0 17 C-0.07325168 14.13732433 -0.09238205 11.299281 -0.0625 8.4375 C-0.05798828 7.63119141 -0.05347656 6.82488281 -0.04882812 5.99414062 C-0.03700518 3.99606244 -0.01906914 1.99802217 0 0 Z " fill="#DEBBB7" transform="translate(25,377)"/>
<path d="M0 0 C-2 2 -2 2 -4.3828125 2.1953125 C-5.28773438 2.17210937 -6.19265625 2.14890625 -7.125 2.125 C-8.03507812 2.10695313 -8.94515625 2.08890625 -9.8828125 2.0703125 C-10.58148438 2.04710937 -11.28015625 2.02390625 -12 2 C-12 2.66 -12 3.32 -12 4 C-19.51339553 9.45120825 -28.37029685 13.63976161 -37 17 C-37 16.01 -37 15.02 -37 14 C-36.34773438 13.75765625 -35.69546875 13.5153125 -35.0234375 13.265625 C-29.89812707 11.30016672 -25.47966169 9.22952355 -21 6 C-16.28571429 3 -16.28571429 3 -14 3 C-14 2.34 -14 1.68 -14 1 C-8.83955235 -0.512545 -5.34001821 -1.33500455 0 0 Z " fill="#F8DAD7" transform="translate(157,367)"/>
<path d="M0 0 C0.66 0.33 1.32 0.66 2 1 C-7.51145038 8 -7.51145038 8 -13 8 C-13 8.99 -13 9.98 -13 11 C-13.99 11.33 -14.98 11.66 -16 12 C-16.33 12.66 -16.66 13.32 -17 14 C-19.60941676 14.83442366 -22.15621732 15.54376395 -24.8125 16.1875 C-25.53759766 16.37763672 -26.26269531 16.56777344 -27.00976562 16.76367188 C-30.73110789 17.68634685 -33.34254168 18.13150237 -37 17 C-36.39414062 16.82984375 -35.78828125 16.6596875 -35.1640625 16.484375 C-30.52930509 15.14386055 -25.95575517 13.69516067 -21.4375 12 C-20.19806641 11.5359375 -20.19806641 11.5359375 -18.93359375 11.0625 C-16.65437659 10.09502984 -16.65437659 10.09502984 -16 7 C-14.37985244 6.52745696 -12.75504127 6.06667649 -11.11328125 5.67578125 C-7.76570455 4.60529924 -4.90483262 2.75080134 -1.91796875 0.92578125 C-1.28503906 0.62027344 -0.65210938 0.31476563 0 0 Z " fill="#365458" transform="translate(353,368)"/>
<path d="M0 0 C0.99 0.33 1.98 0.66 3 1 C-0.34359923 5.68103892 -3.31090742 9.35315741 -9 11 C-9.66 10.67 -10.32 10.34 -11 10 C-12.67654729 10.27942455 -14.34608154 10.60828247 -16 11 C-15.67 10.34 -15.34 9.68 -15 9 C-14.34 9 -13.68 9 -13 9 C-12.67 8.01 -12.34 7.02 -12 6 C-10.0390625 4.90234375 -10.0390625 4.90234375 -7.625 3.9375 C-4.78250709 2.78476265 -2.57934445 1.71956297 0 0 Z " fill="#F5CCC7" transform="translate(92,328)"/>
<path d="M0 0 C0.66 0.33 1.32 0.66 2 1 C-3.22771463 4.04157942 -6.92671312 5.50610724 -13 5 C-13 5.99 -13 6.98 -13 8 C-14.24735567 8.6509259 -15.49801832 9.29551669 -16.75 9.9375 C-17.44609375 10.29714844 -18.1421875 10.65679687 -18.859375 11.02734375 C-21 12 -21 12 -23.20703125 12.51953125 C-23.79871094 12.67808594 -24.39039063 12.83664063 -25 13 C-25.70394612 14.31403276 -26.36345658 15.6520257 -27 17 C-28.62339805 18.70884005 -30.29319053 20.37446717 -32 22 C-32.763125 22.763125 -33.52625 23.52625 -34.3125 24.3125 C-34.869375 24.869375 -35.42625 25.42625 -36 26 C-34.52410328 21.57230983 -32.26930159 17.3663135 -29 14 C-28.01 14 -27.02 14 -26 14 C-25.67 13.01 -25.34 12.02 -25 11 C-22.75 9.68359375 -22.75 9.68359375 -20 8.4375 C-16.29032372 6.97635423 -16.29032372 6.97635423 -14 4 C-12.96875 3.855625 -11.9375 3.71125 -10.875 3.5625 C-7.73599678 3.10683824 -5.95343769 2.65649314 -3.1875 1.375 C-2.135625 0.92125 -1.08375 0.4675 0 0 Z " fill="#659094" transform="translate(251,89)"/>
<path d="M0 0 C3.61267259 1.34184982 6.70476236 3.01719225 10 5 C13.23878355 6.74707849 16.49157278 8.46603664 19.74609375 10.18359375 C28.30911409 14.96367113 28.30911409 14.96367113 31 19 C25.25 17.125 25.25 17.125 23 16 C23 15.34 23 14.68 23 14 C22.44183594 13.89429688 21.88367188 13.78859375 21.30859375 13.6796875 C18.56901368 12.87311063 16.48892872 11.62796509 14.0625 10.125 C12.81146484 9.35542969 12.81146484 9.35542969 11.53515625 8.5703125 C10.69855469 8.05210937 9.86195312 7.53390625 9 7 C6.04483109 5.20702471 3.11519804 3.49991017 0 2 C0 1.34 0 0.68 0 0 Z " fill="#F9DBD8" transform="translate(26,318)"/>
<path d="M0 0 C0.33 0.66 0.66 1.32 1 2 C0.34 2 -0.32 2 -1 2 C-1.0928125 2.8971875 -1.0928125 2.8971875 -1.1875 3.8125 C-2.35124368 6.94565605 -4.06250469 7.49861351 -7 9 C-7.886875 9.515625 -8.77375 10.03125 -9.6875 10.5625 C-14.01833483 12.44191889 -18.3617776 13.22085197 -23 14 C-22.67 13.01 -22.34 12.02 -22 11 C-19.53125 10.12109375 -19.53125 10.12109375 -16.5 9.4375 C-14.6525318 9.01610584 -12.81389201 8.54818572 -11 8 C-10.67 7.34 -10.34 6.68 -10 6 C-8.27574383 4.97821857 -6.54917407 3.95869907 -4.7890625 3 C-3.14478395 2.08092727 -1.56733776 1.04489184 0 0 Z " fill="#37575D" transform="translate(302,137)"/>
<path d="M0 0 C0.33 0 0.66 0 1 0 C1.04254356 1.99954746 1.04080783 4.00041636 1 6 C0.67 6.33 0.34 6.66 0 7 C-0.86243021 17.95286361 0.06208537 27.31928419 3.80859375 37.64453125 C4.80617952 40.45412528 5.51407146 43.06767263 6 46 C-1.47342915 37.10306053 -2.34015802 25.82952914 -2.25 14.6875 C-2.25773437 13.71232422 -2.26546875 12.73714844 -2.2734375 11.73242188 C-2.27085938 10.79333984 -2.26828125 9.85425781 -2.265625 8.88671875 C-2.26336914 8.04326904 -2.26111328 7.19981934 -2.25878906 6.33081055 C-1.97960909 3.81634719 -1.2617608 2.17425067 0 0 Z " fill="#41656B" transform="translate(79,122)"/>
<path d="M0 0 C-6.88087566 4.6991346 -12.79571289 8.27278166 -21 10 C-21 10.99 -21 11.98 -21 13 C-23.31 13.33 -25.62 13.66 -28 14 C-23.49195834 10.12141795 -18.55022433 7.1819288 -13.4375 4.1875 C-12.16229492 3.4150293 -12.16229492 3.4150293 -10.86132812 2.62695312 C-10.03955078 2.14548828 -9.21777344 1.66402344 -8.37109375 1.16796875 C-7.62786865 0.72735107 -6.88464355 0.2867334 -6.11889648 -0.16723633 C-3.61988478 -1.14939198 -2.47979033 -0.91261052 0 0 Z " fill="#FBEDEB" transform="translate(141,371)"/>
<path d="M0 0 C4.87664009 -0.34833144 7.77050005 0.58314288 12 3 C12 3.66 12 4.32 12 5 C12.70125 4.9175 13.4025 4.835 14.125 4.75 C17.95854284 5.08335155 19.84235225 6.83298684 23 9 C25.63396821 10.13836962 28.28389482 11.06341201 31 12 C31 12.99 31 13.98 31 15 C29.0625 14.625 29.0625 14.625 27 14 C26.67 13.34 26.34 12.68 26 12 C22.97065509 11.34227572 22.97065509 11.34227572 20 11 C20 10.34 20 9.68 20 9 C19.01 9 18.02 9 17 9 C16.67 8.34 16.34 7.68 16 7 C14.01578741 6.28771856 12.01032877 5.63484067 10 5 C6.65201911 3.70271977 3.32546409 2.35384506 0 1 C0 0.67 0 0.34 0 0 Z " fill="#476D74" transform="translate(319,203)"/>
<path d="M0 0 C0.99 0.33 1.98 0.66 3 1 C3.12375 1.804375 3.2475 2.60875 3.375 3.4375 C3.684375 4.7059375 3.684375 4.7059375 4 6 C4.66 6.33 5.32 6.66 6 7 C6.7920321 17.04707384 5.73904662 23.63055702 0 32 C-0.66 32 -1.32 32 -2 32 C-2 32.66 -2 33.32 -2 34 C-2.66 33.67 -3.32 33.34 -4 33 C-3.54625 32.5875 -3.0925 32.175 -2.625 31.75 C0.66612687 28.20570953 1.3547376 24.73192428 2 20 C2.99 20 3.98 20 5 20 C4.69240822 18.02006459 4.3787932 16.04106401 4.0625 14.0625 C3.88847656 12.96035156 3.71445312 11.85820313 3.53515625 10.72265625 C3.28154864 8.09573071 3.28154864 8.09573071 2 7 C1.95936168 5.33382885 1.957279 3.66611905 2 2 C1.34 2 0.68 2 0 2 C0 1.34 0 0.68 0 0 Z " fill="#42666C" transform="translate(310,100)"/>
<path d="M0 0 C1.9587043 0.14076315 3.91696093 0.2877676 5.875 0.4375 C7.51082031 0.55931641 7.51082031 0.55931641 9.1796875 0.68359375 C12 1 12 1 14 2 C14 2.66 14 3.32 14 4 C17.3 4 20.6 4 24 4 C24 4.66 24 5.32 24 6 C25.65 6 27.3 6 29 6 C29 6.33 29 6.66 29 7 C27.52093108 7.02689216 26.04172517 7.04634621 24.5625 7.0625 C23.32693359 7.07990234 23.32693359 7.07990234 22.06640625 7.09765625 C20 7 20 7 19 6 C16.48510484 5.71606022 13.97010418 5.5518876 11.4453125 5.37890625 C9 5 9 5 6 3 C4.0103005 2.60986284 2.00980131 2.26797351 0 2 C0 1.34 0 0.68 0 0 Z " fill="#4D6F73" transform="translate(233,384)"/>
<path d="M0 0 C-0.33 0.99 -0.66 1.98 -1 3 C-3.475 2.505 -3.475 2.505 -6 2 C-6 2.66 -6 3.32 -6 4 C-6.79664063 4.23074219 -7.59328125 4.46148437 -8.4140625 4.69921875 C-15.45147073 6.72885402 -15.45147073 6.72885402 -21.4375 10.75 C-24 13 -24 13 -26.875 13.3125 C-27.926875 13.1578125 -27.926875 13.1578125 -29 13 C-22.34639672 6.34639672 -9.36650831 -0.25314887 0 0 Z " fill="#FAE6E4" transform="translate(155,294)"/>
<path d="M0 0 C3.23450839 2.78358497 3.54146598 5.10462404 3.87890625 9.33984375 C4.86012473 30.89499809 4.86012473 30.89499809 1.45703125 34.74609375 C0.97621094 35.15988281 0.49539062 35.57367188 0 36 C0 34.68 0 33.36 0 32 C0.66 32 1.32 32 2 32 C1.86055132 27.79142976 1.71231417 23.583213 1.5625 19.375 C1.52318359 18.18519531 1.48386719 16.99539062 1.44335938 15.76953125 C1.40146484 14.61582031 1.35957031 13.46210938 1.31640625 12.2734375 C1.27974854 11.21560059 1.24309082 10.15776367 1.20532227 9.06787109 C0.99937941 5.99072727 0.55819179 3.0313191 0 0 Z " fill="#50767C" transform="translate(175,136)"/>
<path d="M0 0 C0.66 0.33 1.32 0.66 2 1 C1.38253906 1.36351562 0.76507813 1.72703125 0.12890625 2.1015625 C-4.24025345 4.69512762 -8.5472195 7.33075482 -12.75 10.1875 C-17.58979995 13.45095665 -22.54803901 15.91542668 -28 18 C-28 17.34 -28 16.68 -28 16 C-24.33424729 13.88134239 -20.66805947 11.76344032 -17.00146484 9.64624023 C-15.75394874 8.92574531 -14.5065522 8.20504332 -13.25927734 7.48413086 C-11.46743592 6.44851209 -9.67516716 5.41363643 -7.8828125 4.37890625 C-6.26463623 3.44413452 -6.26463623 3.44413452 -4.61376953 2.49047852 C-3.0955855 1.62474776 -1.56316922 0.78158461 0 0 Z " fill="#AB493D" transform="translate(141,341)"/>
<path d="M0 0 C1.21236328 0.01353516 1.21236328 0.01353516 2.44921875 0.02734375 C3.37154297 0.04474609 3.37154297 0.04474609 4.3125 0.0625 C4.3125 0.3925 4.3125 0.7225 4.3125 1.0625 C-0.3832726 2.46124077 -5.06693895 3.6131985 -9.8671875 4.59765625 C-11.69446343 4.89940841 -11.69446343 4.89940841 -12.6875 6.0625 C-14.09841085 6.27238756 -15.51715476 6.43081236 -16.9375 6.5625 C-20.24035424 6.89436574 -23.44472638 7.3302608 -26.6875 8.0625 C-23.23698169 4.97380075 -19.52326125 3.99783299 -15.125 2.9375 C-3.24390395 -0.0470131 -3.24390395 -0.0470131 0 0 Z " fill="#598287" transform="translate(242.6875,197.9375)"/>
<path d="M0 0 C0.66 0.33 1.32 0.66 2 1 C0.42667714 2.345131 -1.15906141 3.67575054 -2.75 5 C-3.63171875 5.7425 -4.5134375 6.485 -5.421875 7.25 C-8 9 -8 9 -12 9 C-12 9.66 -12 10.32 -12 11 C-12.928125 11.268125 -13.85625 11.53625 -14.8125 11.8125 C-17.88880839 12.95857567 -18.83330936 13.73482342 -21 16 C-23.1875 16.6875 -23.1875 16.6875 -25 17 C-24.67 16.34 -24.34 15.68 -24 15 C-23.34 15 -22.68 15 -22 15 C-22 14.34 -22 13.68 -22 13 C-21.19949219 12.56300781 -21.19949219 12.56300781 -20.3828125 12.1171875 C-13.4547701 8.30556555 -6.58181013 4.38787342 0 0 Z " fill="#FBEBEA" transform="translate(107,352)"/>
<path d="M0 0 C0.52078125 0.24363281 1.0415625 0.48726563 1.578125 0.73828125 C-0.74492064 2.70393526 -2.48756576 3.75880961 -5.421875 4.67578125 C-8.72651402 5.84617423 -10.02458733 7.26108399 -12.421875 9.73828125 C-16.13791431 11.33086953 -20.45400898 10.80441235 -24.421875 10.73828125 C-24.421875 10.40828125 -24.421875 10.07828125 -24.421875 9.73828125 C-23.390625 9.57328125 -22.359375 9.40828125 -21.296875 9.23828125 C-16.10113818 7.99987086 -11.81488522 5.22556 -7.34716797 2.39453125 C-2.92304226 -0.31587715 -2.92304226 -0.31587715 0 0 Z " fill="#FBEAE8" transform="translate(88.421875,329.26171875)"/>
<path d="M0 0 C-1.25 1.5 -1.25 1.5 -3 3 C-4.32 3 -5.64 3 -7 3 C-7.33 3.99 -7.66 4.98 -8 6 C-10.43359375 7.60546875 -10.43359375 7.60546875 -13.4375 9.1875 C-14.92056641 9.98220703 -14.92056641 9.98220703 -16.43359375 10.79296875 C-19 12 -19 12 -21 12 C-20.67 11.01 -20.34 10.02 -20 9 C-18.22265625 8.19140625 -18.22265625 8.19140625 -16.0625 7.5625 C-12.82649192 6.63157947 -12.82649192 6.63157947 -11 4 C-9.47561059 0.95122119 -6.97018934 0.53883695 -3.875 -0.58203125 C-2 -1 -2 -1 0 0 Z " fill="#F8DAD6" transform="translate(118,385)"/>
<path d="M0 0 C-1.66526565 1.00233133 -3.33235966 2.00162459 -5 3 C-5.55864746 3.33451172 -6.11729492 3.66902344 -6.69287109 4.01367188 C-8.51934878 5.10127673 -10.35276921 6.17638532 -12.1875 7.25 C-12.81591797 7.62640625 -13.44433594 8.0028125 -14.09179688 8.390625 C-15.6933518 9.32243877 -17.34397308 10.1688382 -19 11 C-19.66 10.67 -20.32 10.34 -21 10 C-6.78640777 -2.26213592 -6.78640777 -2.26213592 0 0 Z " fill="#F8DAD7" transform="translate(120,350)"/>
<path d="M0 0 C4.14298667 0.59834725 7.18194377 2.00664285 10.8125 4.0625 C11.78832031 4.61035156 12.76414062 5.15820312 13.76953125 5.72265625 C14.50558594 6.14417969 15.24164063 6.56570313 16 7 C15.67 7.66 15.34 8.32 15 9 C14.33613281 8.72285156 13.67226563 8.44570313 12.98828125 8.16015625 C12.10527344 7.79792969 11.22226562 7.43570312 10.3125 7.0625 C9.44238281 6.70285156 8.57226562 6.34320313 7.67578125 5.97265625 C5.11820735 5.0429688 2.6778677 4.45837375 0 4 C0 2.68 0 1.36 0 0 Z " fill="#FAE6E3" transform="translate(26,388)"/>
<path d="M0 0 C0.66 0.33 1.32 0.66 2 1 C0.71937515 2.7074998 -0.61767557 4.37373596 -2 6 C-2.66 6 -3.32 6 -4 6 C-4.268125 6.639375 -4.53625 7.27875 -4.8125 7.9375 C-6 10 -6 10 -9 11 C-9.0825 11.78375 -9.165 12.5675 -9.25 13.375 C-10 16 -10 16 -12.0625 17.3125 C-13.0215625 17.6528125 -13.0215625 17.6528125 -14 18 C-13.34 16.02 -12.68 14.04 -12 12 C-11.34 12 -10.68 12 -10 12 C-10 11.34 -10 10.68 -10 10 C-9.34 10 -8.68 10 -8 10 C-8 9.01 -8 8.02 -8 7 C-7.01 7 -6.02 7 -5 7 C-5 6.34 -5 5.68 -5 5 C-3.37446717 3.29319053 -1.70884005 1.62339805 0 0 Z " fill="#659095" transform="translate(180,226)"/>
<path d="M0 0 C4.65123401 1.328924 7.99780575 3.3318705 12 6 C13.99220557 6.68960962 15.99105606 7.36079057 18 8 C18.66 8.66 19.32 9.32 20 10 C18.7315625 9.7834375 18.7315625 9.7834375 17.4375 9.5625 C13.96406851 8.9941203 10.48554338 8.48797607 7 8 C7 7.34 7 6.68 7 6 C6.01 5.67 5.02 5.34 4 5 C4 4.34 4 3.68 4 3 C2.68 2.34 1.36 1.68 0 1 C0 0.67 0 0.34 0 0 Z " fill="#426369" transform="translate(103,186)"/>
<path d="M0 0 C0.66 0.33 1.32 0.66 2 1 C-1.50033328 3.98557838 -4.86501396 6.0090808 -9 8 C-12.67934724 9.97688684 -16.3399585 11.98762843 -20 14 C-20.33 13.34 -20.66 12.68 -21 12 C-17.54914225 9.96618904 -14.08820304 7.95020566 -10.625 5.9375 C-9.64015625 5.35677734 -8.6553125 4.77605469 -7.640625 4.17773438 C-6.69960937 3.63310547 -5.75859375 3.08847656 -4.7890625 2.52734375 C-3.91975098 2.01937256 -3.05043945 1.51140137 -2.15478516 0.98803711 C-1.44370605 0.66198486 -0.73262695 0.33593262 0 0 Z " fill="#A7483B" transform="translate(117,390)"/>
<path d="M0 0 C2.36280927 2.14800843 3.58340234 4.16680467 5 7 C5.66 7.33 6.32 7.66 7 8 C9.42785455 11.94526365 11.33730817 16.8074969 10.625 21.4375 C10.41875 21.953125 10.2125 22.46875 10 23 C10 22.01 10 21.02 10 20 C9.34 20 8.68 20 8 20 C7.87625 18.865625 7.7525 17.73125 7.625 16.5625 C7.41875 15.386875 7.2125 14.21125 7 13 C6.34 12.67 5.68 12.34 5 12 C5 11.34 5 10.68 5 10 C4.34 10 3.68 10 3 10 C0.96564469 6.27034861 0 4.33094958 0 0 Z " fill="#648F94" transform="translate(384,249)"/>
<path d="M0 0 C8.00180661 -0.54249536 14.46595398 1.39161312 22 4 C22 4.33 22 4.66 22 5 C19.69 5 17.38 5 15 5 C15 4.34 15 3.68 15 3 C14.12988281 3.03480469 14.12988281 3.03480469 13.2421875 3.0703125 C8.38588834 3.18250423 4.57067605 2.87514915 0 1 C0 0.67 0 0.34 0 0 Z " fill="#729FA3" transform="translate(297,199)"/>
<path d="M0 0 C-0.75925781 0.31453125 -1.51851562 0.6290625 -2.30078125 0.953125 C-3.79158203 1.59507812 -3.79158203 1.59507812 -5.3125 2.25 C-6.29863281 2.66765625 -7.28476563 3.0853125 -8.30078125 3.515625 C-11.11906523 5.06547726 -12.19005824 6.41436891 -14 9 C-16.6875 9.75 -16.6875 9.75 -19 10 C-19 9.34 -19 8.68 -19 8 C-16.734375 6.34375 -16.734375 6.34375 -13.75 4.5 C-12.77546875 3.8915625 -11.8009375 3.283125 -10.796875 2.65625 C-9.87390625 2.1096875 -8.9509375 1.563125 -8 1 C-7.30390625 0.5771875 -6.6078125 0.154375 -5.890625 -0.28125 C-3.54538274 -1.1728297 -2.32498393 -0.8303514 0 0 Z " fill="#FBEDEB" transform="translate(109,319)"/>
<path d="M0 0 C-8.99259503 5.16241567 -8.99259503 5.16241567 -13.4375 5.25 C-14.61119141 5.28867187 -14.61119141 5.28867187 -15.80859375 5.328125 C-18.47931509 4.92823089 -19.31977439 4.05300878 -21 2 C-20.1646875 2.17789062 -20.1646875 2.17789062 -19.3125 2.359375 C-13.73296689 3.3018637 -10.61395371 2.86507742 -5.82421875 -0.1875 C-3.50224784 -1.22169689 -2.34815509 -0.82937045 0 0 Z " fill="#FBECEA" transform="translate(82,370)"/>
<path d="M0 0 C1.32 0.33 2.64 0.66 4 1 C-7.33712984 8.66742597 -7.33712984 8.66742597 -14 10 C-12.32382616 8.07240008 -11.40227852 7.09465377 -8.875 6.5 C-8.25625 6.335 -7.6375 6.17 -7 6 C-6.67 5.01 -6.34 4.02 -6 3 C-4.02 2.67 -2.04 2.34 0 2 C0 1.34 0 0.68 0 0 Z " fill="#F8D8D5" transform="translate(95,361)"/>
<path d="M0 0 C0.8971875 0.309375 0.8971875 0.309375 1.8125 0.625 C-3.03012946 5.21275423 -7.9278205 7.41060745 -14.1875 9.625 C-14.1875 8.965 -14.1875 8.305 -14.1875 7.625 C-13.259375 7.191875 -12.33125 6.75875 -11.375 6.3125 C-8.65395625 4.87194743 -7.2015861 3.83090382 -5.1875 1.625 C-2.1875 -0.375 -2.1875 -0.375 0 0 Z " fill="#F8DAD6" transform="translate(93.1875,398.375)"/>
<path d="M0 0 C0 0.99 0 1.98 0 3 C-1.46315139 4.30057902 -2.93501379 5.59525662 -4.48046875 6.796875 C-6.09224541 8.01036041 -6.09224541 8.01036041 -7.625 9.75 C-9.32642969 11.29675426 -10.76134195 11.61402447 -13 12 C-12.67 11.01 -12.34 10.02 -12 9 C-11.01 9 -10.02 9 -9 9 C-9 8.34 -9 7.68 -9 7 C-8.01 6.34 -7.02 5.68 -6 5 C-5.67 4.01 -5.34 3.02 -5 2 C-2.4375 0.8125 -2.4375 0.8125 0 0 Z " fill="#507478" transform="translate(372,354)"/>
<path d="M0 0 C0.99 0.33 1.98 0.66 3 1 C3 9.58 3 18.16 3 27 C2.34 27 1.68 27 1 27 C1.00523682 26.32420898 1.01047363 25.64841797 1.01586914 24.95214844 C1.03668007 21.88477511 1.04967329 18.81741667 1.0625 15.75 C1.07087891 14.68652344 1.07925781 13.62304688 1.08789062 12.52734375 C1.09111328 11.50253906 1.09433594 10.47773438 1.09765625 9.421875 C1.10289307 8.47924805 1.10812988 7.53662109 1.11352539 6.56542969 C1.00968082 4.21876563 0.66706529 2.24355522 0 0 Z " fill="#213E47" transform="translate(398,281)"/>
<path d="M0 0 C0.66 0.33 1.32 0.66 2 1 C1.56816406 1.37898438 1.13632813 1.75796875 0.69140625 2.1484375 C-2.10609248 5.21082641 -3.70696114 8.93563457 -5.59765625 12.6015625 C-7 15 -7 15 -9 16 C-7.7874262 12.27566618 -6.49140021 8.62197194 -5 5 C-4.34 5 -3.68 5 -3 5 C-2.814375 4.0409375 -2.814375 4.0409375 -2.625 3.0625 C-2.41875 2.381875 -2.2125 1.70125 -2 1 C-1.34 0.67 -0.68 0.34 0 0 Z " fill="#33555E" transform="translate(89,105)"/>
<path d="M0 0 C6.15651906 1.23130381 8.91080486 3.21264959 13 8 C13 8.66 13 9.32 13 10 C12.01 10 11.02 10 10 10 C10 9.01 10 8.02 10 7 C9.34 7 8.68 7 8 7 C8 6.34 8 5.68 8 5 C7.13375 4.814375 7.13375 4.814375 6.25 4.625 C3.97664233 3.99351176 2.0746471 3.11141809 0 2 C0 1.34 0 0.68 0 0 Z " fill="#6F9CA0" transform="translate(297,92)"/>
<path d="M0 0 C2.97 0 5.94 0 9 0 C9 0.66 9 1.32 9 2 C10.1446875 2.1546875 10.1446875 2.1546875 11.3125 2.3125 C14.17059424 3.04364039 15.15742885 3.76951913 17 6 C12.6520818 5.34122452 9.02582681 3.72535435 5 2 C2.22111387 1.30859478 2.22111387 1.30859478 0 1 C0 0.67 0 0.34 0 0 Z " fill="#3C6068" transform="translate(287,88)"/>
<path d="M0 0 C0.66 0.33 1.32 0.66 2 1 C-9.75 10 -9.75 10 -16 10 C-16 9.01 -16 8.02 -16 7 C-14.5459375 6.6596875 -14.5459375 6.6596875 -13.0625 6.3125 C-8.95011657 5.17110378 -5.54227189 3.14028661 -1.91796875 0.92578125 C-1.28503906 0.62027344 -0.65210938 0.31476563 0 0 Z " fill="#5E8487" transform="translate(353,368)"/>
<path d="M0 0 C4.62 0 9.24 0 14 0 C8.375 4.5 8.375 4.5 3 4 C3 3.34 3 2.68 3 2 C2.01 1.67 1.02 1.34 0 1 C0 0.67 0 0.34 0 0 Z " fill="#F8D8D4" transform="translate(62,339)"/>
<path d="M0 0 C0.84291332 2.39003272 1.15384404 3.5854308 0.2578125 6 C-0.11601562 6.66 -0.48984375 7.32 -0.875 8 C-2.36369506 10.66507647 -3.37155174 13.00484233 -4 16 C-4.66 15.67 -5.32 15.34 -6 15 C-5.74438677 12.6568787 -5.40729228 10.32156597 -5 8 C-4.34 7.67 -3.68 7.34 -3 7 C-1.94647157 4.69034152 -0.94280904 2.3570226 0 0 Z " fill="#689194" transform="translate(394,318)"/>
<path d="M0 0 C0.99 0 1.98 0 3 0 C3 1.98 3 3.96 3 6 C3.66 6 4.32 6 5 6 C5 9.3 5 12.6 5 16 C4.67 16 4.34 16 4 16 C3.79503906 15.09636719 3.59007812 14.19273437 3.37890625 13.26171875 C3.10949219 12.08222656 2.84007812 10.90273438 2.5625 9.6875 C2.16224609 7.92986328 2.16224609 7.92986328 1.75390625 6.13671875 C1.04686031 2.99763029 1.04686031 2.99763029 0 0 Z " fill="#365961" transform="translate(393,265)"/>
<path d="M0 0 C1.875 0.1875 1.875 0.1875 4 1 C5.5225431 3.68257593 6.12235992 5.24544717 5.625 8.3125 C5.41875 8.869375 5.2125 9.42625 5 10 C4.54625 9.195625 4.0925 8.39125 3.625 7.5625 C2.25274335 4.91143428 2.25274335 4.91143428 0 4 C0 2.68 0 1.36 0 0 Z " fill="#466D73" transform="translate(169,124)"/>
<path d="M0 0 C-3.82517513 2.39073445 -7.59665524 2.55966552 -12 3 C-12 3.66 -12 4.32 -12 5 C-12.66 5 -13.32 5 -14 5 C-13 2 -13 2 -9.8125 0.25 C-6.26388754 -1.16504588 -3.72125326 -0.99838502 0 0 Z " fill="#FBEBE9" transform="translate(155,365)"/>
<path d="M0 0 C2.16874252 0.50603992 3.99967627 0.99983813 6 2 C6 2.66 6 3.32 6 4 C6.99 4 7.98 4 9 4 C9.66 5.65 10.32 7.3 11 9 C7.535 7.02 7.535 7.02 4 5 C4 4.34 4 3.68 4 3 C2.68 2.67 1.36 2.34 0 2 C0 1.34 0 0.68 0 0 Z " fill="#4B7279" transform="translate(362,226)"/>
<path d="M0 0 C4.16486198 -0.30017023 6.65015727 0.54675054 10.3125 2.5 C11.19550781 2.9640625 12.07851563 3.428125 12.98828125 3.90625 C13.65214844 4.2671875 14.31601562 4.628125 15 5 C14.67 5.66 14.34 6.32 14 7 C12.0625 6.625 12.0625 6.625 10 6 C9.67 5.34 9.34 4.68 9 4 C5.97065509 3.34227572 5.97065509 3.34227572 3 3 C3 2.34 3 1.68 3 1 C2.01 0.67 1.02 0.34 0 0 Z " fill="#578086" transform="translate(336,211)"/>
<path d="M0 0 C0.99 0 1.98 0 3 0 C1.88809524 3.33571429 1.53679327 3.58417079 -1.375 5.1875 C-1.98085937 5.53167969 -2.58671875 5.87585938 -3.2109375 6.23046875 C-5 7 -5 7 -8 7 C-8 6.34 -8 5.68 -8 5 C-7.01 4.67 -6.02 4.34 -5 4 C-4.67 3.34 -4.34 2.68 -4 2 C-2.68 2 -1.36 2 0 2 C0 1.34 0 0.68 0 0 Z " fill="#2B4D56" transform="translate(234,93)"/>
<path d="M0 0 C1.4540625 0.0309375 1.4540625 0.0309375 2.9375 0.0625 C-1.6217907 3.10202713 -5.53412419 5.0625 -11.0625 5.0625 C-11.0625 4.0725 -11.0625 3.0825 -11.0625 2.0625 C-9.928125 1.918125 -8.79375 1.77375 -7.625 1.625 C-3.97252634 1.04829363 -3.54680005 0.07238367 0 0 Z " fill="#31545D" transform="translate(251.0625,87.9375)"/>
<path d="M0 0 C0.79277344 0.01353516 1.58554687 0.02707031 2.40234375 0.04101562 C4.35185564 0.07624777 6.30101626 0.13005179 8.25 0.1875 C8.25 0.5175 8.25 0.8475 8.25 1.1875 C7.25097656 1.24808594 6.25195312 1.30867188 5.22265625 1.37109375 C3.93230469 1.45488281 2.64195312 1.53867188 1.3125 1.625 C0.02472656 1.70621094 -1.26304687 1.78742188 -2.58984375 1.87109375 C-5.61023957 1.83669188 -5.61023957 1.83669188 -6.75 3.1875 C-8.74958364 3.22830783 -10.75045254 3.23004356 -12.75 3.1875 C-8.95853035 -0.69569875 -5.06357505 -0.16374745 0 0 Z " fill="#86B6B8" transform="translate(261.75,88.8125)"/>
<path d="M0 0 C0.66 0.33 1.32 0.66 2 1 C0.93106782 2.03590338 -0.15578488 3.05333942 -1.25 4.0625 C-2.15492187 4.91521484 -2.15492187 4.91521484 -3.078125 5.78515625 C-5 7 -5 7 -7.234375 6.68359375 C-7.81703125 6.45800781 -8.3996875 6.23242188 -9 6 C-6.45368965 3.02930459 -3.57769851 1.5224249 0 0 Z " fill="#FBE8E7" transform="translate(118,311)"/>
<path d="M0 0 C0 3 0 3 -1 6 C-1.66 6 -2.32 6 -3 6 C-3 6.66 -3 7.32 -3 8 C-5.31 8.66 -7.62 9.32 -10 10 C-6.38671875 5.3125 -6.38671875 5.3125 -5 4 C-4.01 4 -3.02 4 -2 4 C-1.34 2.68 -0.68 1.36 0 0 Z " fill="#486B6F" transform="translate(169,181)"/>
<path d="M0 0 C1.32 0.33 2.64 0.66 4 1 C4 1.66 4 2.32 4 3 C4.61875 3.268125 5.2375 3.53625 5.875 3.8125 C8 5 8 5 10 8 C8.35 7.67 6.7 7.34 5 7 C5 6.34 5 5.68 5 5 C4.01 4.67 3.02 4.34 2 4 C2 3.34 2 2.68 2 2 C1.34 2 0.68 2 0 2 C0 1.34 0 0.68 0 0 Z " fill="#4F7377" transform="translate(217,142)"/>
<path d="M0 0 C0.99 0.33 1.98 0.66 3 1 C-1.61012242 3.95047835 -4.36529617 5.5497272 -10 5 C-10 4.34 -10 3.68 -10 3 C-6.97265625 2.26757812 -6.97265625 2.26757812 -3.9453125 1.53515625 C-1.9414343 1.05153008 -1.9414343 1.05153008 0 0 Z " fill="#F8D6D2" transform="translate(75,373)"/>
<path d="M0 0 C-3.55639236 2.30119506 -6.94718288 3.77472971 -11 5 C-10 2 -10 2 -7.1875 0.25 C-4.03596914 -0.98589446 -3.03070628 -1.28222189 0 0 Z " fill="#FBEAE8" transform="translate(122,347)"/>
<path d="M0 0 C2.04119788 1.61594832 4.04072937 3.2856382 6 5 C6 5.66 6 6.32 6 7 C6.99 7.33 7.98 7.66 9 8 C9.6875 10.0625 9.6875 10.0625 10 12 C9.01 11.67 8.02 11.34 7 11 C7 10.34 7 9.68 7 9 C6.34 9 5.68 9 5 9 C3.08152136 6.12228205 1.49920512 3.11373372 0 0 Z " fill="#4F7378" transform="translate(87,170)"/>
<path d="M0 0 C0.33 0 0.66 0 1 0 C1 1.65 1 3.3 1 5 C0.34 5 -0.32 5 -1 5 C-1.12375 5.721875 -1.2475 6.44375 -1.375 7.1875 C-1.9904931 9.95721894 -2.88444374 12.3970354 -4 15 C-5 12 -5 12 -4.125 10.1875 C-3.75375 9.465625 -3.3825 8.74375 -3 8 C-2.61709538 6.00889599 -2.27395385 4.00899487 -2 2 C-1.34 2 -0.68 2 0 2 C0 1.34 0 0.68 0 0 Z " fill="#7AA8AB" transform="translate(176,163)"/>
<path d="M0 0 C-2.77079887 3.80984844 -6.62868145 4.06840752 -11 5 C-10 2 -10 2 -8.22265625 1.015625 C-7.15337891 0.63664062 -7.15337891 0.63664062 -6.0625 0.25 C-5.35222656 -0.01296875 -4.64195313 -0.2759375 -3.91015625 -0.546875 C-2 -1 -2 -1 0 0 Z " fill="#FAE2E0" transform="translate(118,385)"/>
<path d="M0 0 C2.475 0.495 2.475 0.495 5 1 C5 1.66 5 2.32 5 3 C5.969375 3.28875 6.93875 3.5775 7.9375 3.875 C11 5 11 5 12 7 C8.31898615 6.29211272 5.25496089 4.8397605 2 3 C1.34 2.01 0.68 1.02 0 0 Z " fill="#FBEDEB" transform="translate(34,321)"/>
<path d="M0 0 C-3.63195496 2.42130331 -5.38349348 2.21022785 -9.6875 2.125 C-10.86699219 2.10695312 -12.04648437 2.08890625 -13.26171875 2.0703125 C-14.16535156 2.04710937 -15.06898438 2.02390625 -16 2 C-16 1.67 -16 1.34 -16 1 C-14.0852312 0.63571223 -12.16807707 0.28394694 -10.25 -0.0625 C-9.18265625 -0.25972656 -8.1153125 -0.45695313 -7.015625 -0.66015625 C-4.25228095 -0.97156937 -2.59053383 -0.8991416 0 0 Z " fill="#47696E" transform="translate(278,152)"/>
<path d="M0 0 C1.43861294 0.08746284 2.87597508 0.19565348 4.3125 0.3125 C5.11300781 0.37050781 5.91351563 0.42851563 6.73828125 0.48828125 C9.36272334 1.08206694 10.30820672 1.95780294 12 4 C10.56138706 3.91253716 9.12402492 3.80434652 7.6875 3.6875 C6.88699219 3.62949219 6.08648437 3.57148437 5.26171875 3.51171875 C2.63727666 2.91793306 1.69179328 2.04219706 0 0 Z " fill="#77A5A8" transform="translate(129,97)"/>
<path d="M0 0 C0.99 0.33 1.98 0.66 3 1 C0.08784151 2.89068242 -2.79384541 4.6542729 -6 6 C-9.0625 5.3125 -9.0625 5.3125 -11 4 C-11 3.67 -11 3.34 -11 3 C-10.37351562 2.86722656 -9.74703125 2.73445313 -9.1015625 2.59765625 C-8.28429687 2.42105469 -7.46703125 2.24445313 -6.625 2.0625 C-5.81289062 1.88847656 -5.00078125 1.71445312 -4.1640625 1.53515625 C-1.970537 1.07669307 -1.970537 1.07669307 0 0 Z " fill="#A33E30" transform="translate(75,379)"/>
<path d="M0 0 C0.66 0.33 1.32 0.66 2 1 C-1.75 4 -1.75 4 -4 4 C-4.33 4.99 -4.66 5.98 -5 7 C-7.0625 7.6875 -7.0625 7.6875 -9 8 C-7.83917375 4.51752126 -7.09067524 4.11180756 -4.0625 2.25 C-3.35222656 1.80140625 -2.64195312 1.3528125 -1.91015625 0.890625 C-1.27980469 0.59671875 -0.64945313 0.3028125 0 0 Z " fill="#FCEEEC" transform="translate(131,338)"/>
<path d="M0 0 C0.66 0.33 1.32 0.66 2 1 C1.43410156 1.40992187 0.86820313 1.81984375 0.28515625 2.2421875 C-0.44832031 2.78101562 -1.18179688 3.31984375 -1.9375 3.875 C-2.66839844 4.40867187 -3.39929688 4.94234375 -4.15234375 5.4921875 C-6.11098235 6.88012104 -6.11098235 6.88012104 -7 9 C-7.66 8.67 -8.32 8.34 -9 8 C-7.94660446 4.72276944 -6.36236741 3.39539906 -3.5 1.6875 C-2.345 1.130625 -1.19 0.57375 0 0 Z " fill="#78A6A9" transform="translate(95,104)"/>
<path d="M0 0 C-3.28804981 2.91227269 -5.59885603 4.49701212 -10 5 C-9.67 4.34 -9.34 3.68 -9 3 C-8.34 3 -7.68 3 -7 3 C-6.67 2.01 -6.34 1.02 -6 0 C-3.50907189 -1.24546405 -2.58919267 -0.7767578 0 0 Z " fill="#F8D8D5" transform="translate(86,334)"/>
<path d="M0 0 C-6.4 4.06153846 -6.4 4.06153846 -9.4375 3.75 C-9.953125 3.5025 -10.46875 3.255 -11 3 C-7.68381684 -0.31618316 -4.50821267 -1.6697084 0 0 Z " fill="#24444D" transform="translate(220,204)"/>
<path d="M0 0 C0.598125 0.309375 1.19625 0.61875 1.8125 0.9375 C4.08956772 2.10209704 4.08956772 2.10209704 7 3 C7 3.66 7 4.32 7 5 C7.99 5.33 8.98 5.66 10 6 C9.67 6.66 9.34 7.32 9 8 C7.68 7.34 6.36 6.68 5 6 C5 5.34 5 4.68 5 4 C4.360625 3.71125 3.72125 3.4225 3.0625 3.125 C1 2 1 2 0 0 Z " fill="#4D757B" transform="translate(151,105)"/>
<path d="M0 0 C-0.66 1.98 -1.32 3.96 -2 6 C-3.65 6.33 -5.3 6.66 -7 7 C-3.86206897 0 -3.86206897 0 0 0 Z " fill="#F6CCC7" transform="translate(97,397)"/>
<path d="M0 0 C0.58265625 0.21527344 1.1653125 0.43054688 1.765625 0.65234375 C0.50322788 1.5189299 -0.76965001 2.37026434 -2.046875 3.21484375 C-3.10841797 3.92833984 -3.10841797 3.92833984 -4.19140625 4.65625 C-6.234375 5.65234375 -6.234375 5.65234375 -9.234375 4.65234375 C-8.16330383 3.78285058 -7.07691556 2.9322017 -5.984375 2.08984375 C-5.38109375 1.61417969 -4.7778125 1.13851563 -4.15625 0.6484375 C-2.234375 -0.34765625 -2.234375 -0.34765625 0 0 Z " fill="#F8D4D1" transform="translate(129.234375,343.34765625)"/>
<path d="M0 0 C1.32 0.33 2.64 0.66 4 1 C2.92892883 1.86949317 1.84254056 2.72014205 0.75 3.5625 C0.14671875 4.03816406 -0.4565625 4.51382812 -1.078125 5.00390625 C-3 6 -3 6 -5.234375 5.65234375 C-5.81703125 5.43707031 -6.3996875 5.22179687 -7 5 C-2.25 2 -2.25 2 0 2 C0 1.34 0 0.68 0 0 Z " fill="#294348" transform="translate(357,366)"/>
<path d="M0 0 C0.99 0 1.98 0 3 0 C3 1.65 3 3.3 3 5 C3.66 5 4.32 5 5 5 C4.67 6.32 4.34 7.64 4 9 C1.3144406 6.3144406 0.93950026 3.62378672 0 0 Z " fill="#709C9F" transform="translate(83,161)"/>
<path d="M0 0 C0.66 0 1.32 0 2 0 C1.690625 0.598125 1.38125 1.19625 1.0625 1.8125 C-0.10209704 4.08956772 -0.10209704 4.08956772 -1 7 C-1.99 7 -2.98 7 -4 7 C-3.67 5.68 -3.34 4.36 -3 3 C-2.34 3 -1.68 3 -1 3 C-0.67 2.01 -0.34 1.02 0 0 Z " fill="#F6CCC7" transform="translate(79,371)"/>
<path d="M0 0 C-2 2 -2 2 -3.9453125 2.1953125 C-5.96354167 2.13020833 -7.98177083 2.06510417 -10 2 C-10 1.34 -10 0.68 -10 0 C-6.42355152 -1.2380014 -3.66305234 -0.74926071 0 0 Z " fill="#F5D2CF" transform="translate(157,367)"/>
<path d="M0 0 C0.99 0 1.98 0 3 0 C2.75 1.875 2.75 1.875 2 4 C-0.0625 5.25 -0.0625 5.25 -2 6 C-1.34 4.02 -0.68 2.04 0 0 Z " fill="#73A0A3" transform="translate(168,238)"/>
<path d="M0 0 C1.46067199 0.45082469 2.91848032 0.91093537 4.375 1.375 C5.18710938 1.63023437 5.99921875 1.88546875 6.8359375 2.1484375 C9 3 9 3 11 5 C6.62886504 4.49172849 3.61004338 3.54826592 0 1 C0 0.67 0 0.34 0 0 Z " fill="#587E82" transform="translate(112,191)"/>
<path d="M0 0 C1.0326802 2.78823655 1.04509293 3.8677274 0.0625 6.75 C-0.288125 7.4925 -0.63875 8.235 -1 9 C-1.99 9 -2.98 9 -4 9 C-2.80100302 5.9168649 -1.52299523 2.93720508 0 0 Z " fill="#45696E" transform="translate(174,172)"/>
<path d="M0 0 C-2.26185454 2.26185454 -3.96983561 3.03921617 -7 4 C-7.99 3.67 -8.98 3.34 -10 3 C-9 1 -9 1 -5.5625 -0.1875 C-2 -1 -2 -1 0 0 Z " fill="#53797D" transform="translate(289,147)"/>
<path d="M0 0 C4.40114397 0.50298788 6.71195019 2.08772731 10 5 C6.85047161 4.3001048 3.9347497 3.34839851 1 2 C0.67 1.34 0.34 0.68 0 0 Z " fill="#FBEAE9" transform="translate(51,367)"/>
<path d="M0 0 C1.4540625 0.0309375 1.4540625 0.0309375 2.9375 0.0625 C0.22567788 2.66584924 -0.95383813 3.05706691 -4.8125 3.25 C-5.885 3.188125 -6.9575 3.12625 -8.0625 3.0625 C-7.423125 2.753125 -6.78375 2.44375 -6.125 2.125 C-2.0825 0.0425 -2.0825 0.0425 0 0 Z " fill="#7EACAF" transform="translate(224.0625,203.9375)"/>
<path d="M0 0 C0 0.99 0 1.98 0 3 C-6.625 4 -6.625 4 -10 4 C-7.25346796 1.25346796 -3.91404908 0 0 0 Z " fill="#4D7075" transform="translate(159,191)"/>
<path d="M0 0 C0.66 0.33 1.32 0.66 2 1 C-0.48952921 3.66735273 -2.63408134 5.55746343 -6 7 C-4.60667426 3.63279613 -3.0210714 2.0140476 0 0 Z " fill="#557E83" transform="translate(96,101)"/>
</svg>
