<!--?xml version="1.0" encoding="utf-8"?-->
<!-- Generator: Adobe Illustrator 18.1.1, SVG Export Plug-In . SVG Version: 6.00 Build 0)  -->

<svg version="1.1" id="_x32_" xmlns="http://www.w3.org/2000/svg" xmlns:xlink="http://www.w3.org/1999/xlink" x="0px" y="0px" viewBox="0 0 512 512" style="width: 64px; height: 64px; opacity: 1;" xml:space="preserve">
<style type="text/css">
	.st0{fill:#4B4B4B;}
</style>
<g>
	<path class="st0" d="M480.613,243.795H203.365c-15.438,0-29.234,9.912-34.528,24.832l-38.771,111.999
		c-1.196,3.46-3.955,6.148-7.448,7.256c-3.492,1.1-7.288,0.495-10.254-1.642l-5.741-4.131c-4.961-3.572-7.002-9.976-5.008-15.757
		l39.137-114.422c8.086-22.718,29.298-37.989,52.806-37.989h172.578l-5.789-18.309c-4.928-15.605-19.042-26.164-34.975-26.164
		H134.978c-11.403,0-21.77-6.786-26.618-17.416c-5.757-12.616-18.085-20.67-31.625-20.67H27.582
		c-8.836,0-17.129,4.362-22.328,11.723c-5.183,7.368-6.634,16.849-3.892,25.501l83.299,271.036
		c4.482,14.17,17.64,23.803,32.503,23.803h297.215c14.417,0,27.288-9.074,32.12-22.663l60.014-158.798
		c3.094-8.716,1.866-18.436-3.285-26.044C498.061,248.333,489.608,243.795,480.613,243.795z" style="fill: rgb(226, 96, 0);"></path>
	<path class="st0" d="M502.734,105.889h-48.068V57.813c0-5.112-4.146-9.258-9.266-9.258h-18.691c-5.103,0-9.25,4.146-9.25,9.258
		v48.076h-48.085c-5.103,0-9.25,4.154-9.25,9.258v18.692c0,5.112,4.147,9.258,9.25,9.258h48.085v48.077
		c0,5.112,4.147,9.258,9.25,9.258h18.691c5.12,0,9.266-4.146,9.266-9.258v-48.077h48.068c5.12,0,9.266-4.146,9.266-9.258v-18.692
		C512,110.043,507.854,105.889,502.734,105.889z" style="fill: rgb(226, 96, 0);"></path>
</g>
</svg>
