<!--?xml version="1.0" encoding="utf-8"?-->
<!-- Generator: Adobe Illustrator 18.1.1, SVG Export Plug-In . SVG Version: 6.00 Build 0)  -->

<svg version="1.1" id="_x32_" xmlns="http://www.w3.org/2000/svg" xmlns:xlink="http://www.w3.org/1999/xlink" x="0px" y="0px" viewBox="0 0 512 512" style="width: 64px; height: 64px; opacity: 1;background-color: #ffffff" xml:space="preserve">
<style type="text/css">
	.st0{fill:#4B4B4B;}
</style>
<g>
	<path class="st0" d="M466.858,303.614c-0.329-2.295-1.787-12.168-3.753-23.483c-1.12-6.458-2.401-13.377-3.744-19.674
		c-0.676-3.149-1.361-6.138-2.064-8.869c-0.712-2.731-1.414-5.185-2.188-7.365c-17.362-48.592-44.074-104.238-66.462-147.875
		c-21.899-42.659-39.662-73.773-40.48-75.196c-3.131-6.413-7.934-11.66-13.688-15.307C328.546,2.098,321.58,0,314.34,0
		c-1.512,0-3.05,0.088-4.607,0.284L193.648,14.463c-10.442,1.281-19.614,7.48-24.71,16.651h-0.009
		c-0.026,0.053-3.434,5.63-7.587,12.978c-2.073,3.673-4.341,7.792-6.467,11.91c-2.135,4.127-4.136,8.236-5.702,12.008
		c-2.224,5.319-3.371,10.798-3.371,16.206c-0.009,5.764,1.325,11.421,3.976,16.5c2.633,5.079,6.573,9.526,11.519,12.986
		c1.956,1.361,4.047,2.428,6.475,3.54c4.226,1.913,9.394,3.781,15.166,5.604c8.654,2.721,18.59,5.292,28.01,7.214
		c4.713,0.96,9.295,1.752,13.538,2.312c4.261,0.569,8.156,0.907,11.678,0.907c1.717,0,3.344-0.071,4.963-0.293
		c1.619-0.231,3.229-0.561,5.035-1.344h0.009c3.121-1.396,5.861-3.291,8.28-5.435c4.234-3.762,7.579-8.272,10.407-12.897
		c4.207-6.947,7.223-14.205,9.269-19.827c0.516-1.423,0.961-2.748,1.352-3.922c2.437-0.365,5.418-0.943,8.788-1.894
		c1.432-0.41,2.953-0.907,4.5-1.459c0.819,3.344,1.824,7.738,2.82,12.862c2.232,11.456,4.412,26.516,4.403,40.942
		c0,2.464-0.063,4.901-0.196,7.303c-0.267,4.83-0.392,9.704-0.392,14.605c0,19.142,1.868,38.657,4.358,57.318
		c0.321,2.384,0.65,4.75,0.979,7.098c-6.547-5.213-13.662-9.82-21.268-13.681c-16.785-8.485-35.793-13.431-55.299-13.431
		c-18.074-0.009-36.593,4.278-53.849,13.912c-10.452,5.816-20.396,13.608-29.512,23.455c-9.474-6.787-23.758-15.61-40.676-23.011
		c-16.82-7.339-36.21-13.289-56.081-13.912V216.8c9.011,0.329,18.234,1.975,27.236,4.519c15.156,4.269,29.664,11.029,41.441,17.701
		c5.897,3.326,11.109,6.635,15.388,9.579c0.64,0.436,1.245,0.862,1.842,1.29c-2.002,2.766-3.95,5.64-5.836,8.664l14.526,9.073
		c11.679-18.679,25.43-31.39,40.017-39.537c14.597-8.139,30.109-11.732,45.506-11.742c16.598-0.009,33.044,4.243,47.56,11.59
		c13.19,6.671,24.727,15.921,33.409,26.657c0.943,5.782,1.876,11.376,2.731,16.705l16.908-2.731
		c-1.067-6.609-2.223-13.556-3.397-20.725l0.133-0.089c-0.053-0.088-0.125-0.16-0.187-0.24c-1.592-9.829-3.202-20.076-4.598-30.544
		c-2.428-18.208-4.207-37.02-4.207-55.05c0-4.616,0.116-9.179,0.364-13.662c0.151-2.74,0.223-5.497,0.223-8.246
		c-0.009-16.357-2.428-32.564-4.83-44.785c-1.467-7.436-2.917-13.377-3.852-16.935c3.176-2.18,6.351-4.75,9.393-7.792L301.71,58.385
		c-3.638,3.647-7.516,6.368-11.314,8.432c-5.692,3.096-11.234,4.67-15.29,5.444c-2.019,0.39-3.664,0.577-4.75,0.666
		c-0.542,0.045-0.952,0.062-1.191,0.08h-0.231h-0.028h-6.572l-1.664,6.404c-0.053,0.231-2.285,8.522-6.341,17.238
		c-2.019,4.358-4.501,8.806-7.196,12.328c-1.342,1.752-2.74,3.274-4.082,4.465c-1.308,1.139-2.562,1.958-3.709,2.491
		c-0.134,0.018-0.436,0.089-0.864,0.125c-0.569,0.053-1.37,0.107-2.312,0.107c-1.805,0-4.162-0.16-6.822-0.446
		c-4.679-0.516-10.336-1.467-16.233-2.703c-8.86-1.851-18.306-4.341-26.151-6.867c-3.932-1.263-7.454-2.536-10.256-3.701
		c-1.396-0.586-2.615-1.138-3.576-1.618c-0.96-0.489-1.68-0.925-2.01-1.157c-2.828-1.992-4.812-4.304-6.156-6.867
		c-1.333-2.57-2.027-5.426-2.036-8.592c0-2.962,0.631-6.209,2.055-9.625c1.28-3.078,3.104-6.866,5.105-10.718
		c2.998-5.791,6.378-11.786,9.002-16.304c1.308-2.259,2.428-4.145,3.22-5.47c0.401-0.667,0.712-1.182,0.916-1.53
		c0.106-0.169,0.187-0.311,0.25-0.4l0.071-0.124l0.124-0.196l0.116-0.214c2.42-4.5,6.867-7.552,11.938-8.166l116.112-14.187h0.027
		c0.818-0.098,1.645-0.151,2.481-0.151c3.94,0,7.738,1.138,10.985,3.184c3.238,2.055,5.906,5,7.623,8.655l0.142,0.312l0.179,0.302
		c0,0,0.062,0.125,0.195,0.356c2.09,3.655,20.271,35.685,42.037,78.318c21.765,42.615,47.124,95.903,63.482,141.72
		c0.498,1.415,1.112,3.468,1.726,5.88c1.094,4.225,2.241,9.579,3.326,15.157c1.628,8.37,3.113,17.282,4.198,24.078
		c0.543,3.398,0.978,6.262,1.28,8.29c0.151,0.996,0.267,1.796,0.347,2.339c0.08,0.543,0.125,0.818,0.125,0.818l0.106,0.739
		l0.222,0.702c0.312,0.952,0.507,2.118,0.507,3.443c0,1.85-0.382,3.994-1.2,6.137c-1.219,3.238-3.38,6.422-6.289,8.841
		c-2.917,2.419-6.493,4.127-10.984,4.67l-62.638,7.677l-1.725,1.191l-0.028,0.018c-0.738,0.508-15.814,10.781-36.628,21.668
		c-10.398,5.444-22.237,11.038-34.37,15.637c-12.123,4.608-24.558,8.21-36.015,9.767c-7.294,0.996-17.291,1.796-28.49,2.339
		c-11.217,0.543-23.669,0.827-36.069,0.827c-16.74,0-33.4-0.516-46.732-1.583c-6.654-0.534-12.488-1.21-16.962-1.984
		c-2.241-0.382-4.128-0.792-5.55-1.183c-1.414-0.391-2.384-0.801-2.544-0.898l-15.868-8.548l3.407,17.71
		c0.24,1.254,0.373,2.623,0.373,4.136c0.018,5.692-1.974,13.288-6.066,21.756c-6.102,12.72-16.696,27.324-30.037,41.521
		c-9.597,10.229-20.618,20.28-32.35,29.468V512c22.326-15.993,42.748-35.188,58.11-54.454c8.165-10.264,14.907-20.546,19.711-30.536
		c3.851-8.05,6.475-15.913,7.382-23.598c2.126,0.374,4.394,0.712,6.84,1.032c7.828,0.996,17.255,1.708,27.573,2.17
		c10.318,0.481,21.499,0.703,32.715,0.703c12.658,0,25.359-0.293,36.887-0.845c11.546-0.551,21.882-1.37,29.984-2.473
		c13.485-1.85,27.236-5.932,40.4-10.958c19.729-7.552,38.123-17.256,51.678-25.092c10.024-5.808,17.38-10.576,20.583-12.71
		l58.332-7.151l0.088-0.009c5.239-0.614,10.034-2.232,14.196-4.563c6.262-3.505,11.074-8.53,14.347-14.116
		c3.255-5.594,5.043-11.785,5.062-17.976C467.944,308.79,467.588,306.175,466.858,303.614z" style="fill: rgb(57, 24, 24);"></path>
</g>
</svg>
