<?xml version="1.0" encoding="iso-8859-1"?>
<!-- Uploaded to: SVG Repo, www.svgrepo.com, Generator: SVG Repo Mixer Tools -->
<svg height="800px" width="800px" version="1.1" id="Layer_1" xmlns="http://www.w3.org/2000/svg" xmlns:xlink="http://www.w3.org/1999/xlink" 
	 viewBox="0 0 501.206 501.206" xml:space="preserve">
<polygon style="fill:#3A5569;" points="69.333,318.736 187.733,439.27 491.733,108.603 393.6,9.403 "/>
<g>
	<path style="fill:#FEC656;" d="M491.733,108.603l3.2-3.2c8.533-9.6,8.533-24.533-1.067-34.133l-62.933-64
		c-9.6-9.6-24.533-9.6-33.067,0l-3.2,3.2L491.733,108.603z"/>
	<polygon style="fill:#FEC656;" points="0,481.936 35.2,501.136 52.267,484.07 24.533,456.336 	"/>
</g>
<path style="fill:#637888;" d="M24.533,455.27l14.933,14.933l13.867,14.933c35.2-35.2,107.733-41.6,107.733-41.6l-48-49.067
	l-48-49.067C65.067,345.403,58.667,420.07,24.533,455.27z"/>
<polygon style="fill:#F16D6E;" points="65.067,345.403 161.067,443.536 187.733,439.27 69.333,318.736 "/>
</svg>