<!--?xml version="1.0" encoding="utf-8"?-->
<!-- Generator: Adobe Illustrator 18.1.1, SVG Export Plug-In . SVG Version: 6.00 Build 0)  -->

<svg version="1.1" id="_x32_" xmlns="http://www.w3.org/2000/svg" xmlns:xlink="http://www.w3.org/1999/xlink" x="0px" y="0px" viewBox="0 0 512 512" style="width: 64px; height: 64px; opacity: 1;" xml:space="preserve">
<style type="text/css">
	.st0{fill:#4B4B4B;}
</style>
<g>
	<polygon class="st0" points="232.873,290.18 279.565,280.15 279.565,219.214 232.873,229.244 	" style="fill: rgb(21, 132, 190);"></polygon>
	<path class="st0" d="M255.998,0.002C114.609,0.002,0,114.611,0,255.996c0,141.393,114.609,256.002,255.998,256.002
		C397.383,511.998,512,397.389,512,255.996C512,114.611,397.383,0.002,255.998,0.002z M341.31,202.83
		c0,1.802-1.279,3.387-3.037,3.765l-31.3,6.732v60.952l29.688-6.402c0.246-0.049,0.511-0.072,0.792-0.072
		c0.889,0,1.762,0.297,2.45,0.852c0.876,0.724,1.408,1.842,1.408,2.992v28.915c0,1.834-1.255,3.387-3.041,3.773l-31.296,6.724V354.8
		c0,1.866-1.327,3.458-3.149,3.781l-19.73,3.571c-0.136,0-0.266,0.008-0.394,0.008c-1.339,0-2.123-0.314-2.762-0.845
		c-0.869-0.724-1.371-1.801-1.371-2.944v-41.439l-46.692,10.054v44.752c0,1.858-1.331,3.46-3.168,3.797l-19.71,3.546l-0.7,0.065
		c-0.897,0-1.769-0.314-2.461-0.893c-0.865-0.724-1.367-1.802-1.367-2.952v-42.428l-30.13,6.467c-0.265,0.056-0.539,0.08-0.805,0.08
		c-0.876,0-1.733-0.297-2.421-0.844c-0.905-0.732-1.428-1.834-1.428-2.992v-28.924c0-1.794,1.283-3.378,3.045-3.772l31.739-6.822
		v-60.936l-30.13,6.475c-0.265,0.057-0.539,0.08-0.805,0.08c-0.876,0-1.733-0.297-2.421-0.852c-0.905-0.732-1.428-1.826-1.428-3
		v-28.915c0-1.81,1.279-3.386,3.041-3.772l31.743-6.82v-41.11c0-1.857,1.331-3.458,3.169-3.796l19.71-3.555l0.692-0.064
		c0.897,0,1.769,0.313,2.465,0.893c0.877,0.731,1.371,1.801,1.371,2.944v38.817l46.692-10.054v-42.131
		c0-1.858,1.327-3.45,3.157-3.772l19.722-3.572l0.692-0.064c0.897,0,1.778,0.314,2.461,0.877c0.873,0.74,1.376,1.818,1.376,2.959
		v39.806l29.688-6.362c0.265-0.057,0.547-0.081,0.812-0.081c0.877,0,1.742,0.306,2.43,0.852c0.889,0.724,1.408,1.818,1.408,2.992
		V202.83z" style="fill: rgb(21, 132, 190);"></path>
</g>
</svg>
