<!--?xml version="1.0" encoding="utf-8"?-->
<!-- Generator: Adobe Illustrator 18.1.1, SVG Export Plug-In . SVG Version: 6.00 Build 0)  -->

<svg version="1.1" id="_x32_" xmlns="http://www.w3.org/2000/svg" xmlns:xlink="http://www.w3.org/1999/xlink" x="0px" y="0px" viewBox="0 0 512 512" style="width: 64px; height: 64px; opacity: 1;" xml:space="preserve">
<style type="text/css">
	.st0{fill:#4B4B4B;}
</style>
<g>
	<path class="st0" d="M280.211,129.456c-7.121-3.287-15.39-5.124-24.216-5.168h-0.265c-11.732,0.026-22.492,3.154-30.868,8.8
		c-4.178,2.844-7.774,6.342-10.415,10.548c-2.633,4.188-4.25,9.152-4.258,14.373l-0.159,39.19v0.106
		c-0.009,5.221,1.59,10.204,4.214,14.409c3.948,6.342,10.001,11.104,17.103,14.408c7.12,3.296,15.39,5.124,24.216,5.168h0.035h0.221
		c11.732-0.017,22.501-3.154,30.876-8.798c4.178-2.836,7.774-6.344,10.407-10.548c2.633-4.188,4.249-9.153,4.267-14.374
		l0.158-39.189v-0.035v-0.072c0.009-5.22-1.598-10.203-4.214-14.408C293.356,137.531,287.305,132.76,280.211,129.456z
		 M283.568,197.499c-0.018,1.661-0.468,3.242-1.564,5.009c-1.608,2.614-4.841,5.459-9.434,7.553
		c-4.568,2.094-10.398,3.437-16.75,3.428h-0.089h-0.097c-8.499-0.018-16.052-2.474-20.946-5.858c-2.456-1.679-4.232-3.542-5.309-5.3
		c-1.087-1.768-1.538-3.366-1.546-5.027v-0.009v-0.026l0.062-16.158c1.652,1.051,3.392,2.014,5.23,2.853
		c6.661,3.057,14.489,4.779,22.872,4.779c10.486-0.018,20.089-2.703,27.634-7.368L283.568,197.499z M283.727,158.309l-0.035,8.649
		c-2.183,2.597-5.398,5.035-9.462,6.9c-5.072,2.332-11.388,3.764-18.235,3.754c-9.126,0.018-17.307-2.553-22.863-6.352
		c-2.13-1.449-3.861-3.057-5.177-4.718l0.035-8.463c0.018-1.661,0.468-3.242,1.555-5.001c1.608-2.614,4.842-5.468,9.436-7.553
		c4.576-2.103,10.398-3.437,16.75-3.428h0.159h0.026c8.508,0.008,16.061,2.473,20.947,5.848c2.456,1.679,4.231,3.542,5.318,5.301
		c1.087,1.767,1.537,3.365,1.546,5.026V158.309z" style="fill: rgb(60, 139, 166);"></path>
	<path class="st0" d="M101.627,75.618c0.017-0.017,0.044-0.017,0.061-0.035l0.406-0.282L101.627,75.618z" style="fill: rgb(60, 139, 166);"></path>
	<path class="st0" d="M421.345,101.539c-0.703-4.832-2.381-9.365-4.837-13.304l-0.239-0.38l0.234,0.38
		c-4.832-7.704-12.028-13.226-20.058-16.936l-0.013-0.009c-8.093-3.702-17.325-5.68-27.078-5.689h-0.004
		c-6.427,0-12.531,0.998-18.274,2.632l-42.542-20.178c-0.212-6.183-2.103-11.961-5.102-16.82
		c-4.766-7.678-11.86-13.234-19.812-17.016l-0.371-0.176l0.354,0.176c-8.009-3.763-17.166-5.848-26.874-5.98l-0.014,1.007
		l0.004-1.007l-0.875-0.009h-0.052c-12.793,0.026-24.728,3.392-34.327,9.806l-0.013,0.009c-4.793,3.233-9.077,7.323-12.302,12.394
		c-3.172,5.018-5.204,11.025-5.34,17.457L158.49,69.382c-6.802-2.421-14.232-3.772-22.072-3.782h-0.014
		c-12.96,0.026-25.037,3.472-34.715,9.983l-0.075,0.054c-4.833,3.286-9.148,7.456-12.364,12.606l0.685-1.096l-0.68,1.088
		c-2.968,4.735-4.85,10.389-5.142,16.414L0,144.518v237.885L255.995,503.77L512,382.403V144.518L421.345,101.539z M341.548,107.944
		c0.017-1.661,0.468-3.242,1.554-5.001c1.21-1.969,3.34-4.072,6.273-5.884l0.336,0.159l4.594-1.943
		c4.197-1.776,9.382-2.907,15.045-2.898c8.101-0.027,15.266,2.314,19.736,5.397c2.244,1.52,3.8,3.172,4.692,4.621
		c0.892,1.466,1.201,2.632,1.21,3.852v10.893c-1.988,1.793-4.47,3.436-7.412,4.779c-5.072,2.332-11.388,3.764-18.226,3.764
		c-9.135,0.018-17.316-2.562-22.872-6.361c-2.014-1.37-3.666-2.88-4.956-4.452L341.548,107.944z M341.389,147.151v-0.017
		l0.07-17.811c1.582,0.999,3.251,1.9,5.009,2.712c6.661,3.057,14.498,4.771,22.881,4.78c10.583-0.018,20.266-2.756,27.846-7.5
		l-0.08,18.048c-0.008,1.661-0.468,3.242-1.554,5c-1.608,2.616-4.842,5.469-9.435,7.563c-4.568,2.094-10.398,3.428-16.751,3.428
		h-0.088h-0.098c-8.498-0.018-16.052-2.474-20.946-5.858c-2.456-1.678-4.232-3.543-5.309-5.3c-1.086-1.776-1.537-3.366-1.546-5.027
		V147.151z M230.561,48.55c0.026-1.21,0.336-2.358,1.229-3.79c1.307-2.12,4.151-4.682,8.383-6.59
		c4.197-1.917,9.656-3.162,15.629-3.162l0.573,0.008c8.066,0.08,15.169,2.492,19.604,5.602c2.226,1.537,3.763,3.207,4.647,4.655
		c0.901,1.485,1.201,2.651,1.21,3.87v0.035l-0.115,11.114c-1.935,1.748-4.338,3.357-7.174,4.69
		c-5.026,2.377-11.29,3.878-18.102,3.958h-0.017l-0.627,0.009c-8.976,0.009-17.025-2.491-22.502-6.201
		c-1.059-0.708-1.996-1.484-2.862-2.262L230.561,48.55z M228.078,87.616v-0.035l0.212-14.834c1.573,0.981,3.234,1.874,4.966,2.669
		c6.581,2.985,14.293,4.655,22.546,4.655h0.786h0.008c10.434-0.15,19.966-2.942,27.432-7.66l-0.23,16.176
		c-0.044,1.635-0.495,3.181-1.573,4.894c-1.608,2.562-4.788,5.345-9.302,7.378c-4.496,2.04-10.222,3.339-16.458,3.33l-0.795-0.009
		c-8.455-0.123-15.937-2.65-20.787-6.06c-2.439-1.696-4.197-3.578-5.275-5.344c-1.077-1.776-1.519-3.374-1.528-5.027V87.616z
		 M110.775,106.248c0.009-1.22,0.318-2.386,1.21-3.852c1.316-2.165,4.214-4.806,8.516-6.768c4.276-1.97,9.833-3.26,15.911-3.25
		c6.759-0.018,12.845,1.598,17.307,3.966l4.93,2.597l0.619-0.291c1.554,1.307,2.738,2.668,3.542,3.958
		c1.086,1.776,1.528,3.366,1.537,5.036v0.035l-0.027,7.085c-2.182,2.703-5.468,5.239-9.674,7.156
		c-5.07,2.332-11.388,3.764-18.234,3.764c-9.126,0.018-17.307-2.562-22.864-6.361c-1.024-0.689-1.934-1.44-2.774-2.2V106.248z
		 M108.46,146.657v-0.018l0.071-17.316c1.582,0.999,3.25,1.9,5.009,2.712c6.661,3.057,14.488,4.771,22.872,4.78
		c10.584-0.018,20.275-2.756,27.855-7.5l-0.08,17.554c-0.009,1.661-0.46,3.242-1.555,5c-1.608,2.615-4.841,5.469-9.434,7.563
		c-4.577,2.094-10.399,3.428-16.75,3.428h-0.186c-8.499-0.018-16.052-2.474-20.946-5.858c-2.456-1.678-4.232-3.543-5.31-5.3
		c-1.086-1.776-1.537-3.366-1.546-5.027V146.657z M244.872,468.866L26.777,365.476V172.011l218.096,103.39V468.866z
		 M255.995,474.149l-0.653-0.318h1.316L255.995,474.149z M255.995,256.053L41.627,154.422l49.094-23.279l-0.062,15.425v0.106
		c-0.009,5.222,1.59,10.204,4.214,14.409c3.949,6.334,10.001,11.104,17.104,14.409c7.111,3.286,15.381,5.124,24.216,5.167h0.035
		h0.221c11.732-0.026,22.492-3.154,30.867-8.808c4.188-2.827,7.784-6.334,10.416-10.548c2.633-4.188,4.249-9.152,4.266-14.365
		l0.159-39.19v-0.044v-0.062c0.009-5.231-1.598-10.204-4.214-14.418c-0.566-0.883-1.166-1.74-1.802-2.571l34.322-16.273
		l-0.186,12.943v0.423c-0.009,5.196,1.564,10.142,4.152,14.33c3.896,6.325,9.868,11.123,16.901,14.48
		c7.05,3.348,15.248,5.274,24.029,5.424l1.104,0.009c11.547-0.018,22.148-3.066,30.443-8.596c4.135-2.783,7.704-6.228,10.346-10.363
		c2.632-4.126,4.275-9.011,4.347-14.161l0.202-14.365l29.94,14.196c-1.379,1.493-2.651,3.075-3.737,4.797
		c-2.632,4.188-4.249,9.152-4.258,14.373l-0.159,39.19v0.106c-0.017,5.221,1.59,10.204,4.214,14.409
		c3.95,6.334,10.001,11.104,17.095,14.408c7.12,3.286,15.39,5.125,24.224,5.168h0.036h0.22c11.732-0.026,22.502-3.154,30.877-8.808
		c4.178-2.827,7.774-6.343,10.407-10.548c2.633-4.188,4.249-9.152,4.267-14.365l0.08-19.259l55.366,26.248L255.995,256.053z" style="fill: rgb(60, 139, 166);"></path>
</g>
</svg>
