<svg version="1.1" xmlns="http://www.w3.org/2000/svg" viewBox="0 0 166.8792121470255 204.72349867178377"
     width="166.8792121470255" height="204.72349867178377">
    <!-- svg-source:excalidraw -->

    <defs>
        <style>
            @font-face {
            font-family: "Virgil";
            src: url("https://excalidraw.com/Virgil.woff2");
            }
            @font-face {
            font-family: "Cascadia";
            src: url("https://excalidraw.com/Cascadia.woff2");
            }
        </style>
    </defs>
    <rect x="0" y="0" width="166.8792121470255" height="204.72349867178377" fill="#FFF"></rect>
    <g transform="translate(48.40530636252237 132.19195956959868) rotate(270.8387005206981 25.5 36.5)">
        <path d="M-1.1208484917879105 -0.4775470942258835 C17.486317964643238 -1.402186252400279, 34.545800705254074 0.9987513048201799, 50.87841860949993 -0.8553008288145065 M0.954434908926487 -0.4725112095475197 C19.23431928381324 -0.1356789688020945, 39.83308946192265 -0.8473744014650584, 50.93702868372202 0.3115919455885887 M50.04726092517376 -1.6678809374570847 C52.95039848767221 26.926145852357152, 49.40626482449472 56.1901708111167, 51.11261384189129 72.9827619343996 M50.99027232080698 0.4351976737380028 C50.92376664884389 21.86455749347806, 52.28304890401662 43.31817115843296, 51.90283588320017 73.79091795533895 M52.39974229037762 71.96009881794453 C32.586867950111625 73.2347427969426, 16.686270831525327 71.81753460220993, -1.6841510087251663 73.34665782749653 M51.15767864137888 72.30569799989462 C31.172175646573304 74.05064970709384, 12.439640486240386 73.44456035353244, -0.7475907430052757 72.04724439233541 M-1.7904551774263382 73.93813045322895 C-0.0357566221803427 53.85066623017192, -1.412623439654708 36.6138642385602, -1.942051723599434 -0.778749868273735 M0.6834605112671852 72.32233937829733 C1.0984711795300246 48.366464503854516, -0.38100694127380846 23.055448943376547, -0.3108820542693138 -0.5876416340470314"
              stroke="#000000" stroke-width="1" fill="none"></path>
    </g>
    <g transform="translate(47.138298603637054 6.497482330769458) rotate(270.8387005206981 23.5 27)">
        <path d="M23.557033225893974 1.550847128033638 C30.233554235249755 8.036701255813242, 35.07144227564335 14.831713548079135, 46.68717496097088 27.622541025280952 M24.78498486429453 0.004384361207485199 C30.25051047578454 7.728570887371898, 37.15332159548998 15.487163484022023, 47.59899190813303 27.938397489488125 M47.65618817508221 26.859399393200874 C37.46858344495296 38.36081266276538, 31.982372941523792 44.04469370864332, 22.9251696318388 54.8632984906435 M47.22187665849924 28.20818241685629 C39.14214169174433 35.559333840981125, 33.67428833857179 44.177605834081774, 24.613070286810398 53.51581462472677 M22.727312728762627 52.11273010075092 C16.770893188267948 45.86368801683187, 11.614579488784074 36.95110094487667, -0.18957312405109406 29.115728929638863 M24.73638228327036 53.909195743501186 C15.710272486358882 45.36917029678821, 5.504476763159037 35.4109991928935, 0.8866472616791725 27.349968515336514 M-0.6910188943147659 27.826952531933784 C7.023102237284185 20.454812983870504, 16.25510334521532 7.612387151718135, 25.6783959120512 1.8490706235170364 M-0.7025041207671165 27.423586450517178 C7.794387659430505 19.378790507018564, 15.274945440888407 9.675764888823029, 24.615279473364353 0.15545877069234848"
              stroke="#000000" stroke-width="1" fill="none"></path>
    </g>
    <g>
        <g transform="translate(-9.59732291285141 120.02657884853488) rotate(270.8387005206981 50.91332904697397 -29.73337549350262)">
            <path d="M1.0136195629835127 -0.37007522284984584 C8.621894944707552 -1.0091240217288333, 43.89015516936779 5.4135138859351475, 45.298917815089226 -4.538147827982902 C46.707680460810664 -14.489809541900952, 0.12878797550996168 -55.575634158651035, 9.466195437312127 -60.08004550635815 C18.803602899114292 -64.58445685406525, 86.09686108926932 -36.551693213979405, 101.32336258590222 -31.564615914225577 M0.08663110421039155 -1.6099686601851135 C8.116229772527392 -2.5526503302746764, 46.16636776433326 3.2016854642735186, 47.642804204383864 -6.418250186452642 C49.11924064443447 -16.0381858371788, -0.07095405304494129 -55.27309453230041, 8.945249744514003 -59.32958256454207 C17.961453542072945 -63.38607059678373, 86.68716466035384 -35.75801339339154, 101.74002698973753 -30.757178379902616"
                  stroke="#000000" stroke-width="1" fill="none"></path>
        </g>
    </g>
    <g>
        <g transform="translate(62.533162218833354 121.34836796433422) rotate(111.25894624818115 50.70928094745615 -28.724361269068737)">
            <path d="M0.42626528441905975 1.0515441924333573 C8.0898873458306 0.4520705888668697, 43.746697375178336 6.162330566843352, 45.08971295058727 -3.866162201762199 C46.432728525996204 -13.89465497036775, -0.9412079046169914 -54.546763766805334, 8.484358736872673 -59.119412419199946 C17.909925378362338 -63.69206107159456, 86.29954587320486 -35.9544878611962, 101.64311279952526 -31.302054116129874 M-0.8090841706003995 0.5580009481217711 C7.304918184240039 -0.324328549116229, 45.94759462819435 4.343630902658528, 47.32376678601839 -5.39347210646607 C48.699938943842426 -15.130575115590666, -1.7026977702385437 -53.704067184735706, 7.4479487763438375 -57.86461710662581 C16.59859532292622 -62.02516702851591, 86.38625895585554 -34.84727523039716, 102.22764606551267 -30.35677163780667"
                  stroke="#000000" stroke-width="1" fill="none"></path>
        </g>
    </g>
</svg>