<!--?xml version="1.0" encoding="utf-8"?-->
<!-- Generator: Adobe Illustrator 15.1.0, SVG Export Plug-In . SVG Version: 6.00 Build 0)  -->

<svg version="1.1" id="_x32_" xmlns="http://www.w3.org/2000/svg" xmlns:xlink="http://www.w3.org/1999/xlink" x="0px" y="0px" width="512px" height="512px" viewBox="0 0 512 512" style="width: 64px; height: 64px; opacity: 1;" xml:space="preserve">
<style type="text/css">

	.st0{fill:#4B4B4B;}

</style>
<g>
	<path class="st0" d="M330.609,46.469V0H181.391v46.469h-80.75V512h113.125v-84h84.453v84h113.141V46.469H330.609z M172.578,373.875
		h-33.359v-54.219h33.359V373.875z M172.578,264.375h-33.359v-54.219h33.359V264.375z M172.578,154.906h-33.359v-54.203h33.359
		V154.906z M239.313,373.875h-33.359v-54.219h33.359V373.875z M239.313,264.375h-33.359v-54.219h33.359V264.375z M239.313,154.906
		h-33.359v-54.203h33.359V154.906z M306.047,373.875h-33.359v-54.219h33.359V373.875z M306.047,264.375h-33.359v-54.219h33.359
		V264.375z M306.047,154.906h-33.359v-54.203h33.359V154.906z M372.781,373.875h-33.375v-54.219h33.375V373.875z M372.781,264.375
		h-33.375v-54.219h33.375V264.375z M372.781,154.906h-33.375v-54.203h33.375V154.906z" style="fill: rgb(21, 101, 129);"></path>
</g>
</svg>
