<!--?xml version="1.0" encoding="utf-8"?-->
<!-- Generator: Adobe Illustrator 18.0.0, SVG Export Plug-In . SVG Version: 6.00 Build 0)  -->

<svg version="1.1" id="_x32_" xmlns="http://www.w3.org/2000/svg" xmlns:xlink="http://www.w3.org/1999/xlink" x="0px" y="0px" viewBox="0 0 512 512" style="width: 64px; height: 64px; opacity: 1;" xml:space="preserve">
<style type="text/css">
	.st0{fill:#4B4B4B;}
</style>
<g>
	<path class="st0" d="M83.644,366.639c-4.438,4.438-4.438,11.699,0,16.137l6.93,6.93l-88.76,88.758
		c-0.932,0.934-1.781,2.812-1.807,4.133c-0.521,27.691,25.732,35.035,39.111,21.656l83.002-83l6.982,6.98
		c4.426,4.426,11.604,4.426,16.029,0l34.805-34.805l-61.541-61.539L83.644,366.639z" style="fill: rgb(68, 157, 207);"></path>
	
		<rect x="129.881" y="318.794" transform="matrix(-0.7071 -0.7071 0.7071 -0.7071 56.7051 700.3479)" class="st0" width="87.03" height="39.273" style="fill: rgb(68, 157, 207);"></rect>
	<path class="st0" d="M260.923,282.448l142.992-142.992c5.326-5.324,5.687-13.754,0.722-18.719l-13.549-13.551
		c-4.965-4.965-13.394-4.601-18.72,0.727L229.376,250.901l-6.98-6.98c-4.396-4.395-11.844-4.188-16.602,0.57l-38.941,38.942
		l61.541,61.539l38.941-38.941c4.758-4.758,5.018-12.152,0.57-16.598L260.923,282.448z" style="fill: rgb(68, 157, 207);"></path>
	<path class="st0" d="M220.013,227.026l122.041-122.039l-0.364-3.472c-0.939-8.902-10.084-87.316-42.414-98.769
		c-11.484-4.066-23.646,0.207-36.166,12.722c-57.9,57.902-45.217,190.605-44.646,196.226L220.013,227.026z" style="fill: rgb(68, 157, 207);"></path>
	<path class="st0" d="M510.512,213.979c-11.453-32.328-89.871-41.476-98.773-42.414l-3.471-0.367L286.226,293.241l15.336,1.551
		c5.621,0.57,138.33,13.254,196.23-44.648l0.014-0.012C510.304,237.628,514.577,225.464,510.512,213.979z" style="fill: rgb(68, 157, 207);"></path>
</g>
</svg>
