<?xml version="1.0" standalone="no"?>
<!DOCTYPE svg PUBLIC "-//W3C//DTD SVG 20010904//EN"
 "http://www.w3.org/TR/2001/REC-SVG-20010904/DTD/svg10.dtd">
<svg version="1.0" xmlns="http://www.w3.org/2000/svg"
 width="367.000000pt" height="367.000000pt" viewBox="0 0 367.000000 367.000000"
 preserveAspectRatio="xMidYMid meet">

<g transform="translate(0.000000,367.000000) scale(0.100000,-0.100000)"
fill="#1e4b8c" stroke="none">
<path d="M483 3646 c-98 -36 -171 -85 -253 -166 -86 -86 -139 -171 -178 -285
l-27 -80 0 -1265 0 -1265 27 -80 c39 -114 92 -199 178 -285 86 -86 171 -139
285 -178 l80 -27 1245 0 1245 0 80 27 c114 39 199 92 285 178 86 86 139 171
178 285 l27 80 0 1265 0 1265 -27 78 c-37 111 -100 211 -183 292 -80 78 -154
126 -251 161 l-65 24 -1292 -1 -1292 0 -62 -23z m1933 -863 c26 -78 43 -97
124 -138 74 -38 112 -74 135 -128 l16 -38 37 29 c48 38 91 51 180 57 84 5 99
12 163 72 37 34 53 43 69 38 31 -10 41 -45 30 -111 -21 -129 -72 -230 -151
-298 -68 -58 -123 -83 -241 -110 -27 -6 -28 -8 -28 -77 0 -130 -56 -342 -132
-494 -42 -84 -122 -198 -196 -277 -24 -26 -41 -51 -38 -57 4 -5 23 -15 44 -22
20 -6 72 -27 115 -47 86 -39 102 -63 73 -107 -23 -35 -84 -49 -216 -48 -87 0
-129 5 -173 20 l-57 20 -53 -39 c-28 -22 -79 -53 -112 -70 -33 -17 -62 -34
-65 -38 -11 -16 -149 -51 -244 -62 -115 -12 -294 -5 -377 16 -76 19 -133 37
-139 46 -3 4 -38 24 -79 44 -104 52 -154 88 -254 186 -219 211 -309 402 -342
721 -14 138 36 347 114 479 77 129 226 264 346 315 108 45 310 66 447 46 71
-10 83 -9 135 11 32 11 60 24 63 28 13 18 114 42 195 47 79 5 93 3 114 -14
l24 -19 -52 -51 c-43 -42 -51 -56 -51 -87 0 -49 19 -76 83 -117 28 -18 129
-108 222 -199 121 -117 188 -174 232 -197 33 -18 68 -33 76 -33 10 0 21 19 31
54 9 30 16 57 16 60 0 3 -33 38 -73 78 -101 100 -147 207 -147 340 0 57 27
169 51 207 32 52 59 40 85 -36z"/>
<path d="M751 2120 c-25 -5 -48 -15 -53 -22 -12 -19 -10 -76 7 -170 28 -163
84 -306 170 -434 25 -37 45 -70 45 -73 0 -4 33 -39 73 -78 98 -96 188 -156
272 -178 60 -17 72 -17 109 -4 23 8 42 21 44 32 2 9 -10 45 -27 79 -17 34 -31
71 -31 84 0 25 24 54 45 54 32 0 180 -88 303 -179 73 -55 154 -107 180 -116
26 -9 90 -19 142 -22 l95 -5 -35 28 c-78 61 -230 225 -292 314 -176 252 -214
303 -271 363 -109 114 -242 207 -368 258 -148 59 -317 88 -408 69z"/>
<path d="M1914 2026 c-28 -25 -28 -26 -10 -41 11 -8 30 -15 43 -15 31 0 79
-25 87 -45 3 -9 6 -45 6 -80 0 -54 4 -68 26 -95 50 -59 111 -74 179 -46 22 10
35 22 35 33 0 29 -70 142 -128 204 -65 71 -106 97 -164 105 -38 5 -48 3 -74
-20z"/>
<path d="M1914 1896 c-10 -26 4 -48 28 -44 17 2 23 10 23 28 0 18 -6 26 -23
28 -13 2 -25 -3 -28 -12z"/>

<!-- Ajout du dièse (#) en bas à gauche -->
<!-- Les coordonnées x et y sont relatives au système de coordonnées transformé. -->
<!-- y=300 le place vers le bas car l'axe y est inversé par le scale(0.1, -0.1) -->
<!-- x=300 le place vers la gauche. -->
<!-- Vous devrez peut-être ajuster x, y et font-size. -->
<text x="2250" y="-250" font-family="Arial, sans-serif" font-size="2250" fill="#808080" font-weight="bold" transform="scale(1,-1)">#</text>
</g>
</svg>
