<!--?xml version="1.0" encoding="utf-8"?-->
<!-- Generator: Adobe Illustrator 15.1.0, SVG Export Plug-In . SVG Version: 6.00 Build 0)  -->

<svg version="1.1" id="_x32_" xmlns="http://www.w3.org/2000/svg" xmlns:xlink="http://www.w3.org/1999/xlink" x="0px" y="0px" width="512px" height="512px" viewBox="0 0 512 512" style="width: 64px; height: 64px; opacity: 1;" xml:space="preserve">
<style type="text/css">

	.st0{fill:#4B4B4B;}

</style>
<g>
	<path class="st0" d="M422.002,6.017C315.33,20.736,213.205,220.861,162.939,313.486c-12.641,23.297,9.422,35.406,22.422,13.125
		c9.344-16.016,32.109-62.5,44.422-60.094c58.797,9.797,90.156-28.547,67.891-52.672c74.797,1.531,111.875-39.609,90.656-64.609
		c22.313,7.063,55.078,6.031,83.766-9.609C533.33,106.22,529.627-8.827,422.002,6.017z" style="fill: rgb(255, 155, 103);"></path>
	<path class="st0" d="M409.189,207.048c-9.719,9.141-27.031,22.141-41.547,27.813v207.062c-0.016,4.609-1.781,8.531-4.781,11.563
		c-3.031,3-6.953,4.766-11.547,4.781H65.361c-4.594-0.016-8.531-1.781-11.563-4.781c-3-3.031-4.766-6.953-4.781-11.563V155.986
		c0.016-4.594,1.781-8.531,4.781-11.563c3.031-3,6.969-4.766,11.563-4.781h160.391c11.234-17.125,22.734-33.578,34.484-49.016
		H65.361c-17.969-0.016-34.469,7.344-46.219,19.141c-11.781,11.75-19.156,28.25-19.141,46.219v285.937
		c-0.016,17.969,7.359,34.469,19.141,46.234c11.75,11.781,28.25,19.156,46.219,19.141h285.953
		c17.953,0.016,34.453-7.359,46.219-19.141c11.781-11.766,19.156-28.266,19.141-46.234V206.017
		C416.674,206.017,414.002,202.517,409.189,207.048z" style="fill: rgb(255, 155, 103);"></path>
</g>
</svg>
